<svg width="55" height="53" viewBox="0 0 55 53" fill="none" xmlns="http://www.w3.org/2000/svg">
<path d="M13.4173 34.5596H9.48897L5.07764 41.6506H48.1211L43.7098 34.5596H41.9741" stroke="#9697B9" stroke-width="1.01251" stroke-linecap="round" stroke-linejoin="round"/>
<path d="M31.7 22.2084L18.3464 18.3359L12.1689 38.6697H40.7258L44.5909 25.9474L35.7141 23.3728" stroke="#9697B9" stroke-width="1.01251" stroke-linecap="round" stroke-linejoin="round"/>
<path d="M36.7011 16.7734C35.8558 18.4251 32.5369 21.1652 32.248 21.5875C31.9591 22.0098 29.5283 24.085 31.1556 25.4147C32.7829 26.7445 35.3412 23.5414 36.1662 22.9978C36.9911 22.4542 41.03 21.3868 41.8967 20.6822C42.7634 19.9776 43.9574 19.2312 44.2666 18.4858L42.5761 13.2482C42.5761 13.2482 35.2995 13.127 34.3301 13.2482C33.3607 13.3695 29.2936 18.6887 29.8984 20.2776C30.6207 22.1719 33.1215 20.7263 33.1215 20.7263" stroke="#9697B9" stroke-width="1.01251" stroke-linecap="round" stroke-linejoin="round"/>
<path d="M42.5762 13.2502L46.3905 11.2754L49.0899 18.3356L44.2667 18.4866" stroke="#9697B9" stroke-width="1.01251" stroke-linecap="round" stroke-linejoin="round"/>
</svg>
