<svg width="68" height="78" viewBox="0 0 68 78" fill="none" xmlns="http://www.w3.org/2000/svg">
<path d="M16.8442 50.457H11.9128L6.375 60.81H60.4095L54.8718 50.457H52.6929" stroke="#31337C" stroke-linecap="round" stroke-linejoin="round"/>
<path d="M39.7956 32.4243L23.0322 26.7705L15.2773 56.4577H51.1261L55.9782 37.8833L44.8347 34.1243" stroke="#31337C" stroke-linecap="round" stroke-linejoin="round"/>
<path d="M46.0728 24.491C45.0117 26.9026 40.8453 30.903 40.4827 31.5196C40.12 32.1362 37.0685 35.1659 39.1113 37.1074C41.1542 39.0489 44.3657 34.3723 45.4013 33.5786C46.4369 32.785 51.5072 31.2266 52.5952 30.1979C53.6832 29.1692 55.182 28.0794 55.5702 26.9911L53.448 19.3443C53.448 19.3443 44.3133 19.1672 43.0964 19.3443C41.8795 19.5214 36.7738 27.2873 37.5332 29.6071C38.4398 32.3728 41.5792 30.2623 41.5792 30.2623" stroke="#31337C" stroke-linecap="round" stroke-linejoin="round"/>
<path d="M53.4482 19.3452L58.2366 16.4619L61.6252 26.7698L55.5704 26.9903" stroke="#31337C" stroke-linecap="round" stroke-linejoin="round"/>
</svg>
