<svg width="38" height="42" viewBox="0 0 38 42" fill="none" xmlns="http://www.w3.org/2000/svg">
<path d="M11.7045 37.1195C9.32949 37.1195 6.94707 37.1195 4.57207 37.1195C4.03027 37.1195 3.48848 37.1195 2.94668 37.1195C2.59043 37.1195 2.21191 37.1687 1.94473 36.8406C1.64043 36.455 1.75918 35.6593 1.75918 35.1835C1.75918 32.4847 1.75918 29.7859 1.75918 27.087C1.75918 23.7074 1.75918 20.3359 1.75918 16.9562C1.75918 15.2992 1.68496 13.6175 1.75918 11.9605C1.78887 11.3535 2.21934 11.132 2.70176 11.132C3.15449 11.132 3.61465 11.132 4.06738 11.132C5.57402 11.132 7.08066 11.132 8.57988 11.132C9.58926 11.132 10.6061 11.1074 11.6154 11.132C12.4318 11.1484 12.4393 11.9113 12.4393 12.5757C12.4393 15.0285 12.4393 17.4812 12.4393 19.9339C12.4393 23.3628 12.4393 26.7917 12.4393 30.2206C12.4393 32.2222 12.4541 34.2238 12.4393 36.2253C12.4318 36.7011 12.1721 37.0949 11.7045 37.1195C10.992 37.1523 10.9846 38.3827 11.7045 38.3499C12.7361 38.3089 13.5229 37.4394 13.5525 36.291C13.56 36.1105 13.5525 35.93 13.5525 35.7495C13.5525 34.757 13.5525 33.7562 13.5525 32.7636C13.5525 29.3839 13.5525 26.0042 13.5525 22.6327C13.5525 19.6304 13.5525 16.6281 13.5525 13.6175C13.5525 13.0761 13.5674 12.5265 13.5525 11.9851C13.5229 10.8202 12.7139 9.92611 11.66 9.89329C11.3705 9.88509 11.0736 9.89329 10.7842 9.89329C8.09004 9.89329 5.40332 9.89329 2.70918 9.89329C1.48457 9.89329 0.65332 10.8038 0.65332 12.1574C0.65332 12.9613 0.65332 13.7734 0.65332 14.5773C0.65332 17.8093 0.65332 21.0495 0.65332 24.2816C0.65332 27.4808 0.65332 30.6718 0.65332 33.871C0.65332 34.6257 0.65332 35.3804 0.65332 36.1351C0.65332 36.7175 0.794336 37.2671 1.16543 37.7019C1.61074 38.2187 2.18965 38.3417 2.79824 38.3417C5.52207 38.3417 8.2459 38.3417 10.9697 38.3417C11.2146 38.3417 11.467 38.3417 11.7119 38.3417C12.417 38.3499 12.417 37.1195 11.7045 37.1195Z" fill="#9697B9"/>
<path d="M18.8513 37.1188C17.6861 37.1188 16.5209 37.1188 15.3482 37.1188C14.9623 37.1188 14.3982 37.2254 14.0271 37.0613C13.6709 36.9055 13.5521 36.5445 13.5447 36.159C13.5373 34.3543 13.5447 32.5496 13.5447 30.7449C13.5447 27.4555 13.5447 24.1742 13.5447 20.8848C13.5447 17.7102 13.5447 14.5273 13.5447 11.3527C13.5447 10.3109 13.5447 9.26914 13.5447 8.23555C13.5447 7.8418 13.5224 7.43984 13.5447 7.04609C13.5892 6.33242 14.1162 6.24219 14.6357 6.24219C15.3185 6.24219 16.0013 6.24219 16.6842 6.24219C17.3224 6.24219 17.9533 6.24219 18.5916 6.24219C19.0963 6.24219 19.549 6.46367 19.5787 7.10352C19.6381 8.61289 19.5787 10.1387 19.5787 11.648C19.5787 14.8473 19.5787 18.0547 19.5787 21.2539C19.5787 24.527 19.5787 27.8 19.5787 31.073C19.5787 32.7957 19.5935 34.5184 19.5787 36.241C19.5787 36.7086 19.3041 37.1023 18.8513 37.1188C18.1388 37.1516 18.1314 38.382 18.8513 38.3492C19.883 38.3082 20.6697 37.4387 20.6994 36.2984C20.7068 36.1508 20.6994 35.9949 20.6994 35.8473C20.6994 35.0105 20.6994 34.1656 20.6994 33.3289C20.6994 30.2281 20.6994 27.1355 20.6994 24.0348C20.6994 20.5484 20.6994 17.0703 20.6994 13.584C20.6994 11.5086 20.6994 9.44141 20.6994 7.36602C20.6994 7.12813 20.6994 6.89844 20.6549 6.65234C20.4619 5.59414 19.5861 5.01172 18.6658 5.01172C17.315 5.01172 15.9717 5.01172 14.6209 5.01172C13.8638 5.01172 13.1439 5.20859 12.7135 5.97148C12.4982 6.34883 12.4388 6.77539 12.4388 7.21016C12.4388 7.89922 12.4388 8.58008 12.4388 9.26914C12.4388 12.2059 12.4388 15.1508 12.4388 18.0875C12.4388 21.623 12.4388 25.1586 12.4388 28.6941C12.4388 31.0238 12.4388 33.3617 12.4388 35.6914C12.4388 35.8801 12.4314 36.0605 12.4388 36.2492C12.4611 37.127 12.9064 37.9145 13.6709 38.2262C14.1533 38.423 14.7322 38.3492 15.2369 38.3492C16.0162 38.3492 16.8029 38.3492 17.5822 38.3492C18.0053 38.3492 18.4357 38.3492 18.8588 38.3492C19.5638 38.3492 19.5638 37.1188 18.8513 37.1188Z" fill="#9697B9"/>
<path d="M23.9058 37.1192C23.3418 37.1192 22.7703 37.1192 22.2062 37.1192C21.6719 37.1192 20.9074 37.2587 20.7219 36.5122C20.6328 36.143 20.6922 35.6837 20.6922 35.3145C20.6922 33.0423 20.6922 30.7618 20.6922 28.4895C20.6922 25.1755 20.6922 21.8696 20.6922 18.5555C20.6922 15.5696 20.6922 12.5919 20.6922 9.60592C20.6922 8.31803 20.6328 7.00553 20.6922 5.71764C20.7293 4.85631 21.4566 4.88913 22.0355 4.88913C22.6441 4.88913 23.2527 4.86452 23.8613 4.88913C24.6406 4.91374 24.6332 5.65202 24.6332 6.27546C24.6332 8.33444 24.6332 10.4016 24.6332 12.4606C24.6332 15.709 24.6332 18.9493 24.6332 22.1977C24.6332 25.2985 24.6332 28.3993 24.6332 31.5001C24.6332 33.0833 24.648 34.6583 24.6332 36.2415C24.6332 36.7173 24.3586 37.1028 23.9058 37.1192C23.1933 37.152 23.1859 38.3825 23.9058 38.3497C24.9375 38.3087 25.7168 37.4473 25.7539 36.2989C25.7539 36.1676 25.7539 36.0364 25.7539 35.9051C25.7539 35.1341 25.7539 34.3548 25.7539 33.5837C25.7539 30.6798 25.7539 27.7676 25.7539 24.8637C25.7539 21.402 25.7539 17.9403 25.7539 14.4786C25.7539 11.9766 25.7539 9.47467 25.7539 6.97272C25.7539 6.55436 25.7687 6.136 25.7539 5.71764C25.7242 4.561 24.9226 3.69147 23.8762 3.65866C23.2676 3.64225 22.6515 3.65866 22.0355 3.65866C21.2191 3.65866 20.4398 3.72428 19.9203 4.5446C19.6754 4.93835 19.5863 5.38952 19.5863 5.8571C19.5863 6.47233 19.5863 7.08757 19.5863 7.7028C19.5863 10.4344 19.5863 13.1661 19.5863 15.8977C19.5863 19.3676 19.5863 22.8458 19.5863 26.3157C19.5863 29.0227 19.5863 31.7298 19.5863 34.445C19.5863 35.0274 19.5789 35.6098 19.5863 36.1923C19.5863 36.7583 19.7422 37.2997 20.0984 37.718C20.6773 38.3989 21.4418 38.3579 22.2136 38.3579C22.7777 38.3579 23.3492 38.3579 23.9133 38.3579C24.6183 38.3497 24.6183 37.1192 23.9058 37.1192Z" fill="#9697B9"/>
<path d="M29.8657 37.1187C28.8489 37.1187 27.8321 37.1187 26.8079 37.1187C26.2958 37.1187 25.7762 36.9874 25.7466 36.2901C25.7391 36.1999 25.7466 36.1179 25.7466 36.0276C25.7466 34.3132 25.7466 32.5987 25.7466 30.8761C25.7466 27.964 25.7466 25.0601 25.7466 22.148C25.7466 19.4245 25.7466 16.7011 25.7466 13.9776C25.7466 13.0999 25.7466 12.2222 25.7466 11.3444C25.7466 10.9917 25.7095 10.6144 25.754 10.2698C25.8356 9.60537 26.3923 9.55615 26.8673 9.55615C27.4981 9.55615 28.129 9.55615 28.7524 9.55615C29.4427 9.55615 30.5856 9.33467 30.6005 10.4585C30.6153 11.9515 30.6005 13.4444 30.6005 14.9374C30.6005 17.7675 30.6005 20.5976 30.6005 23.4276C30.6005 26.2577 30.6005 29.0796 30.6005 31.9097C30.6005 33.3534 30.6153 34.8054 30.6005 36.2491C30.593 36.7331 30.311 37.1022 29.8657 37.1187C29.1532 37.1515 29.1458 38.3819 29.8657 38.3491C30.8899 38.3081 31.6766 37.4468 31.7137 36.3065C31.7137 36.1999 31.7137 36.0851 31.7137 35.9784C31.7137 35.2812 31.7137 34.5839 31.7137 33.8866C31.7137 31.2206 31.7137 28.5464 31.7137 25.8804C31.7137 22.8042 31.7137 19.7198 31.7137 16.6437C31.7137 14.6913 31.7137 12.7472 31.7137 10.7948C31.7137 10.6636 31.7137 10.5323 31.7137 10.4011C31.6915 9.46592 31.1423 8.621 30.2962 8.39131C29.8286 8.26826 29.2942 8.33389 28.8192 8.33389C28.1587 8.33389 27.4981 8.33389 26.8376 8.33389C26.1399 8.33389 25.4942 8.47334 25.0341 9.11318C24.7446 9.51514 24.6333 9.99092 24.6259 10.4913C24.6184 11.0491 24.6259 11.6151 24.6259 12.173C24.6259 14.6831 24.6259 17.1851 24.6259 19.6952C24.6259 22.8042 24.6259 25.9132 24.6259 29.0222C24.6259 31.1878 24.6259 33.3534 24.6259 35.519C24.6259 36.1589 24.5813 36.7987 24.9079 37.373C25.3161 38.103 26.0063 38.3491 26.7411 38.3491C27.3645 38.3491 27.988 38.3491 28.6114 38.3491C29.027 38.3491 29.4427 38.3491 29.8583 38.3491C30.5856 38.3491 30.5856 37.1187 29.8657 37.1187Z" fill="#9697B9"/>
<path d="M35.4914 37.1191C34.7121 37.1191 33.9254 37.1191 33.1461 37.1191C32.5375 37.1191 31.7359 37.1848 31.7136 36.2578C31.684 35.1586 31.7136 34.0512 31.7136 32.952C31.7136 28.7191 31.7136 24.4781 31.7136 20.2453C31.7136 19.5891 31.7136 18.9328 31.7136 18.2766C31.7136 17.9484 31.6617 17.5219 31.8176 17.2266C32.0179 16.841 32.3668 16.8164 32.723 16.8164C33.1683 16.8164 33.6136 16.8164 34.059 16.8164C34.482 16.8164 34.9051 16.8164 35.3281 16.8164C35.714 16.8164 36.0703 16.9313 36.2113 17.3742C36.3004 17.6613 36.2558 18.0469 36.2558 18.3422C36.2558 19.0148 36.2558 19.6875 36.2558 20.3684C36.2558 22.4438 36.2558 24.5273 36.2558 26.6027C36.2558 28.7602 36.2558 30.9258 36.2558 33.0832C36.2558 34.1414 36.2929 35.216 36.2558 36.2742C36.2262 36.7418 35.9293 37.1027 35.4914 37.1191C34.7789 37.152 34.7715 38.3824 35.4914 38.3496C36.6121 38.3004 37.3543 37.3406 37.3617 36.1348C37.3617 35.6262 37.3617 35.1176 37.3617 34.609C37.3617 32.5664 37.3617 30.5156 37.3617 28.473C37.3617 24.8801 37.4062 21.2871 37.3617 17.7023C37.3469 16.4637 36.4933 15.5859 35.3875 15.5777C34.4969 15.5695 33.6136 15.5777 32.723 15.5777C32.2109 15.5777 31.7359 15.6598 31.3129 16.0289C30.8527 16.4309 30.6226 17.0215 30.6004 17.6695C30.5929 18.0387 30.6004 18.4078 30.6004 18.7688C30.6004 23.059 30.6004 27.3492 30.6004 31.6395C30.6004 33.1078 30.6004 34.5844 30.6004 36.0527C30.6004 37.0453 31.0457 37.9887 31.9734 38.2676C32.3297 38.3742 32.7156 38.3414 33.0867 38.3414C33.5988 38.3414 34.1109 38.3414 34.623 38.3414C34.9125 38.3414 35.2019 38.3414 35.4914 38.3414C36.2113 38.3496 36.2113 37.1191 35.4914 37.1191ZM8.75037 25.5445C7.79295 25.5445 6.8281 25.5445 5.87068 25.5445C5.41795 25.5445 4.94295 25.5773 4.69802 25.0523C4.57185 24.7898 4.60154 24.4945 4.60154 24.2074C4.60154 21.7465 4.60154 19.2937 4.60154 16.8328C4.60154 16.2094 4.40857 15.0445 4.93553 14.618C5.25467 14.3555 5.74451 14.4375 6.12303 14.4375C6.7242 14.4375 7.32537 14.4375 7.93396 14.4375C8.29021 14.4375 8.76521 14.3555 9.0992 14.5195C9.49256 14.7164 9.58162 15.1348 9.58162 15.5613C9.58162 16.5703 9.58162 17.5711 9.58162 18.5801C9.58162 19.95 9.58162 21.3199 9.58162 22.6816C9.58162 23.1656 9.58162 23.6496 9.58162 24.1336C9.58162 24.3715 9.61131 24.6668 9.54451 24.8965C9.43318 25.2902 9.11404 25.5281 8.75037 25.5445C8.03787 25.5773 8.03045 26.8078 8.75037 26.775C9.83396 26.734 10.6652 25.8234 10.6949 24.6176C10.7023 24.3715 10.6949 24.1254 10.6949 23.8793C10.6949 22.5258 10.6949 21.1805 10.6949 19.827C10.6949 18.5309 10.6949 17.243 10.6949 15.9469C10.6949 15.6187 10.7097 15.2906 10.6578 14.9707C10.4945 13.9289 9.64842 13.2316 8.72068 13.207C7.65935 13.1742 6.5906 13.1988 5.52928 13.207C4.6906 13.2152 3.94099 13.691 3.62185 14.577C3.48084 14.9707 3.48084 15.3727 3.48084 15.7828C3.48084 18.4242 3.48084 21.0656 3.48084 23.6988C3.48084 23.9941 3.47342 24.2977 3.48084 24.593C3.5031 25.5937 4.1117 26.5125 5.02459 26.7176C5.48474 26.816 5.98201 26.7668 6.44217 26.7668C7.08787 26.7668 7.73357 26.7668 8.37927 26.7668C8.49802 26.7668 8.6242 26.7668 8.74295 26.7668C9.47029 26.775 9.47029 25.5445 8.75037 25.5445ZM4.34178 30.6469C6.17498 30.6469 8.00818 30.6469 9.84881 30.6469C10.5687 30.6469 10.5687 29.4164 9.84881 29.4164C8.0156 29.4164 6.1824 29.4164 4.34178 29.4164C3.62185 29.4164 3.62185 30.6469 4.34178 30.6469ZM4.34178 32.8371C6.17498 32.8371 8.00818 32.8371 9.84881 32.8371C10.5687 32.8371 10.5687 31.6066 9.84881 31.6066C8.0156 31.6066 6.1824 31.6066 4.34178 31.6066C3.62185 31.6066 3.62185 32.8371 4.34178 32.8371ZM4.34178 35.0273C6.17498 35.0273 8.00818 35.0273 9.84881 35.0273C10.5687 35.0273 10.5687 33.7969 9.84881 33.7969C8.0156 33.7969 6.1824 33.7969 4.34178 33.7969C3.62185 33.7969 3.62185 35.0273 4.34178 35.0273ZM14.866 18.416C15.9941 18.416 17.1297 18.416 18.2578 18.416C18.9777 18.416 18.9777 17.1855 18.2578 17.1855C17.1297 17.1855 15.9941 17.1855 14.866 17.1855C14.1535 17.1855 14.1461 18.416 14.866 18.416ZM14.866 20.6062C15.9941 20.6062 17.1297 20.6062 18.2578 20.6062C18.9777 20.6062 18.9777 19.3758 18.2578 19.3758C17.1297 19.3758 15.9941 19.3758 14.866 19.3758C14.1535 19.3758 14.1461 20.6062 14.866 20.6062ZM14.866 22.7965C15.9941 22.7965 17.1297 22.7965 18.2578 22.7965C18.9777 22.7965 18.9777 21.566 18.2578 21.566C17.1297 21.566 15.9941 21.566 14.866 21.566C14.1535 21.566 14.1461 22.7965 14.866 22.7965ZM22.1097 6.57891C22.1097 10.3605 22.1097 14.1422 22.1097 17.9156C22.1097 18.4488 22.1097 18.982 22.1097 19.507C22.1097 20.3027 23.223 20.3027 23.223 19.507C23.223 15.7254 23.223 11.9438 23.223 8.17031C23.223 7.63711 23.223 7.10391 23.223 6.57891C23.223 5.79141 22.1097 5.79141 22.1097 6.57891ZM22.1097 22.1812C22.1097 23.3379 22.1097 24.4945 22.1097 25.6512C22.1097 26.4469 23.223 26.4469 23.223 25.6512C23.223 24.4945 23.223 23.3379 23.223 22.1812C23.223 21.3937 22.1097 21.3855 22.1097 22.1812ZM22.1097 29.4328C22.1097 30.975 22.1097 32.5172 22.1097 34.0594C22.1097 34.8551 23.223 34.8551 23.223 34.0594C23.223 32.5172 23.223 30.975 23.223 29.4328C23.223 28.6371 22.1097 28.6371 22.1097 29.4328ZM31.157 12.0586C29.1679 12.0586 27.1789 12.0586 25.1898 12.0586C24.4699 12.0586 24.4699 13.2891 25.1898 13.2891C27.1789 13.2891 29.1679 13.2891 31.157 13.2891C31.8769 13.2891 31.8769 12.0586 31.157 12.0586Z" fill="#9697B9"/>
<path d="M31.157 14.8721C29.168 14.8721 27.1789 14.8721 25.1898 14.8721C24.4699 14.8721 24.4699 16.1025 25.1898 16.1025C27.1789 16.1025 29.168 16.1025 31.157 16.1025C31.877 16.1025 31.877 14.8721 31.157 14.8721ZM27.1938 28.4564C27.8469 28.4564 28.5 28.4564 29.1531 28.4564C29.873 28.4564 29.873 27.226 29.1531 27.226C28.5 27.226 27.8469 27.226 27.1938 27.226C26.4813 27.226 26.4813 28.4564 27.1938 28.4564Z" fill="#9697B9"/>
<path d="M27.1936 30.6465C27.8467 30.6465 28.4998 30.6465 29.1529 30.6465C29.8729 30.6465 29.8729 29.416 29.1529 29.416C28.4998 29.416 27.8467 29.416 27.1936 29.416C26.4811 29.416 26.4811 30.6465 27.1936 30.6465Z" fill="#9697B9"/>
<path d="M27.1936 32.8369C27.8467 32.8369 28.4998 32.8369 29.1529 32.8369C29.8729 32.8369 29.8729 31.6064 29.1529 31.6064C28.4998 31.6064 27.8467 31.6064 27.1936 31.6064C26.4811 31.6064 26.4811 32.8369 27.1936 32.8369Z" fill="#9697B9"/>
<path d="M36.8052 18.2441C34.92 18.2441 33.0423 18.2441 31.1571 18.2441C30.4372 18.2441 30.4372 19.4746 31.1571 19.4746C33.0423 19.4746 34.92 19.4746 36.8052 19.4746C37.5177 19.4746 37.5177 18.2441 36.8052 18.2441ZM36.8052 21.066C34.92 21.066 33.0423 21.066 31.1571 21.066C30.4372 21.066 30.4372 22.2965 31.1571 22.2965C33.0423 22.2965 34.92 22.2965 36.8052 22.2965C37.5177 22.2965 37.5177 21.066 36.8052 21.066Z" fill="#9697B9"/>
<path d="M36.8052 29.416C34.92 29.416 33.0423 29.416 31.1571 29.416C30.4372 29.416 30.4372 30.6465 31.1571 30.6465C33.0423 30.6465 34.92 30.6465 36.8052 30.6465C37.5177 30.6465 37.5177 29.416 36.8052 29.416ZM36.8052 32.2379C34.92 32.2379 33.0423 32.2379 31.1571 32.2379C30.4372 32.2379 30.4372 33.4684 31.1571 33.4684C33.0423 33.4684 34.92 33.4684 36.8052 33.4684C37.5177 33.4684 37.5177 32.2379 36.8052 32.2379Z" fill="#9697B9"/>
</svg>
