<svg width="24" height="24" viewBox="0 0 24 24" fill="none" xmlns="http://www.w3.org/2000/svg">
<g clip-path="url(#clip0_2061_8038)">
<path d="M22.4174 13.5L20.5086 9.51002C20.4411 9.36377 20.4149 9.20252 20.4374 9.03002C20.8049 6.33377 20.2086 4.06502 18.7086 2.48252C16.9761 0.648767 14.1636 -0.213733 10.7924 0.0450168C3.91113 0.581267 1.47363 5.51252 1.47363 9.57002C1.47363 12.06 2.79363 14.4525 5.51238 16.8825C8.38488 19.4475 6.95238 23.4713 6.93738 23.5125C6.89238 23.625 6.91113 23.7488 6.97863 23.8463C7.04613 23.9438 7.15863 24.0038 7.27863 24.0038H16.4024C16.5036 24.0038 16.6011 23.9588 16.6724 23.8875C16.7399 23.8125 16.7736 23.7113 16.7661 23.61L16.4136 19.2413H18.8511C19.9536 19.2413 20.8461 18.3863 20.8461 17.34V14.8575L21.6599 14.7675C21.9749 14.76 22.2674 14.5875 22.4211 14.3175C22.5674 14.0475 22.5599 13.7325 22.4174 13.5ZM5.93613 7.67252C6.39738 6.06752 7.49238 4.71377 8.93238 3.90752L8.32113 3.67877C8.13363 3.60752 8.03613 3.39377 8.10738 3.21002C8.17863 3.02252 8.38863 2.92502 8.57613 2.99627L9.96738 3.52502L10.0386 3.55127C10.1324 3.58877 10.2111 3.66002 10.2449 3.75377C10.2861 3.84377 10.2824 3.94877 10.2374 4.04627L9.58113 5.46377C9.52113 5.59877 9.38988 5.67377 9.25113 5.67377C9.19863 5.67377 9.14988 5.66252 9.09738 5.64002C8.91738 5.55752 8.83488 5.34002 8.91738 5.15627L9.17613 4.60502C7.94988 5.32127 7.02363 6.49502 6.62613 7.87502C6.57738 8.03627 6.43488 8.13752 6.27738 8.13752C6.24363 8.13752 6.21363 8.13377 6.17613 8.12252C5.99238 8.06252 5.88363 7.86377 5.93613 7.67252ZM10.6911 15.2438C10.6461 15.405 10.5036 15.51 10.3424 15.51C10.3086 15.51 10.2786 15.5025 10.2449 15.495C8.63988 15.0375 7.28613 13.9388 6.47613 12.4913L6.24738 13.1063C6.19113 13.2525 6.05238 13.3425 5.90613 13.3425C5.86113 13.3425 5.81988 13.335 5.77863 13.3163C5.59113 13.2488 5.49363 13.035 5.56488 12.8513L6.08988 11.46L6.11988 11.3888C6.12363 11.3775 6.13113 11.3663 6.13863 11.355C6.17613 11.2763 6.23988 11.2125 6.31863 11.1788C6.41238 11.1375 6.51738 11.1413 6.61113 11.1825L8.03238 11.8388C8.21238 11.9213 8.29488 12.1388 8.21238 12.3188C8.12988 12.5025 7.91238 12.585 7.72863 12.4988L7.17738 12.2438C7.89738 13.4738 9.07113 14.4 10.4511 14.7975C10.6386 14.85 10.7511 15.0525 10.6911 15.2438ZM7.72863 9.42752C7.72863 7.07627 9.64488 5.16002 11.9961 5.16002C14.3474 5.16002 16.2636 7.07627 16.2636 9.42752C16.2636 11.7788 14.3474 13.695 11.9961 13.695C9.64488 13.695 7.72863 11.7788 7.72863 9.42752ZM18.0674 11.1825C17.6061 12.7875 16.5111 14.1413 15.0636 14.9438L15.6824 15.1763C15.8699 15.2475 15.9674 15.4575 15.8961 15.645C15.8399 15.7913 15.7049 15.8813 15.5549 15.8813C15.5136 15.8813 15.4724 15.8738 15.4274 15.8588L13.9611 15.3113C13.8674 15.2738 13.7886 15.2025 13.7549 15.1088C13.7136 15.015 13.7174 14.91 13.7586 14.8163L14.4149 13.395C14.4974 13.215 14.7149 13.1325 14.8986 13.215C15.0786 13.2975 15.1611 13.515 15.0786 13.6988L14.8199 14.25C16.0461 13.53 16.9724 12.36 17.3699 10.98C17.4261 10.7888 17.6249 10.6763 17.8161 10.7288C18.0111 10.7888 18.1199 10.9913 18.0674 11.1825ZM18.4311 6.00002L17.8836 7.46627C17.8461 7.56002 17.7749 7.63877 17.6811 7.67252C17.6361 7.69127 17.5911 7.70252 17.5424 7.70252C17.4899 7.70252 17.4374 7.69127 17.3886 7.66502L15.9674 7.00877C15.7874 6.92627 15.7049 6.70877 15.7874 6.52877C15.8699 6.34877 16.0874 6.26627 16.2711 6.34877L16.8224 6.60377C16.1061 5.38127 14.9361 4.45502 13.5561 4.05377C13.3649 3.99752 13.2524 3.79502 13.3049 3.60377C13.3649 3.41252 13.5636 3.30377 13.7549 3.35627C15.3599 3.81752 16.7136 4.91252 17.5124 6.35627L17.7449 5.73752C17.8161 5.55377 18.0299 5.45627 18.2136 5.52752C18.4049 5.60252 18.4986 5.81252 18.4311 6.00002Z" fill="#9193B9"/>
<path d="M12 5.88379C10.0462 5.88379 8.45996 7.47379 8.45996 9.42379C8.45996 11.3775 10.05 12.9638 12 12.9638C13.95 12.9638 15.54 11.3738 15.54 9.42379C15.54 7.47379 13.95 5.88379 12 5.88379ZM14.04 9.71629L13.8 9.95629C13.8937 10.1025 13.9425 10.2675 13.9425 10.4475C13.9425 10.6913 13.8487 10.9238 13.6725 11.1C13.3687 11.4 12.885 11.445 12.5325 11.2275L12.2925 11.4675C12.225 11.535 12.1312 11.5763 12.0337 11.5763C11.94 11.5763 11.85 11.535 11.7787 11.4675L11.5087 11.2013C11.1525 11.4488 10.6425 11.4113 10.3275 11.1C10.1512 10.9238 10.0575 10.6913 10.0575 10.4475C10.0575 10.2563 10.1175 10.0688 10.2262 9.91504L9.95996 9.64504C9.89246 9.57754 9.85121 9.48379 9.85121 9.39004C9.85121 9.29254 9.89246 9.20254 9.95996 9.13129L10.2 8.89129C9.97496 8.53504 10.02 8.05879 10.3275 7.75129C10.635 7.44379 11.1112 7.39879 11.4675 7.62004L11.7075 7.38379C11.8425 7.24504 12.0862 7.24504 12.2212 7.38379L14.04 9.20254C14.1075 9.26629 14.1487 9.36379 14.1487 9.45754C14.1487 9.55879 14.1075 9.64879 14.04 9.71629Z" fill="#9193B9"/>
<path d="M13.4213 9.46086L11.9663 8.00586L11.6475 8.32461C11.5988 8.37336 11.535 8.39961 11.4713 8.39961C11.46 8.39961 11.445 8.39961 11.4338 8.39586C11.3513 8.38461 11.2838 8.33586 11.25 8.27586C11.2388 8.24586 11.22 8.21586 11.19 8.18961C11.1338 8.13336 11.055 8.10336 10.9763 8.10336C10.8938 8.10336 10.8188 8.13336 10.7625 8.18961C10.7063 8.24586 10.6725 8.32461 10.6725 8.40336C10.6725 8.48586 10.7025 8.56086 10.7513 8.60586C10.7738 8.63586 10.8075 8.66211 10.83 8.66961C10.9013 8.70711 10.95 8.77836 10.9613 8.85711C10.9725 8.93961 10.9463 9.01836 10.89 9.07461L10.5713 9.39336L10.935 9.75711C10.995 9.81336 11.0213 9.89961 11.0063 9.97836C10.9875 10.0646 10.935 10.1321 10.8525 10.1696C10.8225 10.1846 10.7925 10.2034 10.77 10.2296C10.71 10.2859 10.6763 10.3609 10.6763 10.4471C10.6763 10.5296 10.71 10.6084 10.7625 10.6571C10.815 10.7134 10.8938 10.7434 10.9763 10.7434C11.0588 10.7434 11.1375 10.7134 11.1825 10.6684C11.2163 10.6421 11.2463 10.6009 11.2538 10.5671C11.2875 10.4921 11.3588 10.4359 11.445 10.4171C11.46 10.4134 11.475 10.4134 11.49 10.4134C11.5575 10.4134 11.6213 10.4396 11.67 10.4921L12.03 10.8521L12.3488 10.5334C12.3975 10.4846 12.4613 10.4584 12.525 10.4584C12.5363 10.4584 12.5513 10.4584 12.5625 10.4621C12.645 10.4734 12.7125 10.5221 12.7463 10.5821C12.7613 10.6196 12.7838 10.6496 12.7988 10.6609C12.8513 10.7171 12.93 10.7471 13.0125 10.7471C13.095 10.7471 13.1775 10.7171 13.23 10.6609C13.2863 10.6046 13.3163 10.5296 13.3163 10.4509C13.3163 10.3646 13.2825 10.2896 13.2375 10.2484C13.215 10.2184 13.185 10.1959 13.1588 10.1846C13.0913 10.1471 13.0425 10.0759 13.0275 9.99711C13.0163 9.91461 13.0425 9.83586 13.0988 9.77961L13.4213 9.46086Z" fill="#9193B9"/>
</g>
<defs>
<clipPath id="clip0_2061_8038">
<rect width="24" height="24" fill="white"/>
</clipPath>
</defs>
</svg>
