<svg width="100" height="100" viewBox="0 0 100 100" fill="none" xmlns="http://www.w3.org/2000/svg">
<g clip-path="url(#clip0_2314_6266)">
<path d="M78.5045 58.7877C78.233 57.5917 77.5705 56.4637 76.5275 55.5512C75.476 54.6447 74.195 54.0977 72.866 53.8977L51.496 49.7622L57.678 53.8647L47.9175 84.4622L42.421 61.7337L36.923 84.4622L27.165 53.8652L33.346 49.7627L11.9745 53.8982C10.6465 54.0977 9.364 54.6452 8.314 55.5517C7.27 56.4637 6.6075 57.5922 6.336 58.7882L0 86.6177L11.9505 90.7667C15.9215 94.8902 27.0275 97.9247 40.349 98.2132H44.4905C57.8135 97.9252 68.9195 94.8902 72.8885 90.7667L84.841 86.6177L78.5045 58.7877Z" fill="#020560"/>
<path d="M42.4207 52.8676L37.4937 54.6326L42.4207 61.7346L47.3467 54.6326L42.4207 52.8676ZM60.7092 25.4626C60.7092 12.8316 55.5122 2.93262 42.4207 2.93262C29.3277 2.93262 24.1312 12.8316 24.1312 25.4626C22.7622 26.1776 21.8637 27.8536 23.2072 31.4461C23.8862 33.2506 25.0822 34.7621 26.0957 35.5531C29.8262 44.8421 37.1642 52.0136 42.4207 52.0136C47.6747 52.0136 55.0137 44.8416 58.7437 35.5531C59.7592 34.7621 60.9537 33.2511 61.6317 31.4461C62.9782 27.8536 62.0792 26.1771 60.7092 25.4626ZM73.6747 20.4926H63.9627C64.0252 21.0446 64.0782 21.6036 64.1202 22.1751H73.6742V20.4926H73.6747ZM93.3132 14.6926H62.8067C62.9707 15.2401 63.1137 15.8046 63.2497 16.3761H93.3132V14.6926Z" fill="#020560"/>
<path d="M98.8507 2.93761C98.4861 2.57247 98.0531 2.28288 97.5764 2.08545C97.0997 1.88803 96.5887 1.78664 96.0727 1.78711H52.8457C54.7556 2.78919 56.4749 4.11869 57.9252 5.71511H96.0727V33.2101H85.5602L77.6027 41.1686V33.2101H64.7232C64.1047 34.6606 63.2212 36.0326 62.2027 37.1391H73.6742V47.9421C73.6742 48.3811 73.9347 48.7991 74.3662 48.9786C74.5713 49.0639 74.7971 49.0863 75.015 49.043C75.2329 48.9996 75.4329 48.8925 75.5897 48.7351L87.1872 37.1386H96.0727C96.5888 37.1391 97.0998 37.0376 97.5766 36.84C98.0533 36.6423 98.4863 36.3525 98.8507 35.9871C99.2159 35.6227 99.5055 35.1898 99.7027 34.7131C99.9 34.2364 100.001 33.7255 100 33.2096V5.71511C100.001 5.19925 99.8998 4.68832 99.7026 4.21167C99.5053 3.73502 99.2158 3.30204 98.8507 2.93761Z" fill="#020560"/>
<path d="M93.3132 8.89502H60.2817C60.6127 9.44292 60.9203 10.0046 61.2037 10.5785H93.3132V8.89502Z" fill="#020560"/>
</g>
<defs>
<clipPath id="clip0_2314_6266">
<rect width="100" height="100" fill="white"/>
</clipPath>
</defs>
</svg>
