<svg width="11" height="14" viewBox="0 0 11 14" fill="none" xmlns="http://www.w3.org/2000/svg">
<path d="M9.85622 5.47737L9.64372 11.9092C9.62562 12.4601 9.39357 12.9822 8.99682 13.3647C8.60007 13.7473 8.06986 13.9602 7.51872 13.9582H3.48122C2.93043 13.9602 2.40053 13.7476 2.00384 13.3655C1.60715 12.9834 1.37486 12.4618 1.35622 11.9113L1.14372 5.47737C1.13907 5.33648 1.19058 5.1995 1.28692 5.09659C1.38326 4.99367 1.51654 4.93324 1.65744 4.92859C1.79833 4.92394 1.93531 4.97545 2.03822 5.07179C2.14114 5.16814 2.20157 5.30141 2.20622 5.44231L2.41872 11.8757C2.4293 12.1504 2.5459 12.4102 2.74402 12.6007C2.94214 12.7912 3.20637 12.8975 3.48122 12.8973H7.51872C7.79392 12.8975 8.05845 12.7909 8.25663 12.6C8.45481 12.409 8.57117 12.1486 8.58122 11.8736L8.79372 5.44231C8.79837 5.30141 8.8588 5.16814 8.96171 5.07179C9.06463 4.97545 9.2016 4.92394 9.3425 4.92859C9.4834 4.93324 9.61667 4.99367 9.71302 5.09659C9.80936 5.1995 9.86087 5.33648 9.85622 5.47737ZM10.5591 3.33697C10.5591 3.47786 10.5031 3.61299 10.4035 3.71262C10.3038 3.81225 10.1687 3.86822 10.0278 3.86822H0.972656C0.83176 3.86822 0.696634 3.81225 0.597006 3.71262C0.497377 3.61299 0.441406 3.47786 0.441406 3.33697C0.441406 3.19607 0.497377 3.06094 0.597006 2.96132C0.696634 2.86169 0.83176 2.80572 0.972656 2.80572H2.61953C2.78786 2.80617 2.95033 2.74398 3.07533 2.63125C3.20034 2.51852 3.27893 2.36332 3.29581 2.19584C3.33502 1.80297 3.51908 1.43877 3.81213 1.1742C4.10519 0.909623 4.48625 0.763627 4.88106 0.764654H6.11888C6.51369 0.763627 6.89475 0.909623 7.18781 1.1742C7.48086 1.43877 7.66492 1.80297 7.70412 2.19584C7.72101 2.36332 7.7996 2.51852 7.9246 2.63125C8.04961 2.74398 8.21208 2.80617 8.38041 2.80572H10.0273C10.1682 2.80572 10.3033 2.86169 10.4029 2.96132C10.5026 3.06094 10.5585 3.19607 10.5585 3.33697H10.5591ZM4.21806 2.80572H6.78294C6.71313 2.6462 6.66747 2.47718 6.64747 2.30422C6.63431 2.17327 6.57301 2.05187 6.47545 1.96353C6.37789 1.8752 6.25101 1.82622 6.11941 1.82609H4.88159C4.74999 1.82622 4.62311 1.8752 4.52555 1.96353C4.42799 2.05187 4.36669 2.17327 4.35353 2.30422C4.33336 2.47721 4.28752 2.64623 4.21753 2.80572H4.21806ZM4.75303 10.8547V6.33109C4.75303 6.1902 4.69706 6.05507 4.59743 5.95544C4.4978 5.85581 4.36268 5.79984 4.22178 5.79984C4.08088 5.79984 3.94576 5.85581 3.84613 5.95544C3.7465 6.05507 3.69053 6.1902 3.69053 6.33109V10.8568C3.69053 10.9977 3.7465 11.1328 3.84613 11.2325C3.94576 11.3321 4.08088 11.3881 4.22178 11.3881C4.36268 11.3881 4.4978 11.3321 4.59743 11.2325C4.69706 11.1328 4.75303 10.9977 4.75303 10.8568V10.8547ZM7.31047 10.8547V6.33109C7.31047 6.1902 7.2545 6.05507 7.15487 5.95544C7.05524 5.85581 6.92011 5.79984 6.77922 5.79984C6.63832 5.79984 6.5032 5.85581 6.40357 5.95544C6.30394 6.05507 6.24797 6.1902 6.24797 6.33109V10.8568C6.24797 10.9977 6.30394 11.1328 6.40357 11.2325C6.5032 11.3321 6.63832 11.3881 6.77922 11.3881C6.92011 11.3881 7.05524 11.3321 7.15487 11.2325C7.2545 11.1328 7.31047 10.9977 7.31047 10.8568V10.8547Z" fill="#717070"/>
</svg>
