<svg width="12" height="12" viewBox="0 0 12 12" fill="none" xmlns="http://www.w3.org/2000/svg">
<path d="M9.51646 0.210274C9.38363 0.0850149 9.20349 0.0146484 9.01567 0.0146484C8.82784 0.0146484 8.64771 0.0850149 8.51488 0.210274L7.51329 1.15571L10.518 3.99L11.5196 3.04524C11.6524 2.91994 11.727 2.75003 11.727 2.57286C11.727 2.39569 11.6524 2.22577 11.5196 2.10047L9.51646 0.210274ZM9.51646 4.93544L6.511 2.10047L0.206834 8.04702C0.0744192 8.17223 3.98352e-05 8.34187 0 8.51873V10.4089C0 10.5861 0.0746279 10.7561 0.207466 10.8814C0.340304 11.0067 0.520472 11.0771 0.708333 11.0771H2.7115C2.89935 11.077 3.07948 11.0066 3.21229 10.8813L9.51646 4.93477V4.93544Z" fill="#717070"/>
</svg>
