<svg width="25" height="25" viewBox="0 0 25 25" fill="none" xmlns="http://www.w3.org/2000/svg">
<path d="M20.5623 8.67694L14.8957 2.42695C14.7983 2.31904 14.6794 2.23271 14.5466 2.1735C14.4139 2.1143 14.2702 2.08354 14.1248 2.0832H6.83317C6.48708 2.07907 6.14356 2.14315 5.82223 2.2718C5.50091 2.40044 5.20807 2.59111 4.96044 2.83294C4.71282 3.07476 4.51525 3.363 4.37902 3.68118C4.2428 3.99937 4.17058 4.34127 4.1665 4.68736V20.3124C4.17058 20.6585 4.2428 21.0004 4.37902 21.3185C4.51525 21.6367 4.71282 21.925 4.96044 22.1668C5.20807 22.4086 5.50091 22.5993 5.82223 22.7279C6.14356 22.8566 6.48708 22.9207 6.83317 22.9165H18.1665C18.5126 22.9207 18.8561 22.8566 19.1774 22.7279C19.4988 22.5993 19.7916 22.4086 20.0392 22.1668C20.2869 21.925 20.4844 21.6367 20.6207 21.3185C20.7569 21.0004 20.8291 20.6585 20.8332 20.3124V9.37486C20.8325 9.1167 20.736 8.86798 20.5623 8.67694ZM14.5832 5.2082L17.4373 8.33319H15.354C15.2449 8.32661 15.1382 8.29836 15.0402 8.2501C14.9421 8.20184 14.8547 8.13454 14.7829 8.05212C14.7112 7.96969 14.6566 7.8738 14.6223 7.77004C14.588 7.66628 14.5747 7.55673 14.5832 7.44778V5.2082ZM18.1665 20.8332H6.83317C6.76064 20.8374 6.688 20.8273 6.61939 20.8034C6.55079 20.7795 6.48758 20.7423 6.43339 20.6939C6.3792 20.6455 6.33509 20.5869 6.30359 20.5214C6.27209 20.4559 6.25383 20.3849 6.24984 20.3124V4.68736C6.25383 4.61482 6.27209 4.54378 6.30359 4.47832C6.33509 4.41285 6.3792 4.35425 6.43339 4.30586C6.48758 4.25747 6.55079 4.22026 6.61939 4.19635C6.688 4.17244 6.76064 4.16231 6.83317 4.16653H12.4998V7.44778C12.483 8.21509 12.7704 8.95791 13.2993 9.5141C13.8282 10.0703 14.5556 10.3947 15.3228 10.4165H18.7498V20.3124C18.7458 20.3849 18.7276 20.4559 18.6961 20.5214C18.6646 20.5869 18.6205 20.6455 18.5663 20.6939C18.5121 20.7423 18.4489 20.7795 18.3803 20.8034C18.3117 20.8273 18.239 20.8374 18.1665 20.8332Z" fill="#9193B9"/>
<path d="M14.5833 13.5413H13.5417V12.4997C13.5417 12.2234 13.4319 11.9585 13.2366 11.7631C13.0412 11.5678 12.7763 11.458 12.5 11.458C12.2237 11.458 11.9588 11.5678 11.7634 11.7631C11.5681 11.9585 11.4583 12.2234 11.4583 12.4997V13.5413H10.4167C10.1404 13.5413 9.87545 13.6511 9.6801 13.8464C9.48475 14.0418 9.375 14.3067 9.375 14.583C9.375 14.8593 9.48475 15.1242 9.6801 15.3196C9.87545 15.5149 10.1404 15.6247 10.4167 15.6247H11.4583V16.6663C11.4583 16.9426 11.5681 17.2076 11.7634 17.4029C11.9588 17.5983 12.2237 17.708 12.5 17.708C12.7763 17.708 13.0412 17.5983 13.2366 17.4029C13.4319 17.2076 13.5417 16.9426 13.5417 16.6663V15.6247H14.5833C14.8596 15.6247 15.1246 15.5149 15.3199 15.3196C15.5153 15.1242 15.625 14.8593 15.625 14.583C15.625 14.3067 15.5153 14.0418 15.3199 13.8464C15.1246 13.6511 14.8596 13.5413 14.5833 13.5413Z" fill="#9193B9"/>
</svg>
