<svg width="45" height="45" viewBox="0 0 45 45" fill="none" xmlns="http://www.w3.org/2000/svg">
<g clip-path="url(#clip0_3143_2974)">
<rect x="12.2881" y="5.82129" width="2.13439" height="2.84585" fill="#9697B9"/>
<rect x="4.18636" y="6.43636" width="9.79921" height="11.4" rx="2.52806" stroke="#9697B9" stroke-width="0.872727"/>
<path d="M11.9975 9.70647H5.30881C5.1683 9.70647 5.08398 9.59564 5.08398 9.4848C5.08398 9.37396 5.1964 9.26313 5.30881 9.26313H11.9694C12.1099 9.26313 12.1942 9.37396 12.1942 9.4848C12.1942 9.59564 12.1099 9.70647 11.9975 9.70647ZM9.83352 8.04393H5.33692C5.1964 8.04393 5.11209 7.93309 5.11209 7.82226C5.11209 7.71142 5.2245 7.60059 5.33692 7.60059H9.83352C9.97404 7.60059 10.0584 7.71142 10.0584 7.82226C10.0584 7.93309 9.94594 8.04393 9.83352 8.04393ZM11.9975 10.7594H5.30881C5.1683 10.7594 5.08398 10.6486 5.08398 10.5377C5.08398 10.3992 5.1964 10.3161 5.30881 10.3161H11.9694C12.1099 10.3161 12.1942 10.4269 12.1942 10.5377C12.2223 10.6486 12.1099 10.7594 11.9975 10.7594ZM11.9975 11.7847H5.30881C5.1683 11.7847 5.08398 11.6738 5.08398 11.563C5.08398 11.4521 5.1964 11.3413 5.30881 11.3413H11.9694C12.1099 11.3413 12.1942 11.4521 12.1942 11.563C12.1942 11.6738 12.1099 11.7847 11.9975 11.7847ZM11.9975 12.8099H5.30881C5.1683 12.8099 5.08398 12.699 5.08398 12.5882C5.08398 12.4774 5.1964 12.3665 5.30881 12.3665H11.9694C12.1099 12.3665 12.1942 12.4774 12.1942 12.5882C12.1942 12.699 12.1099 12.8099 11.9975 12.8099ZM11.9975 13.8351H5.30881C5.1683 13.8351 5.08398 13.7243 5.08398 13.6134C5.08398 13.5026 5.1964 13.3918 5.30881 13.3918H11.9694C12.1099 13.3918 12.1942 13.5026 12.1942 13.6134C12.1942 13.7243 12.1099 13.8351 11.9975 13.8351ZM11.9975 14.8881H5.30881C5.1683 14.8881 5.08398 14.7772 5.08398 14.6664C5.08398 14.5556 5.1964 14.4447 5.30881 14.4447H11.9694C12.1099 14.4447 12.1942 14.5556 12.1942 14.6664C12.1942 14.7772 12.1099 14.8881 11.9975 14.8881ZM11.9975 15.9133H5.30881C5.1683 15.9133 5.08398 15.8025 5.08398 15.6916C5.08398 15.5808 5.1964 15.47 5.30881 15.47H11.9694C12.1099 15.47 12.1942 15.5808 12.1942 15.6916C12.1942 15.8025 12.1099 15.9133 11.9975 15.9133ZM9.83352 16.9385H5.33692C5.1964 16.9385 5.11209 16.8277 5.11209 16.7169C5.11209 16.606 5.2245 16.4952 5.33692 16.4952H9.83352C9.97404 16.4952 10.0584 16.606 10.0584 16.7169C10.0584 16.8277 9.94594 16.9385 9.83352 16.9385Z" fill="#9697B9"/>
</g>
<path fill-rule="evenodd" clip-rule="evenodd" d="M31.4716 28.5937L39.1516 36.3355C39.4962 36.684 39.6889 37.1548 39.6875 37.6449C39.6861 38.135 39.4907 38.6047 39.1441 38.9512L39.1384 38.9568C38.7938 39.2983 38.3276 39.489 37.8424 39.4869C37.3571 39.4848 36.8926 39.2901 36.5509 38.9455L28.8672 31.198L31.4716 28.5918V28.5937Z" stroke="#9697B9" stroke-width="1.09091"/>
<path d="M30.1875 29.3198C25.5246 33.9826 17.9646 33.9826 13.3018 29.3198C8.63892 24.6569 8.63892 17.0969 13.3018 12.4341C17.9646 7.7712 25.5246 7.77121 30.1875 12.4341C34.8503 17.0969 34.8503 24.6569 30.1875 29.3198Z" stroke="#9697B9" stroke-width="1.09091"/>
<path d="M30.5786 29.0786C25.9157 33.7414 18.3557 33.7414 13.6929 29.0786C9.03003 24.4157 9.03003 16.8557 13.6929 12.1929C18.3557 7.52999 25.9157 7.53 30.5786 12.1929C35.2415 16.8557 35.2415 24.4157 30.5786 29.0786Z" stroke="#9697B9" stroke-width="1.09091"/>
<g clip-path="url(#clip1_3143_2974)">
<rect x="36.3564" y="5.54883" width="2.13439" height="2.84585" fill="#9697B9"/>
<rect x="28.2547" y="6.1639" width="9.79921" height="11.4" rx="2.52806" stroke="#9697B9" stroke-width="0.872727"/>
<path d="M36.0659 9.43401H29.3772C29.2367 9.43401 29.1523 9.32318 29.1523 9.21234C29.1523 9.1015 29.2648 8.99067 29.3772 8.99067H36.0378C36.1783 8.99067 36.2626 9.1015 36.2626 9.21234C36.2626 9.32318 36.1783 9.43401 36.0659 9.43401ZM33.9019 7.77147H29.4053C29.2648 7.77147 29.1804 7.66063 29.1804 7.5498C29.1804 7.43896 29.2929 7.32812 29.4053 7.32812H33.9019C34.0424 7.32812 34.1267 7.43896 34.1267 7.5498C34.1267 7.66063 34.0143 7.77147 33.9019 7.77147ZM36.0659 10.487H29.3772C29.2367 10.487 29.1523 10.3761 29.1523 10.2653C29.1523 10.1267 29.2648 10.0436 29.3772 10.0436H36.0378C36.1783 10.0436 36.2626 10.1544 36.2626 10.2653C36.2907 10.3761 36.1783 10.487 36.0659 10.487ZM36.0659 11.5122H29.3772C29.2367 11.5122 29.1523 11.4014 29.1523 11.2905C29.1523 11.1797 29.2648 11.0688 29.3772 11.0688H36.0378C36.1783 11.0688 36.2626 11.1797 36.2626 11.2905C36.2626 11.4014 36.1783 11.5122 36.0659 11.5122ZM36.0659 12.5374H29.3772C29.2367 12.5374 29.1523 12.4266 29.1523 12.3158C29.1523 12.2049 29.2648 12.0941 29.3772 12.0941H36.0378C36.1783 12.0941 36.2626 12.2049 36.2626 12.3158C36.2626 12.4266 36.1783 12.5374 36.0659 12.5374ZM36.0659 13.5627H29.3772C29.2367 13.5627 29.1523 13.4518 29.1523 13.341C29.1523 13.2301 29.2648 13.1193 29.3772 13.1193H36.0378C36.1783 13.1193 36.2626 13.2301 36.2626 13.341C36.2626 13.4518 36.1783 13.5627 36.0659 13.5627ZM36.0659 14.6156H29.3772C29.2367 14.6156 29.1523 14.5048 29.1523 14.3939C29.1523 14.2831 29.2648 14.1723 29.3772 14.1723H36.0378C36.1783 14.1723 36.2626 14.2831 36.2626 14.3939C36.2626 14.5048 36.1783 14.6156 36.0659 14.6156ZM36.0659 15.6408H29.3772C29.2367 15.6408 29.1523 15.53 29.1523 15.4192C29.1523 15.3083 29.2648 15.1975 29.3772 15.1975H36.0378C36.1783 15.1975 36.2626 15.3083 36.2626 15.4192C36.2626 15.53 36.1783 15.6408 36.0659 15.6408ZM33.9019 16.6661H29.4053C29.2648 16.6661 29.1804 16.5552 29.1804 16.4444C29.1804 16.3336 29.2929 16.2227 29.4053 16.2227H33.9019C34.0424 16.2227 34.1267 16.3336 34.1267 16.4444C34.1267 16.5552 34.0143 16.6661 33.9019 16.6661Z" fill="#9697B9"/>
</g>
<ellipse cx="21.8625" cy="20.625" rx="11.3625" ry="11.625" fill="#F4F4F4"/>
<g clip-path="url(#clip2_3143_2974)">
<rect x="26.0396" y="13.707" width="2.41897" height="3.2253" fill="#9697B9"/>
<rect x="16.8583" y="14.4037" width="11.1058" height="12.92" rx="2.86514" stroke="#9697B9" stroke-width="0.989091"/>
<path d="M25.7108 18.1093H18.1303C17.971 18.1093 17.8755 17.9837 17.8755 17.8581C17.8755 17.7325 18.0029 17.6069 18.1303 17.6069H25.679C25.8382 17.6069 25.9338 17.7325 25.9338 17.8581C25.9338 17.9837 25.8382 18.1093 25.7108 18.1093ZM23.2583 16.2251H18.1621C18.0029 16.2251 17.9073 16.0995 17.9073 15.9739C17.9073 15.8483 18.0347 15.7227 18.1621 15.7227H23.2583C23.4176 15.7227 23.5131 15.8483 23.5131 15.9739C23.5131 16.0995 23.3857 16.2251 23.2583 16.2251ZM25.7108 19.3027H18.1303C17.971 19.3027 17.8755 19.177 17.8755 19.0514C17.8755 18.8944 18.0029 18.8002 18.1303 18.8002H25.679C25.8382 18.8002 25.9338 18.9258 25.9338 19.0514C25.9656 19.177 25.8382 19.3027 25.7108 19.3027ZM25.7108 20.4646H18.1303C17.971 20.4646 17.8755 20.339 17.8755 20.2134C17.8755 20.0878 18.0029 19.9621 18.1303 19.9621H25.679C25.8382 19.9621 25.9338 20.0878 25.9338 20.2134C25.9338 20.339 25.8382 20.4646 25.7108 20.4646ZM25.7108 21.6265H18.1303C17.971 21.6265 17.8755 21.5009 17.8755 21.3753C17.8755 21.2497 18.0029 21.1241 18.1303 21.1241H25.679C25.8382 21.1241 25.9338 21.2497 25.9338 21.3753C25.9338 21.5009 25.8382 21.6265 25.7108 21.6265ZM25.7108 22.7885H18.1303C17.971 22.7885 17.8755 22.6628 17.8755 22.5372C17.8755 22.4116 18.0029 22.286 18.1303 22.286H25.679C25.8382 22.286 25.9338 22.4116 25.9338 22.5372C25.9338 22.6628 25.8382 22.7885 25.7108 22.7885ZM25.7108 23.9818H18.1303C17.971 23.9818 17.8755 23.8562 17.8755 23.7306C17.8755 23.605 18.0029 23.4793 18.1303 23.4793H25.679C25.8382 23.4793 25.9338 23.605 25.9338 23.7306C25.9338 23.8562 25.8382 23.9818 25.7108 23.9818ZM25.7108 25.1437H18.1303C17.971 25.1437 17.8755 25.0181 17.8755 24.8925C17.8755 24.7669 18.0029 24.6413 18.1303 24.6413H25.679C25.8382 24.6413 25.9338 24.7669 25.9338 24.8925C25.9338 25.0181 25.8382 25.1437 25.7108 25.1437ZM23.2583 26.3057H18.1621C18.0029 26.3057 17.9073 26.18 17.9073 26.0544C17.9073 25.9288 18.0347 25.8032 18.1621 25.8032H23.2583C23.4176 25.8032 23.5131 25.9288 23.5131 26.0544C23.5131 26.18 23.3857 26.3057 23.2583 26.3057Z" fill="#9697B9"/>
</g>
<defs>
<clipPath id="clip0_3143_2974">
<rect x="3.75" y="6" width="10.6719" height="12.2727" rx="2.96443" fill="white"/>
</clipPath>
<clipPath id="clip1_3143_2974">
<rect x="27.8184" y="5.72754" width="10.6719" height="12.2727" rx="2.96443" fill="white"/>
</clipPath>
<clipPath id="clip2_3143_2974">
<rect x="16.3638" y="13.9092" width="12.0949" height="13.9091" rx="3.35968" fill="white"/>
</clipPath>
</defs>
</svg>
