<svg width="64" height="64" viewBox="0 0 64 64" fill="none" xmlns="http://www.w3.org/2000/svg">
<g clip-path="url(#clip0_3006_1785)">
<rect x="17.4761" y="8.2793" width="3.03557" height="4.04743" fill="#31337C"/>
<rect x="5.76986" y="8.96957" width="14.3051" height="16.5818" rx="2.52806" stroke="#31337C" stroke-width="0.872727"/>
<path d="M17.0635 13.8036H7.55072C7.35087 13.8036 7.23096 13.646 7.23096 13.4884C7.23096 13.3307 7.39084 13.1731 7.55072 13.1731H17.0236C17.2234 13.1731 17.3433 13.3307 17.3433 13.4884C17.3433 13.646 17.2234 13.8036 17.0635 13.8036ZM13.9859 11.4391H7.59069C7.39084 11.4391 7.27093 11.2815 7.27093 11.1239C7.27093 10.9662 7.43081 10.8086 7.59069 10.8086H13.9859C14.1857 10.8086 14.3056 10.9662 14.3056 11.1239C14.3056 11.2815 14.1457 11.4391 13.9859 11.4391ZM17.0635 15.3012H7.55072C7.35087 15.3012 7.23096 15.1435 7.23096 14.9859C7.23096 14.7888 7.39084 14.6706 7.55072 14.6706H17.0236C17.2234 14.6706 17.3433 14.8283 17.3433 14.9859C17.3833 15.1435 17.2234 15.3012 17.0635 15.3012ZM17.0635 16.7593H7.55072C7.35087 16.7593 7.23096 16.6016 7.23096 16.444C7.23096 16.2864 7.39084 16.1287 7.55072 16.1287H17.0236C17.2234 16.1287 17.3433 16.2864 17.3433 16.444C17.3433 16.6016 17.2234 16.7593 17.0635 16.7593ZM17.0635 18.2174H7.55072C7.35087 18.2174 7.23096 18.0597 7.23096 17.9021C7.23096 17.7445 7.39084 17.5868 7.55072 17.5868H17.0236C17.2234 17.5868 17.3433 17.7445 17.3433 17.9021C17.3433 18.0597 17.2234 18.2174 17.0635 18.2174ZM17.0635 19.6755H7.55072C7.35087 19.6755 7.23096 19.5179 7.23096 19.3602C7.23096 19.2026 7.39084 19.0449 7.55072 19.0449H17.0236C17.2234 19.0449 17.3433 19.2026 17.3433 19.3602C17.3433 19.5179 17.2234 19.6755 17.0635 19.6755ZM17.0635 21.173H7.55072C7.35087 21.173 7.23096 21.0154 7.23096 20.8577C7.23096 20.7001 7.39084 20.5425 7.55072 20.5425H17.0236C17.2234 20.5425 17.3433 20.7001 17.3433 20.8577C17.3433 21.0154 17.2234 21.173 17.0635 21.173ZM17.0635 22.6311H7.55072C7.35087 22.6311 7.23096 22.4735 7.23096 22.3158C7.23096 22.1582 7.39084 22.0006 7.55072 22.0006H17.0236C17.2234 22.0006 17.3433 22.1582 17.3433 22.3158C17.3433 22.4735 17.2234 22.6311 17.0635 22.6311ZM13.9859 24.0892H7.59069C7.39084 24.0892 7.27093 23.9316 7.27093 23.774C7.27093 23.6163 7.43081 23.4587 7.59069 23.4587H13.9859C14.1857 23.4587 14.3056 23.6163 14.3056 23.774C14.3056 23.9316 14.1457 24.0892 13.9859 24.0892Z" fill="#31337C"/>
</g>
<path fill-rule="evenodd" clip-rule="evenodd" d="M44.7602 40.6667L55.6828 51.6774C56.173 52.173 56.4471 52.8425 56.4451 53.5396C56.4431 54.2367 56.1652 54.9046 55.6722 55.3974L55.6642 55.4054C55.174 55.8912 54.5109 56.1623 53.8208 56.1593C53.1307 56.1563 52.4701 55.8794 51.9842 55.3894L41.0562 44.3707L44.7602 40.6641V40.6667Z" stroke="#31337C" stroke-width="1.09091"/>
<path d="M42.9334 41.6996C36.3018 48.3312 25.5498 48.3312 18.9182 41.6996C12.2865 35.068 12.2865 24.316 18.9182 17.6844C25.5498 11.0527 36.3018 11.0528 42.9334 17.6844C49.565 24.316 49.565 35.068 42.9334 41.6996Z" stroke="#31337C" stroke-width="1.09091"/>
<path d="M43.4896 41.3568C36.8579 47.9885 26.1059 47.9885 19.4743 41.3568C12.8427 34.7252 12.8427 23.9732 19.4743 17.3416C26.1059 10.71 36.8579 10.71 43.4896 17.3416C50.1212 23.9732 50.1212 34.7252 43.4896 41.3568Z" stroke="#31337C" stroke-width="1.09091"/>
<g clip-path="url(#clip1_3006_1785)">
<rect x="51.7061" y="7.8916" width="3.03557" height="4.04743" fill="#31337C"/>
<rect x="39.9998" y="8.58187" width="14.3051" height="16.5818" rx="2.52806" stroke="#31337C" stroke-width="0.872727"/>
<path d="M51.2935 13.4159H41.7807C41.5808 13.4159 41.4609 13.2583 41.4609 13.1007C41.4609 12.943 41.6208 12.7854 41.7807 12.7854H51.2535C51.4534 12.7854 51.5733 12.943 51.5733 13.1007C51.5733 13.2583 51.4534 13.4159 51.2935 13.4159ZM48.2158 11.0514H41.8207C41.6208 11.0514 41.5009 10.8938 41.5009 10.7362C41.5009 10.5785 41.6608 10.4209 41.8207 10.4209H48.2158C48.4157 10.4209 48.5356 10.5785 48.5356 10.7362C48.5356 10.8938 48.3757 11.0514 48.2158 11.0514ZM51.2935 14.9135H41.7807C41.5808 14.9135 41.4609 14.7558 41.4609 14.5982C41.4609 14.4011 41.6208 14.2829 41.7807 14.2829H51.2535C51.4534 14.2829 51.5733 14.4406 51.5733 14.5982C51.6133 14.7558 51.4534 14.9135 51.2935 14.9135ZM51.2935 16.3716H41.7807C41.5808 16.3716 41.4609 16.2139 41.4609 16.0563C41.4609 15.8987 41.6208 15.741 41.7807 15.741H51.2535C51.4534 15.741 51.5733 15.8987 51.5733 16.0563C51.5733 16.2139 51.4534 16.3716 51.2935 16.3716ZM51.2935 17.8297H41.7807C41.5808 17.8297 41.4609 17.672 41.4609 17.5144C41.4609 17.3568 41.6208 17.1991 41.7807 17.1991H51.2535C51.4534 17.1991 51.5733 17.3568 51.5733 17.5144C51.5733 17.672 51.4534 17.8297 51.2935 17.8297ZM51.2935 19.2878H41.7807C41.5808 19.2878 41.4609 19.1302 41.4609 18.9725C41.4609 18.8149 41.6208 18.6573 41.7807 18.6573H51.2535C51.4534 18.6573 51.5733 18.8149 51.5733 18.9725C51.5733 19.1302 51.4534 19.2878 51.2935 19.2878ZM51.2935 20.7853H41.7807C41.5808 20.7853 41.4609 20.6277 41.4609 20.47C41.4609 20.3124 41.6208 20.1548 41.7807 20.1548H51.2535C51.4534 20.1548 51.5733 20.3124 51.5733 20.47C51.5733 20.6277 51.4534 20.7853 51.2935 20.7853ZM51.2935 22.2434H41.7807C41.5808 22.2434 41.4609 22.0858 41.4609 21.9282C41.4609 21.7705 41.6208 21.6129 41.7807 21.6129H51.2535C51.4534 21.6129 51.5733 21.7705 51.5733 21.9282C51.5733 22.0858 51.4534 22.2434 51.2935 22.2434ZM48.2158 23.7015H41.8207C41.6208 23.7015 41.5009 23.5439 41.5009 23.3863C41.5009 23.2286 41.6608 23.071 41.8207 23.071H48.2158C48.4157 23.071 48.5356 23.2286 48.5356 23.3863C48.5356 23.5439 48.3757 23.7015 48.2158 23.7015Z" fill="#31337C"/>
</g>
<ellipse cx="31.0931" cy="29.3331" rx="16.16" ry="16.5333" fill="#E4E4EA"/>
<g clip-path="url(#clip2_3006_1785)">
<rect x="37.0342" y="19.4941" width="3.44032" height="4.58709" fill="#31337C"/>
<rect x="23.7675" y="20.2768" width="16.2125" height="18.7927" rx="2.86514" stroke="#31337C" stroke-width="0.989091"/>
<path d="M36.5664 25.7557H25.7852C25.5587 25.7557 25.4229 25.5771 25.4229 25.3984C25.4229 25.2198 25.604 25.0411 25.7852 25.0411H36.5211C36.7476 25.0411 36.8835 25.2198 36.8835 25.3984C36.8835 25.5771 36.7476 25.7557 36.5664 25.7557ZM33.0784 23.0759H25.8305C25.604 23.0759 25.4682 22.8973 25.4682 22.7186C25.4682 22.54 25.6493 22.3613 25.8305 22.3613H33.0784C33.3049 22.3613 33.4408 22.54 33.4408 22.7186C33.4408 22.8973 33.2596 23.0759 33.0784 23.0759ZM36.5664 27.4529H25.7852C25.5587 27.4529 25.4229 27.2742 25.4229 27.0956C25.4229 26.8723 25.604 26.7383 25.7852 26.7383H36.5211C36.7476 26.7383 36.8835 26.9169 36.8835 27.0956C36.9288 27.2742 36.7476 27.4529 36.5664 27.4529ZM36.5664 29.1054H25.7852C25.5587 29.1054 25.4229 28.9268 25.4229 28.7481C25.4229 28.5695 25.604 28.3908 25.7852 28.3908H36.5211C36.7476 28.3908 36.8835 28.5695 36.8835 28.7481C36.8835 28.9268 36.7476 29.1054 36.5664 29.1054ZM36.5664 30.7579H25.7852C25.5587 30.7579 25.4229 30.5793 25.4229 30.4006C25.4229 30.222 25.604 30.0433 25.7852 30.0433H36.5211C36.7476 30.0433 36.8835 30.222 36.8835 30.4006C36.8835 30.5793 36.7476 30.7579 36.5664 30.7579ZM36.5664 32.4105H25.7852C25.5587 32.4105 25.4229 32.2318 25.4229 32.0532C25.4229 31.8745 25.604 31.6959 25.7852 31.6959H36.5211C36.7476 31.6959 36.8835 31.8745 36.8835 32.0532C36.8835 32.2318 36.7476 32.4105 36.5664 32.4105ZM36.5664 34.1077H25.7852C25.5587 34.1077 25.4229 33.929 25.4229 33.7504C25.4229 33.5717 25.604 33.3931 25.7852 33.3931H36.5211C36.7476 33.3931 36.8835 33.5717 36.8835 33.7504C36.8835 33.929 36.7476 34.1077 36.5664 34.1077ZM36.5664 35.7602H25.7852C25.5587 35.7602 25.4229 35.5815 25.4229 35.4029C25.4229 35.2242 25.604 35.0456 25.7852 35.0456H36.5211C36.7476 35.0456 36.8835 35.2242 36.8835 35.4029C36.8835 35.5815 36.7476 35.7602 36.5664 35.7602ZM33.0784 37.4127H25.8305C25.604 37.4127 25.4682 37.2341 25.4682 37.0554C25.4682 36.8768 25.6493 36.6981 25.8305 36.6981H33.0784C33.3049 36.6981 33.4408 36.8768 33.4408 37.0554C33.4408 37.2341 33.2596 37.4127 33.0784 37.4127Z" fill="#31337C"/>
</g>
<defs>
<clipPath id="clip0_3006_1785">
<rect x="5.3335" y="8.5332" width="15.1779" height="17.4545" rx="2.96443" fill="white"/>
</clipPath>
<clipPath id="clip1_3006_1785">
<rect x="39.5635" y="8.14551" width="15.1779" height="17.4545" rx="2.96443" fill="white"/>
</clipPath>
<clipPath id="clip2_3006_1785">
<rect x="23.2729" y="19.7822" width="17.2016" height="19.7818" rx="3.35968" fill="white"/>
</clipPath>
</defs>
</svg>
