<svg width="242" height="24" viewBox="0 0 242 24" fill="none" xmlns="http://www.w3.org/2000/svg">
<path d="M42.1307 17V7.42405H46.9047C47.584 7.42405 48.1471 7.54969 48.5938 7.80095C49.0404 8.05221 49.3755 8.40119 49.5988 8.84788C49.8315 9.28527 49.9478 9.80641 49.9478 10.4113C49.9478 11.0162 49.8268 11.5513 49.5848 12.0166C49.3429 12.4726 48.9893 12.8262 48.524 13.0775C48.068 13.3288 47.5096 13.4544 46.8489 13.4544H43.6941V17H42.1307ZM43.6941 12.1143H46.7791C47.2723 12.1143 47.6585 11.9654 47.9377 11.6676C48.2262 11.3698 48.3704 10.9557 48.3704 10.4253C48.3704 10.0716 48.3099 9.77384 48.1889 9.53188C48.068 9.28062 47.8911 9.08984 47.6585 8.95956C47.4258 8.82927 47.1327 8.76413 46.7791 8.76413H43.6941V12.1143ZM54.1526 17.1675C53.3988 17.1675 52.766 17.0326 52.2542 16.7627C51.7517 16.4835 51.3701 16.0601 51.1096 15.4924C50.849 14.9247 50.7187 14.2035 50.7187 13.3288C50.7187 12.4447 50.849 11.7235 51.1096 11.1651C51.3701 10.5974 51.7563 10.1787 52.2682 9.90878C52.78 9.62959 53.4175 9.49 54.1806 9.49C54.8785 9.49 55.4601 9.62494 55.9254 9.89482C56.4001 10.1554 56.7583 10.5555 57.0003 11.0953C57.2423 11.6351 57.3632 12.3144 57.3632 13.1333V13.6917H52.2123C52.2309 14.2128 52.31 14.6502 52.4496 15.0038C52.5892 15.3482 52.7986 15.6041 53.0778 15.7716C53.3663 15.9298 53.7292 16.0089 54.1666 16.0089C54.4365 16.0089 54.6784 15.9763 54.8925 15.9112C55.1065 15.8367 55.288 15.7344 55.4369 15.6041C55.5858 15.4645 55.7021 15.3016 55.7859 15.1155C55.8696 14.9201 55.9115 14.7014 55.9115 14.4594H57.3353C57.3353 14.8968 57.2609 15.283 57.112 15.618C56.9631 15.9531 56.7444 16.2369 56.4559 16.4696C56.1767 16.6929 55.8417 16.8651 55.4508 16.986C55.06 17.107 54.6272 17.1675 54.1526 17.1675ZM52.2402 12.6308H55.8417C55.8417 12.2679 55.7998 11.9654 55.7161 11.7235C55.6416 11.4722 55.5299 11.2675 55.381 11.1093C55.2321 10.9511 55.0553 10.8394 54.8506 10.7742C54.6459 10.6998 54.4132 10.6626 54.1526 10.6626C53.7618 10.6626 53.4268 10.7324 53.1476 10.872C52.8777 11.0115 52.6683 11.2302 52.5194 11.528C52.3705 11.8165 52.2775 12.1841 52.2402 12.6308ZM61.5469 17.1675C61.0351 17.1675 60.5838 17.1117 60.1929 17C59.802 16.8883 59.4763 16.7348 59.2158 16.5393C58.9552 16.3439 58.7551 16.1113 58.6155 15.8414C58.4852 15.5622 58.4201 15.2551 58.4201 14.9201C58.4201 14.8736 58.4201 14.8317 58.4201 14.7945C58.4294 14.7572 58.434 14.7247 58.434 14.6967H59.8718C59.8718 14.7247 59.8718 14.7526 59.8718 14.7805C59.8718 14.7991 59.8718 14.8224 59.8718 14.8503C59.8718 15.1388 59.9509 15.3714 60.1091 15.5483C60.2673 15.7158 60.4767 15.8367 60.7373 15.9112C61.0072 15.9763 61.3003 16.0089 61.6167 16.0089C61.8959 16.0089 62.1518 15.9763 62.3845 15.9112C62.6264 15.8367 62.8219 15.7297 62.9708 15.5901C63.129 15.4505 63.2081 15.2737 63.2081 15.0597C63.2081 14.7805 63.1103 14.5665 62.9149 14.4176C62.7195 14.2687 62.4636 14.1523 62.1472 14.0686C61.8308 13.9755 61.5004 13.8778 61.1561 13.7754C60.849 13.6917 60.5419 13.6033 60.2348 13.5102C59.937 13.4079 59.6671 13.2776 59.4251 13.1194C59.1832 12.9612 58.9878 12.7611 58.8389 12.5191C58.69 12.2772 58.6155 11.9747 58.6155 11.6118C58.6155 11.2675 58.69 10.965 58.8389 10.7044C58.9878 10.4439 59.1925 10.2252 59.4531 10.0484C59.7229 9.87155 60.0393 9.73661 60.4023 9.64355C60.7745 9.55049 61.1793 9.50396 61.6167 9.50396C62.0727 9.50396 62.4775 9.55514 62.8312 9.65751C63.1848 9.75057 63.4826 9.88551 63.7245 10.0623C63.9758 10.2391 64.1666 10.4532 64.2969 10.7044C64.4272 10.9464 64.4923 11.207 64.4923 11.4862C64.4923 11.542 64.4876 11.6025 64.4783 11.6676C64.4783 11.7235 64.4783 11.7607 64.4783 11.7793H63.0545V11.6537C63.0545 11.4675 63.0033 11.3 62.901 11.1511C62.7986 11.0022 62.6357 10.8813 62.4124 10.7882C62.1984 10.6951 61.9099 10.6486 61.5469 10.6486C61.305 10.6486 61.0909 10.6719 60.9048 10.7184C60.7187 10.7556 60.5651 10.8115 60.4442 10.8859C60.3232 10.9604 60.2301 11.0488 60.165 11.1511C60.1091 11.2535 60.0812 11.3698 60.0812 11.5001C60.0812 11.7142 60.1557 11.8817 60.3046 12.0026C60.4628 12.1143 60.6675 12.212 60.9188 12.2958C61.17 12.3702 61.4399 12.454 61.7284 12.547C62.0634 12.6401 62.4031 12.7378 62.7474 12.8402C63.0917 12.9332 63.4081 13.0542 63.6966 13.2031C63.9944 13.352 64.2317 13.5568 64.4085 13.8173C64.5947 14.0779 64.6877 14.4269 64.6877 14.8643C64.6877 15.2644 64.6086 15.6134 64.4504 15.9112C64.2922 16.209 64.0689 16.4509 63.7804 16.6371C63.5012 16.8139 63.1708 16.9442 62.7893 17.0279C62.4077 17.121 61.9936 17.1675 61.5469 17.1675ZM68.8673 17.1675C68.3554 17.1675 67.9041 17.1117 67.5132 17C67.1224 16.8883 66.7967 16.7348 66.5361 16.5393C66.2755 16.3439 66.0755 16.1113 65.9359 15.8414C65.8056 15.5622 65.7404 15.2551 65.7404 14.9201C65.7404 14.8736 65.7404 14.8317 65.7404 14.7945C65.7497 14.7572 65.7544 14.7247 65.7544 14.6967H67.1922C67.1922 14.7247 67.1922 14.7526 67.1922 14.7805C67.1922 14.7991 67.1922 14.8224 67.1922 14.8503C67.1922 15.1388 67.2713 15.3714 67.4295 15.5483C67.5877 15.7158 67.7971 15.8367 68.0576 15.9112C68.3275 15.9763 68.6207 16.0089 68.9371 16.0089C69.2163 16.0089 69.4722 15.9763 69.7048 15.9112C69.9468 15.8367 70.1422 15.7297 70.2911 15.5901C70.4493 15.4505 70.5284 15.2737 70.5284 15.0597C70.5284 14.7805 70.4307 14.5665 70.2353 14.4176C70.0398 14.2687 69.7839 14.1523 69.4675 14.0686C69.1511 13.9755 68.8207 13.8778 68.4764 13.7754C68.1693 13.6917 67.8622 13.6033 67.5551 13.5102C67.2573 13.4079 66.9875 13.2776 66.7455 13.1194C66.5035 12.9612 66.3081 12.7611 66.1592 12.5191C66.0103 12.2772 65.9359 11.9747 65.9359 11.6118C65.9359 11.2675 66.0103 10.965 66.1592 10.7044C66.3081 10.4439 66.5128 10.2252 66.7734 10.0484C67.0433 9.87155 67.3597 9.73661 67.7226 9.64355C68.0949 9.55049 68.4997 9.50396 68.9371 9.50396C69.3931 9.50396 69.7979 9.55514 70.1515 9.65751C70.5051 9.75057 70.8029 9.88551 71.0449 10.0623C71.2962 10.2391 71.4869 10.4532 71.6172 10.7044C71.7475 10.9464 71.8126 11.207 71.8126 11.4862C71.8126 11.542 71.808 11.6025 71.7987 11.6676C71.7987 11.7235 71.7987 11.7607 71.7987 11.7793H70.3749V11.6537C70.3749 11.4675 70.3237 11.3 70.2213 11.1511C70.1189 11.0022 69.9561 10.8813 69.7327 10.7882C69.5187 10.6951 69.2302 10.6486 68.8673 10.6486C68.6253 10.6486 68.4113 10.6719 68.2252 10.7184C68.039 10.7556 67.8855 10.8115 67.7645 10.8859C67.6435 10.9604 67.5505 11.0488 67.4853 11.1511C67.4295 11.2535 67.4016 11.3698 67.4016 11.5001C67.4016 11.7142 67.476 11.8817 67.6249 12.0026C67.7831 12.1143 67.9879 12.212 68.2391 12.2958C68.4904 12.3702 68.7603 12.454 69.0487 12.547C69.3838 12.6401 69.7234 12.7378 70.0678 12.8402C70.4121 12.9332 70.7285 13.0542 71.017 13.2031C71.3148 13.352 71.5521 13.5568 71.7289 13.8173C71.915 14.0779 72.0081 14.4269 72.0081 14.8643C72.0081 15.2644 71.929 15.6134 71.7708 15.9112C71.6126 16.209 71.3892 16.4509 71.1007 16.6371C70.8216 16.8139 70.4912 16.9442 70.1096 17.0279C69.7281 17.121 69.314 17.1675 68.8673 17.1675ZM76.6064 17.1675C75.8433 17.1675 75.1965 17.0326 74.6661 16.7627C74.1449 16.4835 73.7494 16.0601 73.4796 15.4924C73.219 14.9247 73.0887 14.2035 73.0887 13.3288C73.0887 12.4447 73.219 11.7235 73.4796 11.1651C73.7494 10.5974 74.1449 10.1787 74.6661 9.90878C75.1965 9.62959 75.8433 9.49 76.6064 9.49C77.3881 9.49 78.0395 9.62959 78.5607 9.90878C79.0818 10.1787 79.4727 10.5974 79.7332 11.1651C80.0031 11.7235 80.1381 12.4447 80.1381 13.3288C80.1381 14.2035 80.0031 14.9247 79.7332 15.4924C79.4727 16.0601 79.0818 16.4835 78.5607 16.7627C78.0395 17.0326 77.3881 17.1675 76.6064 17.1675ZM76.6064 15.967C77.0717 15.967 77.4533 15.8786 77.751 15.7018C78.0488 15.5157 78.2675 15.2365 78.4071 14.8643C78.556 14.492 78.6305 14.0221 78.6305 13.4544V13.2031C78.6305 12.6355 78.556 12.1655 78.4071 11.7933C78.2675 11.421 78.0488 11.1465 77.751 10.9697C77.4533 10.7835 77.0717 10.6905 76.6064 10.6905C76.1504 10.6905 75.7735 10.7835 75.4757 10.9697C75.1779 11.1465 74.9546 11.421 74.8057 11.7933C74.6661 12.1655 74.5963 12.6355 74.5963 13.2031V13.4544C74.5963 14.0221 74.6661 14.492 74.8057 14.8643C74.9546 15.2365 75.1779 15.5157 75.4757 15.7018C75.7735 15.8786 76.1504 15.967 76.6064 15.967ZM83.4744 17.1675C83.2417 17.1675 82.9905 17.1396 82.7206 17.0838C82.4507 17.0279 82.1948 16.9256 81.9528 16.7767C81.7202 16.6278 81.5294 16.423 81.3805 16.1625C81.2316 15.8926 81.1572 15.5436 81.1572 15.1155C81.1572 14.613 81.2735 14.1989 81.5062 13.8732C81.7388 13.5474 82.0645 13.2915 82.4833 13.1054C82.9021 12.9193 83.3999 12.789 83.9769 12.7146C84.5632 12.6401 85.2007 12.6029 85.8893 12.6029V11.877C85.8893 11.6351 85.8474 11.421 85.7637 11.2349C85.6892 11.0488 85.545 10.9045 85.3309 10.8022C85.1262 10.6998 84.8284 10.6486 84.4376 10.6486C84.0467 10.6486 83.7396 10.6998 83.5163 10.8022C83.3022 10.8952 83.1487 11.0162 83.0556 11.1651C82.9719 11.3047 82.93 11.4582 82.93 11.6257V11.8351H81.5341C81.5248 11.7886 81.5201 11.7421 81.5201 11.6955C81.5201 11.649 81.5201 11.5932 81.5201 11.528C81.5201 11.0906 81.6411 10.7231 81.8831 10.4253C82.1343 10.1182 82.4833 9.88551 82.93 9.72731C83.3767 9.5691 83.8932 9.49 84.4794 9.49C85.1123 9.49 85.638 9.58306 86.0568 9.76918C86.4849 9.946 86.806 10.2019 87.02 10.5369C87.234 10.872 87.3411 11.2768 87.3411 11.7514V15.4785C87.3411 15.6553 87.3829 15.7809 87.4667 15.8554C87.5598 15.9298 87.6668 15.967 87.7878 15.967H88.2903V16.9442C88.1786 16.9907 88.039 17.0372 87.8715 17.0838C87.704 17.1303 87.5086 17.1536 87.2852 17.1536C87.034 17.1536 86.8199 17.107 86.6431 17.014C86.4756 16.9302 86.336 16.8092 86.2243 16.651C86.122 16.4835 86.0522 16.2974 86.0149 16.0927H85.9312C85.7637 16.3067 85.5589 16.4975 85.317 16.665C85.0843 16.8232 84.8145 16.9442 84.5074 17.0279C84.2003 17.121 83.8559 17.1675 83.4744 17.1675ZM83.8792 15.967C84.1677 15.967 84.4329 15.9251 84.6749 15.8414C84.9261 15.7483 85.1402 15.6227 85.317 15.4645C85.4938 15.297 85.6334 15.1016 85.7358 14.8782C85.8381 14.6456 85.8893 14.3943 85.8893 14.1244V13.6359C85.2472 13.6359 84.6842 13.6731 84.2003 13.7475C83.7163 13.822 83.3395 13.9616 83.0696 14.1663C82.7997 14.3617 82.6648 14.6363 82.6648 14.9899C82.6648 15.2039 82.7113 15.3854 82.8044 15.5343C82.8974 15.6739 83.037 15.7809 83.2231 15.8554C83.4092 15.9298 83.6279 15.967 83.8792 15.967ZM92.0007 17.1675C91.4888 17.1675 91.0375 17.1117 90.6466 17C90.2558 16.8883 89.9301 16.7348 89.6695 16.5393C89.4089 16.3439 89.2089 16.1113 89.0693 15.8414C88.939 15.5622 88.8738 15.2551 88.8738 14.9201C88.8738 14.8736 88.8738 14.8317 88.8738 14.7945C88.8831 14.7572 88.8878 14.7247 88.8878 14.6967H90.3256C90.3256 14.7247 90.3256 14.7526 90.3256 14.7805C90.3256 14.7991 90.3256 14.8224 90.3256 14.8503C90.3256 15.1388 90.4047 15.3714 90.5629 15.5483C90.7211 15.7158 90.9305 15.8367 91.191 15.9112C91.4609 15.9763 91.7541 16.0089 92.0705 16.0089C92.3497 16.0089 92.6056 15.9763 92.8382 15.9112C93.0802 15.8367 93.2756 15.7297 93.4245 15.5901C93.5827 15.4505 93.6618 15.2737 93.6618 15.0597C93.6618 14.7805 93.5641 14.5665 93.3687 14.4176C93.1732 14.2687 92.9173 14.1523 92.6009 14.0686C92.2845 13.9755 91.9541 13.8778 91.6098 13.7754C91.3027 13.6917 90.9956 13.6033 90.6885 13.5102C90.3907 13.4079 90.1208 13.2776 89.8789 13.1194C89.6369 12.9612 89.4415 12.7611 89.2926 12.5191C89.1437 12.2772 89.0693 11.9747 89.0693 11.6118C89.0693 11.2675 89.1437 10.965 89.2926 10.7044C89.4415 10.4439 89.6462 10.2252 89.9068 10.0484C90.1767 9.87155 90.4931 9.73661 90.856 9.64355C91.2283 9.55049 91.6331 9.50396 92.0705 9.50396C92.5265 9.50396 92.9313 9.55514 93.2849 9.65751C93.6385 9.75057 93.9363 9.88551 94.1783 10.0623C94.4296 10.2391 94.6203 10.4532 94.7506 10.7044C94.8809 10.9464 94.946 11.207 94.946 11.4862C94.946 11.542 94.9414 11.6025 94.9321 11.6676C94.9321 11.7235 94.9321 11.7607 94.9321 11.7793H93.5083V11.6537C93.5083 11.4675 93.4571 11.3 93.3547 11.1511C93.2523 11.0022 93.0895 10.8813 92.8661 10.7882C92.6521 10.6951 92.3636 10.6486 92.0007 10.6486C91.7587 10.6486 91.5447 10.6719 91.3586 10.7184C91.1724 10.7556 91.0189 10.8115 90.8979 10.8859C90.7769 10.9604 90.6839 11.0488 90.6187 11.1511C90.5629 11.2535 90.535 11.3698 90.535 11.5001C90.535 11.7142 90.6094 11.8817 90.7583 12.0026C90.9165 12.1143 91.1213 12.212 91.3725 12.2958C91.6238 12.3702 91.8937 12.454 92.1821 12.547C92.5172 12.6401 92.8568 12.7378 93.2012 12.8402C93.5455 12.9332 93.8619 13.0542 94.1504 13.2031C94.4482 13.352 94.6855 13.5568 94.8623 13.8173C95.0484 14.0779 95.1415 14.4269 95.1415 14.8643C95.1415 15.2644 95.0624 15.6134 94.9042 15.9112C94.746 16.209 94.5226 16.4509 94.2341 16.6371C93.955 16.8139 93.6246 16.9442 93.243 17.0279C92.8615 17.121 92.4474 17.1675 92.0007 17.1675Z" fill="#FCFCFC"/>
<path d="M16.3688 15.6936C16.8985 15.8765 15.8438 15.5108 16.3688 15.6936V15.6936Z" fill="#9193B9"/>
<path d="M16.3688 15.6938C15.7359 15.4735 15.0516 15.4595 14.4188 15.2391C14.2266 15.1735 13.8469 15.0938 13.7672 14.8735C13.6922 14.6579 13.6922 14.4048 13.6781 14.1798C13.6687 14.0016 13.6641 13.8235 13.6641 13.6454C13.6641 13.5282 13.9641 13.2798 14.0297 13.172C14.2828 12.7501 14.3063 12.1829 14.3531 11.7048C14.7609 11.8173 14.8125 11.0626 14.8828 10.8329C14.9344 10.6735 15.2484 9.57664 14.7609 9.72664C14.8781 9.52039 14.925 9.26727 14.9578 9.03758C15.0516 8.43758 15.0891 7.78133 14.9062 7.19539C14.5266 5.97664 13.3594 5.29227 12.1266 5.25477C10.875 5.21258 9.61875 5.81258 9.15 7.02664C8.925 7.61726 8.94375 8.25945 9.01875 8.8782C9.05156 9.15945 9.09844 9.47352 9.23906 9.72664C8.78438 9.5907 9.02812 10.5563 9.07969 10.7251C9.15469 10.9641 9.22031 11.822 9.64688 11.7048C9.68438 12.0845 9.72656 12.4735 9.82969 12.8438C9.9 13.0923 10.0453 13.3032 10.2141 13.4954C10.2984 13.5891 10.3406 13.5985 10.3359 13.7204C10.3313 14.086 10.3406 14.4798 10.2469 14.836C10.1531 15.1923 9.37031 15.3423 9.05625 15.4079C8.2125 15.5813 7.43438 15.661 6.73125 16.186C5.91094 16.7907 5.48438 17.7329 5.48438 18.7501H18.5156C18.5156 17.3673 17.6813 16.1485 16.3688 15.6938Z" fill="#9193B9"/>
<path d="M6.71729 15.1171L6.79228 15.0796C6.77822 15.0843 6.76416 15.0937 6.75479 15.0983C6.74072 15.103 6.73135 15.1077 6.71729 15.1171Z" fill="#9193B9"/>
<path d="M6.71719 15.1171C6.55781 15.1968 6.36563 15.2953 6.75469 15.0984L6.79219 15.0796C7.11094 14.9296 7.45312 14.8921 7.79531 14.8593C7.92656 14.8453 7.9875 14.7562 7.88906 14.6296C7.70156 14.3906 7.05469 14.3437 6.78281 14.2359C6.61406 14.1703 6.56719 14.1093 6.55313 13.9218C6.54844 13.8375 6.50156 13.4625 6.56719 13.4015C6.61406 13.3546 6.90938 13.3734 6.975 13.364C7.24219 13.3312 7.51406 13.275 7.76719 13.1765C7.875 13.1343 7.97812 13.0828 8.07187 13.0171C8.18437 12.9328 7.9875 12.7265 7.93594 12.614C7.77656 12.2625 7.70625 11.8781 7.68281 11.4937C7.63594 10.739 7.75312 9.97964 7.6125 9.22964C7.40156 8.0812 6.51562 7.50464 5.38594 7.50464C4.6875 7.50464 3.99844 7.7437 3.60938 8.35308C3.17813 9.02339 3.20156 9.85776 3.225 10.6218C3.23906 11.0578 3.25781 11.4984 3.19687 11.9343C3.16875 12.1218 3.12656 12.3046 3.06094 12.4828C3.00938 12.6187 2.74687 12.9562 2.85 13.0265C3.23906 13.3031 3.89531 13.3968 4.36406 13.3593C4.37812 13.589 4.42031 13.8843 4.33594 14.0999C4.20469 14.4374 3.225 14.5265 2.92969 14.625C2.10938 14.8968 1.5 15.5625 1.5 16.5H5.22656C5.2875 16.5 5.52187 16.064 5.5875 15.9937C5.90625 15.6421 6.29531 15.3375 6.71719 15.1171Z" fill="#9193B9"/>
<path d="M21.0611 14.6204C20.6815 14.4985 19.9502 14.461 19.6783 14.1329C19.5424 13.9688 19.6174 13.5517 19.6315 13.3548C19.8377 13.3735 20.0627 13.3407 20.2736 13.3126C20.4658 13.2845 20.6533 13.247 20.8361 13.1813C20.9205 13.1485 21.0049 13.1157 21.0846 13.0688C21.2674 12.961 21.183 12.9423 21.0893 12.7829C20.5783 11.9251 20.808 10.8376 20.7846 9.89541C20.7658 9.11259 20.5596 8.25478 19.8471 7.81416C19.2049 7.41572 18.2533 7.40166 17.5643 7.68291C15.5768 8.47978 16.7486 11.1142 16.069 12.6235C15.9518 12.8767 15.783 12.9657 16.0783 13.1157C16.2424 13.2001 16.4205 13.2563 16.5986 13.2985C16.8705 13.3642 17.1518 13.4017 17.433 13.411C17.4799 13.411 17.4471 14.0017 17.433 14.0626C17.3815 14.2923 16.8799 14.3579 16.6924 14.4095C16.5002 14.461 16.1815 14.4751 16.0877 14.6767C15.9471 14.9767 16.5518 14.9017 16.7018 14.9298C17.1846 15.0188 17.6111 15.286 17.9861 15.5907C18.2674 15.8204 18.6471 16.1298 18.7502 16.5048H22.5096C22.5002 15.5626 21.8861 14.8923 21.0611 14.6204Z" fill="#9193B9"/>
</svg>
