<svg width="48" height="47" viewBox="0 0 48 47" fill="none" xmlns="http://www.w3.org/2000/svg">
<g clip-path="url(#clip0_3006_1779)">
<rect x="43.8267" y="25.0186" width="4.1739" height="5.00365" fill="#31337C"/>
<rect x="27.6309" y="25.8311" width="19.8695" height="20.5782" rx="4.5" stroke="#31337C"/>
<path d="M43.0852 31.8481H30.0051C29.7303 31.8481 29.5654 31.6533 29.5654 31.4584C29.5654 31.2635 29.7853 31.0686 30.0051 31.0686H43.0302C43.305 31.0686 43.4699 31.2635 43.4699 31.4584C43.4699 31.6533 43.305 31.8481 43.0852 31.8481ZM38.8534 28.925H30.0601C29.7853 28.925 29.6204 28.7301 29.6204 28.5353C29.6204 28.3404 29.8402 28.1455 30.0601 28.1455H38.8534C39.1282 28.1455 39.2931 28.3404 39.2931 28.5353C39.2931 28.7301 39.0732 28.925 38.8534 28.925ZM43.0852 33.6994H30.0051C29.7303 33.6994 29.5654 33.5046 29.5654 33.3097C29.5654 33.0661 29.7853 32.9199 30.0051 32.9199H43.0302C43.305 32.9199 43.4699 33.1148 43.4699 33.3097C43.5248 33.5046 43.305 33.6994 43.0852 33.6994ZM43.0852 35.502H30.0051C29.7303 35.502 29.5654 35.3072 29.5654 35.1123C29.5654 34.9174 29.7853 34.7225 30.0051 34.7225H43.0302C43.305 34.7225 43.4699 34.9174 43.4699 35.1123C43.4699 35.3072 43.305 35.502 43.0852 35.502ZM43.0852 37.3046H30.0051C29.7303 37.3046 29.5654 37.1098 29.5654 36.9149C29.5654 36.72 29.7853 36.5251 30.0051 36.5251H43.0302C43.305 36.5251 43.4699 36.72 43.4699 36.9149C43.4699 37.1098 43.305 37.3046 43.0852 37.3046ZM43.0852 39.1072H30.0051C29.7303 39.1072 29.5654 38.9124 29.5654 38.7175C29.5654 38.5226 29.7853 38.3277 30.0051 38.3277H43.0302C43.305 38.3277 43.4699 38.5226 43.4699 38.7175C43.4699 38.9124 43.305 39.1072 43.0852 39.1072ZM43.0852 40.9585H30.0051C29.7303 40.9585 29.5654 40.7637 29.5654 40.5688C29.5654 40.3739 29.7853 40.179 30.0051 40.179H43.0302C43.305 40.179 43.4699 40.3739 43.4699 40.5688C43.4699 40.7637 43.305 40.9585 43.0852 40.9585ZM43.0852 42.7611H30.0051C29.7303 42.7611 29.5654 42.5663 29.5654 42.3714C29.5654 42.1765 29.7853 41.9816 30.0051 41.9816H43.0302C43.305 41.9816 43.4699 42.1765 43.4699 42.3714C43.4699 42.5663 43.305 42.7611 43.0852 42.7611ZM38.8534 44.5637H30.0601C29.7853 44.5637 29.6204 44.3689 29.6204 44.174C29.6204 43.9791 29.8402 43.7842 30.0601 43.7842H38.8534C39.1282 43.7842 39.2931 43.9791 39.2931 44.174C39.2931 44.3689 39.0732 44.5637 38.8534 44.5637Z" fill="#31337C"/>
</g>
<g clip-path="url(#clip1_3006_1779)">
<rect x="16.6958" y="25.0186" width="4.1739" height="5.00365" fill="#31337C"/>
<rect x="0.5" y="25.8311" width="19.8695" height="20.5782" rx="4.5" stroke="#31337C"/>
<path d="M16.1286 31.8481H3.04855C2.77376 31.8481 2.60889 31.6533 2.60889 31.4584C2.60889 31.2635 2.82872 31.0686 3.04855 31.0686H16.0737C16.3485 31.0686 16.5133 31.2635 16.5133 31.4584C16.5133 31.6533 16.3485 31.8481 16.1286 31.8481ZM11.8968 28.925H3.10351C2.82872 28.925 2.66385 28.7301 2.66385 28.5353C2.66385 28.3404 2.88368 28.1455 3.10351 28.1455H11.8968C12.1716 28.1455 12.3365 28.3404 12.3365 28.5353C12.3365 28.7301 12.1167 28.925 11.8968 28.925ZM16.1286 33.6994H3.04855C2.77376 33.6994 2.60889 33.5046 2.60889 33.3097C2.60889 33.0661 2.82872 32.9199 3.04855 32.9199H16.0737C16.3485 32.9199 16.5133 33.1148 16.5133 33.3097C16.5683 33.5046 16.3485 33.6994 16.1286 33.6994ZM16.1286 35.502H3.04855C2.77376 35.502 2.60889 35.3072 2.60889 35.1123C2.60889 34.9174 2.82872 34.7225 3.04855 34.7225H16.0737C16.3485 34.7225 16.5133 34.9174 16.5133 35.1123C16.5133 35.3072 16.3485 35.502 16.1286 35.502ZM16.1286 37.3046H3.04855C2.77376 37.3046 2.60889 37.1098 2.60889 36.9149C2.60889 36.72 2.82872 36.5251 3.04855 36.5251H16.0737C16.3485 36.5251 16.5133 36.72 16.5133 36.9149C16.5133 37.1098 16.3485 37.3046 16.1286 37.3046ZM16.1286 39.1072H3.04855C2.77376 39.1072 2.60889 38.9124 2.60889 38.7175C2.60889 38.5226 2.82872 38.3277 3.04855 38.3277H16.0737C16.3485 38.3277 16.5133 38.5226 16.5133 38.7175C16.5133 38.9124 16.3485 39.1072 16.1286 39.1072ZM16.1286 40.9585H3.04855C2.77376 40.9585 2.60889 40.7637 2.60889 40.5688C2.60889 40.3739 2.82872 40.179 3.04855 40.179H16.0737C16.3485 40.179 16.5133 40.3739 16.5133 40.5688C16.5133 40.7637 16.3485 40.9585 16.1286 40.9585ZM16.1286 42.7611H3.04855C2.77376 42.7611 2.60889 42.5663 2.60889 42.3714C2.60889 42.1765 2.82872 41.9816 3.04855 41.9816H16.0737C16.3485 41.9816 16.5133 42.1765 16.5133 42.3714C16.5133 42.5663 16.3485 42.7611 16.1286 42.7611ZM11.8968 44.5637H3.10351C2.82872 44.5637 2.66385 44.3689 2.66385 44.174C2.66385 43.9791 2.88368 43.7842 3.10351 43.7842H11.8968C12.1716 43.7842 12.3365 43.9791 12.3365 44.174C12.3365 44.3689 12.1167 44.5637 11.8968 44.5637Z" fill="#31337C"/>
</g>
<g clip-path="url(#clip2_3006_1779)">
<rect x="43.8262" width="4.1739" height="4.37819" fill="#31337C"/>
<rect x="27.6304" y="0.5" width="19.8695" height="20.5782" rx="4.5" stroke="#31337C"/>
<path d="M43.0847 6.04833H30.0046C29.7298 6.04833 29.5649 5.85345 29.5649 5.65858C29.5649 5.4637 29.7848 5.26883 30.0046 5.26883H43.0297C43.3045 5.26883 43.4694 5.4637 43.4694 5.65858C43.4694 5.85345 43.3045 6.04833 43.0847 6.04833ZM38.8529 3.1252H30.0596C29.7848 3.1252 29.6199 2.93033 29.6199 2.73545C29.6199 2.54058 29.8397 2.3457 30.0596 2.3457H38.8529C39.1277 2.3457 39.2926 2.54058 39.2926 2.73545C39.2926 2.93033 39.0727 3.1252 38.8529 3.1252ZM43.0847 7.89964H30.0046C29.7298 7.89964 29.5649 7.70477 29.5649 7.50989C29.5649 7.2663 29.7848 7.12014 30.0046 7.12014H43.0297C43.3045 7.12014 43.4694 7.31502 43.4694 7.50989C43.5244 7.70477 43.3045 7.89964 43.0847 7.89964ZM43.0847 9.70224H30.0046C29.7298 9.70224 29.5649 9.50736 29.5649 9.31249C29.5649 9.11761 29.7848 8.92274 30.0046 8.92274H43.0297C43.3045 8.92274 43.4694 9.11761 43.4694 9.31249C43.4694 9.50736 43.3045 9.70224 43.0847 9.70224ZM43.0847 11.5048H30.0046C29.7298 11.5048 29.5649 11.31 29.5649 11.1151C29.5649 10.9202 29.7848 10.7253 30.0046 10.7253H43.0297C43.3045 10.7253 43.4694 10.9202 43.4694 11.1151C43.4694 11.31 43.3045 11.5048 43.0847 11.5048ZM43.0847 13.3074H30.0046C29.7298 13.3074 29.5649 13.1126 29.5649 12.9177C29.5649 12.7228 29.7848 12.5279 30.0046 12.5279H43.0297C43.3045 12.5279 43.4694 12.7228 43.4694 12.9177C43.4694 13.1126 43.3045 13.3074 43.0847 13.3074ZM43.0847 15.1587H30.0046C29.7298 15.1587 29.5649 14.9639 29.5649 14.769C29.5649 14.5741 29.7848 14.3792 30.0046 14.3792H43.0297C43.3045 14.3792 43.4694 14.5741 43.4694 14.769C43.4694 14.9639 43.3045 15.1587 43.0847 15.1587ZM43.0847 16.9613H30.0046C29.7298 16.9613 29.5649 16.7665 29.5649 16.5716C29.5649 16.3767 29.7848 16.1818 30.0046 16.1818H43.0297C43.3045 16.1818 43.4694 16.3767 43.4694 16.5716C43.4694 16.7665 43.3045 16.9613 43.0847 16.9613ZM38.8529 18.7639H30.0596C29.7848 18.7639 29.6199 18.5691 29.6199 18.3742C29.6199 18.1793 29.8397 17.9844 30.0596 17.9844H38.8529C39.1277 17.9844 39.2926 18.1793 39.2926 18.3742C39.2926 18.5691 39.0727 18.7639 38.8529 18.7639Z" fill="#31337C"/>
</g>
<g clip-path="url(#clip3_3006_1779)">
<rect x="16.6958" width="4.1739" height="4.37819" fill="#31337C"/>
<rect x="0.5" y="0.5" width="19.8695" height="20.5782" rx="4.5" stroke="#31337C"/>
<path d="M16.1286 6.04833H3.04855C2.77376 6.04833 2.60889 5.85345 2.60889 5.65858C2.60889 5.4637 2.82872 5.26883 3.04855 5.26883H16.0737C16.3485 5.26883 16.5133 5.4637 16.5133 5.65858C16.5133 5.85345 16.3485 6.04833 16.1286 6.04833ZM11.8968 3.1252H3.10351C2.82872 3.1252 2.66385 2.93033 2.66385 2.73545C2.66385 2.54058 2.88368 2.3457 3.10351 2.3457H11.8968C12.1716 2.3457 12.3365 2.54058 12.3365 2.73545C12.3365 2.93033 12.1167 3.1252 11.8968 3.1252ZM16.1286 7.89964H3.04855C2.77376 7.89964 2.60889 7.70477 2.60889 7.50989C2.60889 7.2663 2.82872 7.12014 3.04855 7.12014H16.0737C16.3485 7.12014 16.5133 7.31502 16.5133 7.50989C16.5683 7.70477 16.3485 7.89964 16.1286 7.89964ZM16.1286 9.70224H3.04855C2.77376 9.70224 2.60889 9.50736 2.60889 9.31249C2.60889 9.11761 2.82872 8.92274 3.04855 8.92274H16.0737C16.3485 8.92274 16.5133 9.11761 16.5133 9.31249C16.5133 9.50736 16.3485 9.70224 16.1286 9.70224ZM16.1286 11.5048H3.04855C2.77376 11.5048 2.60889 11.31 2.60889 11.1151C2.60889 10.9202 2.82872 10.7253 3.04855 10.7253H16.0737C16.3485 10.7253 16.5133 10.9202 16.5133 11.1151C16.5133 11.31 16.3485 11.5048 16.1286 11.5048ZM16.1286 13.3074H3.04855C2.77376 13.3074 2.60889 13.1126 2.60889 12.9177C2.60889 12.7228 2.82872 12.5279 3.04855 12.5279H16.0737C16.3485 12.5279 16.5133 12.7228 16.5133 12.9177C16.5133 13.1126 16.3485 13.3074 16.1286 13.3074ZM16.1286 15.1587H3.04855C2.77376 15.1587 2.60889 14.9639 2.60889 14.769C2.60889 14.5741 2.82872 14.3792 3.04855 14.3792H16.0737C16.3485 14.3792 16.5133 14.5741 16.5133 14.769C16.5133 14.9639 16.3485 15.1587 16.1286 15.1587ZM16.1286 16.9613H3.04855C2.77376 16.9613 2.60889 16.7665 2.60889 16.5716C2.60889 16.3767 2.82872 16.1818 3.04855 16.1818H16.0737C16.3485 16.1818 16.5133 16.3767 16.5133 16.5716C16.5133 16.7665 16.3485 16.9613 16.1286 16.9613ZM11.8968 18.7639H3.10351C2.82872 18.7639 2.66385 18.5691 2.66385 18.3742C2.66385 18.1793 2.88368 17.9844 3.10351 17.9844H11.8968C12.1716 17.9844 12.3365 18.1793 12.3365 18.3742C12.3365 18.5691 12.1167 18.7639 11.8968 18.7639Z" fill="#31337C"/>
</g>
<defs>
<clipPath id="clip0_3006_1779">
<rect x="27.1309" y="25.3311" width="20.8695" height="21.5782" rx="5" fill="white"/>
</clipPath>
<clipPath id="clip1_3006_1779">
<rect y="25.3311" width="20.8695" height="21.5782" rx="5" fill="white"/>
</clipPath>
<clipPath id="clip2_3006_1779">
<rect x="27.1304" width="20.8695" height="21.5782" rx="5" fill="white"/>
</clipPath>
<clipPath id="clip3_3006_1779">
<rect width="20.8695" height="21.5782" rx="5" fill="white"/>
</clipPath>
</defs>
</svg>
