<svg width="53" height="53" viewBox="0 0 53 53" fill="none" xmlns="http://www.w3.org/2000/svg">
<g filter="url(#filter0_d_1947_32948)">
<path d="M8.82143 2C6.1596 2 4 4.1596 4 6.82143V42.1786C4 44.8404 6.1596 47 8.82143 47H44.1786C46.8404 47 49 44.8404 49 42.1786V6.82143C49 4.1596 46.8404 2 44.1786 2H8.82143ZM16.0098 12.7834H34.4764C35.6539 15.4199 36.1312 18.2199 36.5776 21.0271C36.4956 21.0504 36.4139 21.074 36.3318 21.0974C36.2727 20.9331 36.203 20.7721 36.1562 20.6044C35.818 19.3955 35.4772 18.1873 35.1535 16.9746C35.037 16.5382 34.7625 16.3209 34.3698 16.1072C33.7929 15.7935 33.2478 15.3892 32.7697 14.938C32.4646 14.6502 32.2036 14.4745 31.7709 14.4791C28.8896 14.5096 26.0081 14.5126 23.127 14.5391C22.935 14.541 22.6973 14.6119 22.5615 14.7377C22.0372 15.2227 21.5459 15.7432 20.8997 16.3939C22.604 20.5439 23.4608 25.0673 23.0929 29.876C22.2746 29.3522 21.6412 28.9375 21.6036 27.8398C21.4154 22.3535 19.7229 17.392 16.1872 13.1224C16.1076 13.0264 16.0681 12.8971 16.0098 12.7834ZM14.2992 14.8956C14.7094 14.8953 15.1196 14.898 15.5296 14.9101C15.6924 14.9148 15.9199 15.0184 16.0012 15.1486C18.4531 19.0881 20.3646 23.2255 20.6123 27.9593C20.6134 27.9781 20.5941 27.9977 20.5239 28.1353C19.0587 23.1264 16.4152 18.8854 13.0151 15.0843C13.0328 15.0227 13.0502 14.9609 13.068 14.8991C13.4783 14.8991 13.8888 14.8958 14.2992 14.8956ZM13.584 18.2417C13.6838 18.2398 13.8018 18.3718 13.8853 18.4648C15.8196 20.6163 17.5751 22.8896 18.6571 25.6085C18.8631 26.1255 19.004 26.6686 19.1748 27.1997C16.9337 23.6727 13.8148 21.0355 10.4286 18.3455C11.6008 18.3029 12.5924 18.2602 13.584 18.2417ZM42.4242 20.1472C42.4737 20.1433 42.5234 20.1479 42.5714 20.1606C35.2082 24.4368 28.1835 29.1191 23.0313 36.2166L17.0609 26.7218L17.1333 26.6294C17.298 26.7621 20.8025 29.5721 22.3764 30.8612C22.8148 31.2202 23.1461 31.2137 23.6021 30.8434C28.9539 26.4961 34.9257 23.2054 41.2666 20.552C41.6051 20.4103 41.9563 20.298 42.3024 20.1749C42.3416 20.1604 42.3826 20.1511 42.4242 20.1472Z" fill="#7678D7"/>
</g>
<defs>
<filter id="filter0_d_1947_32948" x="0" y="0" width="53" height="53" filterUnits="userSpaceOnUse" color-interpolation-filters="sRGB">
<feFlood flood-opacity="0" result="BackgroundImageFix"/>
<feColorMatrix in="SourceAlpha" type="matrix" values="0 0 0 0 0 0 0 0 0 0 0 0 0 0 0 0 0 0 127 0" result="hardAlpha"/>
<feOffset dy="2"/>
<feGaussianBlur stdDeviation="2"/>
<feComposite in2="hardAlpha" operator="out"/>
<feColorMatrix type="matrix" values="0 0 0 0 0 0 0 0 0 0 0 0 0 0 0 0 0 0 0.25 0"/>
<feBlend mode="normal" in2="BackgroundImageFix" result="effect1_dropShadow_1947_32948"/>
<feBlend mode="normal" in="SourceGraphic" in2="effect1_dropShadow_1947_32948" result="shape"/>
</filter>
</defs>
</svg>
