<svg width="23" height="19" viewBox="0 0 23 19" fill="none" xmlns="http://www.w3.org/2000/svg">
<path d="M22.1565 4.03183L11.6096 0.906825C11.537 0.885225 11.4596 0.885225 11.387 0.906825L0.840078 4.03183C0.761022 4.05494 0.691296 4.10246 0.640864 4.16758C0.590433 4.2327 0.561876 4.3121 0.559277 4.39442C0.556677 4.47675 0.580167 4.55779 0.626389 4.62596C0.672611 4.69414 0.739201 4.74595 0.816641 4.77401L6.03148 6.71933V11.0631C5.72068 11.0631 5.42261 11.1865 5.20284 11.4063C4.98307 11.6261 4.85961 11.9241 4.85961 12.235C4.85961 12.5458 4.98307 12.8438 5.20284 13.0636C5.42261 13.2834 5.72068 13.4068 6.03148 13.4068H6.09398C6.2911 14.6994 6.94481 15.8786 7.93663 16.7306C8.92844 17.5827 10.1927 18.0511 11.5002 18.0511C12.8078 18.0511 14.072 17.5827 15.0638 16.7306C16.0557 15.8786 16.7094 14.6994 16.9065 13.4068H16.969C17.2798 13.4068 17.5779 13.2834 17.7976 13.0636C18.0174 12.8438 18.1409 12.5458 18.1409 12.235C18.1409 11.9241 18.0174 11.6261 17.7976 11.4063C17.5779 11.1865 17.2798 11.0631 16.969 11.0631V6.71933L18.5315 6.1412V7.22714C18.3476 7.29323 18.1832 7.40425 18.0532 7.55009C17.9232 7.69592 17.8317 7.87195 17.787 8.06217C17.7424 8.25238 17.746 8.45073 17.7976 8.63919C17.8491 8.82764 17.947 9.00021 18.0823 9.1412L17.7932 9.71542C17.7701 9.76133 17.7563 9.81134 17.7525 9.86259C17.7488 9.91384 17.7552 9.96533 17.7713 10.0141C17.7874 10.0629 17.813 10.108 17.8466 10.1469C17.8802 10.1858 17.9211 10.2177 17.967 10.2408C18.0129 10.2639 18.063 10.2777 18.1142 10.2815C18.1655 10.2852 18.2169 10.2788 18.2657 10.2627C18.3145 10.2466 18.3596 10.221 18.3985 10.1874C18.4374 10.1538 18.4693 10.1129 18.4924 10.067L18.7815 9.50058C18.8743 9.51952 18.9699 9.51952 19.0627 9.50058L19.3557 10.0826C19.4023 10.1753 19.4839 10.2457 19.5824 10.2783C19.6809 10.3109 19.7884 10.3031 19.8811 10.2564C19.9738 10.2098 20.0442 10.1283 20.0768 10.0297C20.1094 9.93121 20.1015 9.82377 20.0549 9.73104L19.7659 9.15683C19.9047 9.01575 20.0055 8.84182 20.0589 8.65126C20.1123 8.4607 20.1166 8.25971 20.0714 8.06704C20.0261 7.87437 19.9328 7.6963 19.8002 7.54943C19.6675 7.40257 19.4998 7.29169 19.3127 7.22714V5.85214L22.1838 4.78964C22.2613 4.76158 22.3279 4.70976 22.3741 4.64159C22.4203 4.57341 22.4438 4.49237 22.4412 4.41005C22.4386 4.32772 22.41 4.24832 22.3596 4.1832C22.3092 4.11808 22.2394 4.07057 22.1604 4.04745L22.1565 4.03183ZM6.03148 12.6256C5.92788 12.6256 5.82853 12.5844 5.75527 12.5112C5.68201 12.4379 5.64086 12.3386 5.64086 12.235C5.64086 12.1314 5.68201 12.032 5.75527 11.9587C5.82853 11.8855 5.92788 11.8443 6.03148 11.8443V12.6256ZM16.1877 12.6256C16.1877 13.8688 15.6939 15.0611 14.8148 15.9401C13.9357 16.8192 12.7434 17.3131 11.5002 17.3131C10.257 17.3131 9.06475 16.8192 8.18567 15.9401C7.30659 15.0611 6.81273 13.8688 6.81273 12.6256V12.2037C8.21295 13.0971 9.8393 13.5717 11.5002 13.5717C13.1612 13.5717 14.7875 13.0971 16.1877 12.2037V12.6256ZM16.1877 11.2584C14.8275 12.2538 13.1858 12.7903 11.5002 12.7903C9.81471 12.7903 8.17295 12.2538 6.81273 11.2584V11.0318C8.21295 11.9252 9.8393 12.3998 11.5002 12.3998C13.1612 12.3998 14.7875 11.9252 16.1877 11.0318V11.2584ZM16.1877 10.0865C14.8275 11.0819 13.1858 11.6184 11.5002 11.6184C9.81471 11.6184 8.17295 11.0819 6.81273 10.0865V7.00839L11.3635 8.69589C11.4517 8.72883 11.5488 8.72883 11.637 8.69589L16.1877 7.00839V10.0865ZM17.3596 12.235C17.3596 12.3386 17.3185 12.4379 17.2452 12.5112C17.1719 12.5844 17.0726 12.6256 16.969 12.6256V11.8443C17.0726 11.8443 17.1719 11.8855 17.2452 11.9587C17.3185 12.032 17.3596 12.1314 17.3596 12.235ZM18.9221 8.71933C18.8449 8.71933 18.7693 8.69642 18.7051 8.65349C18.6409 8.61057 18.5908 8.54956 18.5612 8.47819C18.5317 8.40681 18.5239 8.32827 18.539 8.25249C18.5541 8.17672 18.5913 8.10712 18.6459 8.05249C18.7005 7.99786 18.7701 7.96065 18.8459 7.94558C18.9217 7.93051 19.0002 7.93824 19.0716 7.96781C19.143 7.99738 19.204 8.04744 19.2469 8.11168C19.2898 8.17592 19.3127 8.25144 19.3127 8.3287C19.3127 8.4323 19.2716 8.53166 19.1983 8.60491C19.1251 8.67817 19.0257 8.71933 18.9221 8.71933ZM18.8557 5.2037L11.5627 4.03183C11.4591 4.01577 11.3534 4.04152 11.2688 4.10342C11.1842 4.16533 11.1276 4.2583 11.1116 4.3619C11.0955 4.4655 11.1213 4.57124 11.1832 4.65585C11.2451 4.74046 11.338 4.79702 11.4416 4.81308L17.3596 5.74276L11.5002 7.91073L2.18773 4.46542L11.5002 1.68808L20.8127 4.44589L18.8557 5.2037Z" fill="#35353F"/>
</svg>
