<svg width="20" height="24" viewBox="0 0 20 24" fill="none" xmlns="http://www.w3.org/2000/svg">
<path d="M19 0.375H4.75C4.65054 0.375 4.55516 0.414509 4.48483 0.484835C4.41451 0.555161 4.375 0.650544 4.375 0.75V2.25H2.875C2.77554 2.25 2.68016 2.28951 2.60984 2.35984C2.53951 2.43016 2.5 2.52554 2.5 2.625V4.125H1C0.900544 4.125 0.805161 4.16451 0.734835 4.23484C0.664509 4.30516 0.625 4.40054 0.625 4.5V23.25C0.625 23.3495 0.664509 23.4448 0.734835 23.5152C0.805161 23.5855 0.900544 23.625 1 23.625H15.25C15.3495 23.625 15.4448 23.5855 15.5152 23.5152C15.5855 23.4448 15.625 23.3495 15.625 23.25V21.75H17.125C17.2245 21.75 17.3198 21.7105 17.3902 21.6402C17.4605 21.5698 17.5 21.4745 17.5 21.375V19.875H19C19.0995 19.875 19.1948 19.8355 19.2652 19.7652C19.3355 19.6948 19.375 19.5995 19.375 19.5V0.75C19.375 0.650544 19.3355 0.555161 19.2652 0.484835C19.1948 0.414509 19.0995 0.375 19 0.375ZM14.875 22.875H1.375V4.875H14.875V22.875ZM16.75 21H15.625V4.5C15.625 4.40054 15.5855 4.30516 15.5152 4.23484C15.4448 4.16451 15.3495 4.125 15.25 4.125H3.25V3H16.75V21ZM18.625 19.125H17.5V2.625C17.5 2.52554 17.4605 2.43016 17.3902 2.35984C17.3198 2.28951 17.2245 2.25 17.125 2.25H5.125V1.125H18.625V19.125Z" fill="#35353F"/>
</svg>
