<svg width="21" height="23" viewBox="0 0 21 23" fill="none" xmlns="http://www.w3.org/2000/svg">
<path d="M6.125 7.4575H6.4C6.55311 8.43492 7.05037 9.32548 7.80212 9.96864C8.55387 10.6118 9.51066 10.9652 10.5 10.9652C11.4893 10.9652 12.4461 10.6118 13.1979 9.96864C13.9496 9.32548 14.4469 8.43492 14.6 7.4575H14.875C15.1345 7.4575 15.3834 7.3546 15.5671 7.17135C15.7508 6.9881 15.8543 6.73948 15.855 6.48V5.5C15.855 5.36739 15.8023 5.24022 15.7086 5.14645C15.6148 5.05268 15.4876 5 15.355 5H14.6575V3C14.6585 2.64764 14.59 2.29854 14.4559 1.97268C14.3218 1.64683 14.1248 1.35061 13.8761 1.10099C13.6274 0.851365 13.3319 0.653235 13.0066 0.517936C12.6812 0.382638 12.3324 0.312827 11.98 0.3125H9.02C8.66775 0.312826 8.31903 0.382655 7.99382 0.517984C7.6686 0.653313 7.37329 0.851483 7.12479 1.10114C6.8763 1.3508 6.67951 1.64703 6.5457 1.97287C6.41189 2.29871 6.34368 2.64776 6.345 3V5H5.645C5.51239 5 5.38521 5.05268 5.29145 5.14645C5.19768 5.24022 5.145 5.36739 5.145 5.5V6.48C5.14566 6.73948 5.2492 6.9881 5.43292 7.17135C5.61663 7.3546 5.86552 7.4575 6.125 7.4575ZM10.5 10.47C9.53081 10.468 8.60192 10.082 7.91683 9.3964C7.23175 8.71084 6.84632 7.78169 6.845 6.8125V5.1C6.9375 4.9025 7.4725 3.9375 8.9375 3.9375C9.95716 3.94567 10.9592 3.67137 11.8325 3.145C12.4717 3.82932 13.2705 4.34467 14.1575 4.645V6.8075C14.1568 7.77779 13.7714 8.70822 13.0858 9.39478C12.4002 10.0813 11.4703 10.468 10.5 10.47ZM15.355 5.5V6.48C15.3543 6.60687 15.3035 6.72832 15.2135 6.8178C15.1236 6.90727 15.0019 6.9575 14.875 6.9575H14.6575V5.5H15.355ZM6.855 3C6.855 2.42292 7.08407 1.86945 7.49189 1.46116C7.89971 1.05287 8.45292 0.823163 9.03 0.8225H11.98C12.5573 0.823162 13.1108 1.05279 13.519 1.46101C13.9272 1.86922 14.1568 2.42269 14.1575 3V4.125C13.3516 3.81495 12.6346 3.3109 12.07 2.6575C12.0292 2.60633 11.9699 2.57322 11.9049 2.56527C11.84 2.55732 11.7745 2.57518 11.7225 2.615C10.899 3.16513 9.92774 3.45198 8.9375 3.4375C8.55155 3.42141 8.16644 3.48528 7.80635 3.6251C7.44626 3.76492 7.11896 3.97767 6.845 4.25L6.855 3ZM5.655 5.5H6.355V6.9575H6.125C5.99813 6.9575 5.87642 6.90727 5.78647 6.8178C5.69652 6.72832 5.64566 6.60687 5.645 6.48L5.655 5.5ZM1.125 21.87H7.3025C7.46275 21.8707 7.61626 21.9346 7.72957 22.0479C7.84289 22.1612 7.90684 22.3147 7.9075 22.475C7.9075 22.5413 7.93384 22.6049 7.98072 22.6518C8.02761 22.6987 8.0912 22.725 8.1575 22.725H12.845C12.9113 22.725 12.9749 22.6987 13.0218 22.6518C13.0687 22.6049 13.095 22.5413 13.095 22.475C13.095 22.315 13.1584 22.1615 13.2713 22.0481C13.3842 21.9347 13.5375 21.8707 13.6975 21.87H19.875C19.9413 21.87 20.0049 21.8437 20.0518 21.7968C20.0987 21.7499 20.125 21.6863 20.125 21.62V20.62C20.125 20.5537 20.0987 20.4901 20.0518 20.4432C20.0049 20.3963 19.9413 20.37 19.875 20.37H19.3325C19.3363 20.3293 19.3363 20.2882 19.3325 20.2475V19.4325C19.3318 19.268 19.2664 19.1105 19.1503 18.9939C19.0343 18.8774 18.877 18.8113 18.7125 18.81H18.55V16.6575C18.5481 15.4358 18.0636 14.2643 17.202 13.3981C16.3405 12.5319 15.1717 12.0411 13.95 12.0325H12.45C12.4133 12.0324 12.377 12.0405 12.3437 12.056C12.3104 12.0716 12.281 12.0943 12.2575 12.1225L10.5075 14.235L8.7575 12.1225C8.73399 12.0943 8.70456 12.0716 8.67129 12.056C8.63802 12.0405 8.60173 12.0324 8.565 12.0325H7.04C5.82114 12.0456 4.65651 12.5384 3.79835 13.4041C2.94018 14.2697 2.45756 15.4386 2.455 16.6575V18.81H2.295C2.13054 18.8113 1.97323 18.8774 1.85717 18.9939C1.7411 19.1105 1.67565 19.268 1.675 19.4325V20.25C1.67119 20.2907 1.67119 20.3318 1.675 20.3725H1.125C1.0587 20.3725 0.995107 20.3988 0.948223 20.4457C0.901339 20.4926 0.875 20.5562 0.875 20.6225V21.6225C0.875659 21.6884 0.902289 21.7513 0.949101 21.7977C0.995914 21.844 1.05913 21.87 1.125 21.87ZM12.57 12.5325H13.6525L12.935 15.795L10.88 14.56L12.57 12.5325ZM10.12 14.56L8.065 15.795L7.3475 12.5325H8.43L10.12 14.56ZM2.9375 16.6575C2.94033 15.6032 3.346 14.5899 4.07147 13.8249C4.79694 13.0599 5.78736 12.6012 6.84 12.5425L7.65 16.25C7.65826 16.289 7.67574 16.3255 7.70096 16.3563C7.72618 16.3872 7.75843 16.4116 7.795 16.4275C7.82686 16.4401 7.86074 16.4469 7.895 16.4475C7.93987 16.4475 7.98391 16.4354 8.0225 16.4125L10.5 14.9175L12.9775 16.4025C13.0161 16.4254 13.0601 16.4375 13.105 16.4375C13.1393 16.4369 13.1731 16.4301 13.205 16.4175C13.2404 16.4026 13.2719 16.3797 13.2971 16.3507C13.3222 16.3216 13.3403 16.2872 13.35 16.25L14.16 12.5525C15.2109 12.6111 16.1999 13.0684 16.9251 13.8313C17.6503 14.5941 18.0571 15.605 18.0625 16.6575V18.81L12.0925 18.7875C11.8514 18.7867 11.6126 18.8338 11.3898 18.9261C11.1671 19.0183 10.9649 19.1539 10.795 19.325C10.6806 19.4356 10.5814 19.5608 10.5 19.6975C10.4201 19.5611 10.3226 19.4359 10.21 19.325C10.0401 19.1539 9.83792 19.0183 9.61518 18.9261C9.39244 18.8338 9.15359 18.7867 8.9125 18.7875L2.9425 18.81L2.9375 16.6575ZM2.1575 20.25V19.4325C2.15814 19.4002 2.17125 19.3694 2.19409 19.3466C2.21692 19.3238 2.24771 19.3106 2.28 19.31L8.9075 19.2875C9.08366 19.2865 9.25826 19.3204 9.42126 19.3872C9.58426 19.454 9.73243 19.5524 9.85723 19.6767C9.98202 19.8011 10.081 19.9489 10.1484 20.1116C10.2158 20.2744 10.2503 20.4488 10.25 20.625C10.25 20.6913 10.2763 20.7549 10.3232 20.8018C10.3701 20.8487 10.4337 20.875 10.5 20.875C10.5663 20.875 10.6299 20.8487 10.6768 20.8018C10.7237 20.7549 10.75 20.6913 10.75 20.625C10.7497 20.4493 10.784 20.2752 10.8511 20.1128C10.9182 19.9504 11.0167 19.8028 11.141 19.6785C11.2653 19.5542 11.4129 19.4557 11.5753 19.3886C11.7377 19.3215 11.9118 19.2872 12.0875 19.2875L18.7175 19.31C18.7498 19.3106 18.7806 19.3238 18.8034 19.3466C18.8263 19.3694 18.8394 19.4002 18.84 19.4325V20.25C18.84 20.2825 18.8271 20.3137 18.8041 20.3366C18.7811 20.3596 18.75 20.3725 18.7175 20.3725H12.8425C12.6128 20.3728 12.3897 20.4496 12.2086 20.5909C12.0275 20.7321 11.8987 20.9298 11.8425 21.1525H9.1575C9.10133 20.9298 8.97249 20.7321 8.79137 20.5909C8.61025 20.4496 8.3872 20.3728 8.1575 20.3725H2.28C2.24751 20.3725 2.21635 20.3596 2.19338 20.3366C2.17041 20.3137 2.1575 20.2825 2.1575 20.25ZM1.375 20.875H8.1575C8.2271 20.875 8.29602 20.8887 8.36032 20.9153C8.42462 20.942 8.48305 20.981 8.53227 21.0302C8.58148 21.0795 8.62052 21.1379 8.64716 21.2022C8.67379 21.2665 8.6875 21.3354 8.6875 21.405C8.6875 21.4713 8.71384 21.5349 8.76072 21.5818C8.80761 21.6287 8.8712 21.655 8.9375 21.655H12.0625C12.1288 21.655 12.1924 21.6287 12.2393 21.5818C12.2862 21.5349 12.3125 21.4713 12.3125 21.405C12.3125 21.3354 12.3262 21.2665 12.3528 21.2022C12.3795 21.1379 12.4185 21.0795 12.4677 21.0302C12.5169 20.981 12.5754 20.942 12.6397 20.9153C12.704 20.8887 12.7729 20.875 12.8425 20.875H19.625V21.375H13.6975C13.4482 21.3758 13.2065 21.4606 13.0114 21.6157C12.8164 21.7709 12.6793 21.9873 12.6225 22.23H8.3725C8.31517 21.9871 8.17765 21.7706 7.98215 21.6155C7.78665 21.4604 7.54457 21.3756 7.295 21.375H1.375V20.875Z" fill="black"/>
</svg>
