<svg width="68" height="68" viewBox="0 0 68 68" fill="none" xmlns="http://www.w3.org/2000/svg">
<path d="M35.0625 6.375H32.9375V8.5H35.0625V6.375Z" fill="#31337C" fill-opacity="0.92"/>
<path d="M23.4831 10.2923L21.9805 11.7949L23.4831 13.2975L24.9857 11.7949L23.4831 10.2923Z" fill="#31337C" fill-opacity="0.92"/>
<path d="M20.1875 21.25H18.0625V23.375H20.1875V21.25Z" fill="#31337C" fill-opacity="0.92"/>
<path d="M23.4821 31.3285L21.9795 32.8311L23.4821 34.3337L24.9847 32.8311L23.4821 31.3285Z" fill="#31337C" fill-opacity="0.92"/>
<path d="M44.5187 31.3285L43.0161 32.8311L44.5187 34.3337L46.0213 32.8311L44.5187 31.3285Z" fill="#31337C" fill-opacity="0.92"/>
<path d="M49.9375 21.25H47.8125V23.375H49.9375V21.25Z" fill="#31337C" fill-opacity="0.92"/>
<path d="M44.5197 10.2923L43.0171 11.7949L44.5197 13.2975L46.0223 11.7949L44.5197 10.2923Z" fill="#31337C" fill-opacity="0.92"/>
<path d="M30.8125 31.3213V25.9397L27.9363 23.0635L29.4387 21.5611L32.6262 24.7486C32.8255 24.9479 32.9375 25.2181 32.9375 25.4998V31.8748H35.0625V25.4998C35.0626 25.2181 35.1746 24.9479 35.3738 24.7486L38.5613 21.5611L40.0637 23.0635L37.1875 25.9397V31.3213C39.3143 30.5694 41.1067 29.0898 42.2481 27.1441C43.3895 25.1984 43.8063 22.9119 43.4248 20.6886C43.0434 18.4654 41.8882 16.4485 40.1636 14.9946C38.4389 13.5406 36.2558 12.7432 34 12.7432C31.7443 12.7432 29.5611 13.5406 27.8365 14.9946C26.1118 16.4485 24.9567 18.4654 24.5752 20.6886C24.1938 22.9119 24.6106 25.1984 25.7519 27.1441C26.8933 29.0898 28.6858 30.5694 30.8125 31.3213Z" fill="#31337C" fill-opacity="0.92"/>
<path d="M35.0625 34H32.9375V35.0625H35.0625V34Z" fill="#31337C" fill-opacity="0.92"/>
<path d="M36.125 37.1875H31.875V39.3125H36.125V37.1875Z" fill="#31337C" fill-opacity="0.92"/>
<path d="M63.75 58.4375H4.25V60.5625H63.75V58.4375Z" fill="#31337C" fill-opacity="0.92"/>
<path d="M45.6875 51H62.6875V48.875H45.5908L40.0807 49.3765L45.8299 47.8125H62.6875V45.6875H45.6875C45.5931 45.6876 45.4992 45.7001 45.4081 45.7247L34 48.8368L22.5919 45.7247C22.5008 45.7001 22.4069 45.6876 22.3125 45.6875H5.3125V47.8125H22.1701L27.9321 49.3839L22.3125 48.875H5.3125V51H22.2158L33.9033 52.0625C33.9352 52.0625 33.9681 52.0625 34 52.0625C34.0319 52.0625 34.0648 52.0625 34.0967 52.0625L45.6875 51Z" fill="#31337C" fill-opacity="0.92"/>
<path d="M62.6875 54.1875V52.0625H34H5.3125V54.1875H34H62.6875Z" fill="#31337C" fill-opacity="0.92"/>
</svg>
