<svg width="40" height="35" viewBox="0 0 40 35" fill="none" xmlns="http://www.w3.org/2000/svg">
<path d="M20.625 3.22461H19.375V4.29939H20.625V3.22461Z" fill="#9697B9"/>
<path d="M13.8126 5.20486L12.9287 5.96484L13.8126 6.72483L14.6965 5.96484L13.8126 5.20486Z" fill="#9697B9"/>
<path d="M11.876 10.748H10.626V11.8228H11.876V10.748Z" fill="#9697B9"/>
<path d="M13.8126 15.8445L12.9287 16.6045L13.8126 17.3645L14.6965 16.6045L13.8126 15.8445Z" fill="#9697B9"/>
<path d="M26.1876 15.8445L25.3037 16.6045L26.1876 17.3645L27.0715 16.6045L26.1876 15.8445Z" fill="#9697B9"/>
<path d="M29.375 10.748H28.125V11.8228H29.375V10.748Z" fill="#9697B9"/>
<path d="M26.1876 5.20486L25.3037 5.96484L26.1876 6.72483L27.0715 5.96484L26.1876 5.20486Z" fill="#9697B9"/>
<path d="M18.1255 15.8408V13.1189L16.4336 11.6642L17.3174 10.9043L19.1924 12.5165C19.3096 12.6172 19.3755 12.7539 19.3755 12.8964V16.1208H20.6255V12.8964C20.6255 12.7539 20.6914 12.6172 20.8086 12.5165L22.6836 10.9043L23.5674 11.6642L21.8755 13.1189V15.8408C23.1265 15.4605 24.1809 14.7122 24.8523 13.7281C25.5237 12.744 25.7689 11.5875 25.5445 10.463C25.3201 9.33851 24.6406 8.31843 23.6261 7.58305C22.6116 6.84767 21.3274 6.44434 20.0005 6.44434C18.6736 6.44434 17.3894 6.84767 16.3749 7.58305C15.3604 8.31843 14.6809 9.33851 14.4565 10.463C14.2321 11.5875 14.4773 12.744 15.1487 13.7281C15.8201 14.7122 16.8745 15.4605 18.1255 15.8408Z" fill="#9697B9"/>
<path d="M20.625 17.1963H19.375V17.7337H20.625V17.1963Z" fill="#9697B9"/>
<path d="M21.251 18.8086H18.751V19.8834H21.251V18.8086Z" fill="#9697B9"/>
<path d="M37.501 29.5566H2.50098V30.6314H37.501V29.5566Z" fill="#9697B9"/>
<path d="M26.876 25.7944H36.876V24.7196H26.8191L23.5779 24.9732L26.9597 24.1822H36.876V23.1074H26.876C26.8205 23.1074 26.7652 23.1138 26.7116 23.1262L20.001 24.7003L13.2904 23.1262C13.2368 23.1138 13.1815 23.1074 13.126 23.1074H3.12598V24.1822H13.0422L16.4316 24.977L13.126 24.7196H3.12598V25.7944H13.0691L19.9441 26.3318C19.9629 26.3318 19.9822 26.3318 20.001 26.3318C20.0197 26.3318 20.0391 26.3318 20.0579 26.3318L26.876 25.7944Z" fill="#9697B9"/>
<path d="M36.876 27.4068V26.332H20.001H3.12598V27.4068H20.001H36.876Z" fill="#9697B9"/>
</svg>
