<svg width="100" height="100" viewBox="0 0 100 100" fill="none" xmlns="http://www.w3.org/2000/svg">
<path d="M86.2832 67.6176L78.7659 63.7935L53.128 76.8279C51.1625 77.8279 48.8418 77.8279 46.8763 76.8279L21.2383 63.7935L13.7211 67.6176C13.1536 67.906 12.677 68.3458 12.3441 68.8884C12.0112 69.431 11.835 70.0552 11.835 70.6917C11.835 71.3283 12.0112 71.9525 12.3441 72.4951C12.677 73.0376 13.1536 73.4775 13.7211 73.7659L46.8763 90.6245C48.8418 91.6245 51.1625 91.6245 53.128 90.6245L86.2832 73.7659C86.8507 73.4775 87.3273 73.0376 87.6602 72.4951C87.9931 71.9525 88.1693 71.3283 88.1693 70.6917C88.1693 70.0552 87.9931 69.431 87.6602 68.8884C87.3273 68.3458 86.8507 67.906 86.2832 67.6176Z" fill="#020560"/>
<path d="M86.2832 46.9277L78.7659 43.1035L53.128 56.138C51.1625 57.138 48.8418 57.138 46.8763 56.138L21.2383 43.1035L13.7211 46.9277C13.1536 47.216 12.677 47.6559 12.3441 48.1985C12.0112 48.7411 11.835 49.3652 11.835 50.0018C11.835 50.6384 12.0112 51.2625 12.3441 51.8051C12.677 52.3477 13.1536 52.7875 13.7211 53.0759L46.8763 69.9345C48.8418 70.9345 51.1625 70.9345 53.128 69.9345L86.2832 53.0759C86.8507 52.7875 87.3273 52.3477 87.6602 51.8051C87.9931 51.2625 88.1693 50.6384 88.1693 50.0018C88.1693 49.3652 87.9931 48.7411 87.6602 48.1985C87.3273 47.6559 86.8507 47.216 86.2832 46.9277Z" fill="#020560"/>
<path d="M46.8763 9.37879L13.7177 26.2374C13.1502 26.5258 12.6736 26.9656 12.3407 27.5082C12.0078 28.0508 11.8315 28.675 11.8315 29.3116C11.8315 29.9481 12.0078 30.5723 12.3407 31.1149C12.6736 31.6575 13.1502 32.0973 13.7177 32.3857L46.8729 49.2443C48.8384 50.2443 51.1591 50.2443 53.1246 49.2443L86.2797 32.3857C86.8473 32.0973 87.3239 31.6575 87.6568 31.1149C87.9897 30.5723 88.1659 29.9481 88.1659 29.3116C88.1659 28.675 87.9897 28.0508 87.6568 27.5082C87.3239 26.9656 86.8473 26.5258 86.2797 26.2374L53.1246 9.37879C52.1569 8.88587 51.0864 8.62891 50.0004 8.62891C48.9145 8.62891 47.8439 8.88587 46.8763 9.37879Z" fill="#020560"/>
</svg>
