<svg width="26" height="26" viewBox="0 0 26 26" fill="none" xmlns="http://www.w3.org/2000/svg">
<g clip-path="url(#clip0_2061_8018)">
<path d="M5.07822 6.95821H3.00098V21.4989C3.00098 22.6414 3.93574 23.5762 5.07822 23.5762H19.619V21.4989H5.07822V6.95821ZM21.6962 2.80371H9.23272C8.09023 2.80371 7.15547 3.73847 7.15547 4.88096V17.3444C7.15547 18.4869 8.09023 19.4217 9.23272 19.4217H21.6962C22.8387 19.4217 23.7735 18.4869 23.7735 17.3444V4.88096C23.7735 3.73847 22.8387 2.80371 21.6962 2.80371ZM21.6962 17.3444H9.23272V4.88096H21.6962V17.3444ZM11.31 10.0741H19.619V12.1513H11.31V10.0741ZM11.31 13.1899H15.4645V15.2672H11.31V13.1899ZM11.31 6.95821H19.619V9.03545H11.31V6.95821Z" fill="#9193B9"/>
</g>
<defs>
<clipPath id="clip0_2061_8018">
<rect width="24.927" height="24.927" fill="white" transform="translate(0.923828 0.726562)"/>
</clipPath>
</defs>
</svg>
