<svg width="48" height="48" viewBox="0 0 48 48" fill="none" xmlns="http://www.w3.org/2000/svg">
<path d="M2.13459 42H27.5294C28.6969 42 29.6471 40.9905 29.6471 39.75V11.25C29.6471 11.2155 29.6329 11.1855 29.6287 11.1525C29.6248 11.1211 29.6186 11.09 29.6104 11.0595C29.5827 10.9317 29.5232 10.8141 29.4381 10.719L19.5572 0.2205C19.4452 0.108118 19.3021 0.0371024 19.1492 0.018C19.1195 0.015 19.0913 0 19.0588 0H2.12612C0.954353 0 0 1.0095 0 2.25V39.75C0 40.9905 0.957176 42 2.13459 42ZM19.7647 2.5605L27.2372 10.5H20.4706C20.2834 10.5 20.1038 10.421 19.9715 10.2803C19.8391 10.1397 19.7647 9.94891 19.7647 9.75V2.5605ZM1.41176 2.25C1.41176 1.836 1.73224 1.5 2.12612 1.5H18.3529V9.75C18.3529 10.9905 19.3031 12 20.4706 12H28.2353V39.75C28.2353 39.9489 28.1609 40.1397 28.0285 40.2803C27.8962 40.421 27.7166 40.5 27.5294 40.5H2.13459C2.04078 40.5012 1.94766 40.4827 1.86056 40.4457C1.77347 40.4086 1.69409 40.3537 1.62697 40.2841C1.55985 40.2144 1.50629 40.1314 1.46937 40.0398C1.43244 39.9481 1.41287 39.8497 1.41176 39.75V2.25Z" fill="#31337C"/>
<path d="M6.35286 18H23.294C23.4812 18 23.6608 17.921 23.7932 17.7803C23.9255 17.6397 23.9999 17.4489 23.9999 17.25C23.9999 17.0511 23.9255 16.8603 23.7932 16.7197C23.6608 16.579 23.4812 16.5 23.294 16.5H6.35286C6.16564 16.5 5.9861 16.579 5.85372 16.7197C5.72134 16.8603 5.64697 17.0511 5.64697 17.25C5.64697 17.4489 5.72134 17.6397 5.85372 17.7803C5.9861 17.921 6.16564 18 6.35286 18Z" fill="#31337C"/>
<path d="M6.35286 24H23.294C23.4812 24 23.6608 23.921 23.7932 23.7803C23.9255 23.6397 23.9999 23.4489 23.9999 23.25C23.9999 23.0511 23.9255 22.8603 23.7932 22.7197C23.6608 22.579 23.4812 22.5 23.294 22.5H6.35286C6.16564 22.5 5.9861 22.579 5.85372 22.7197C5.72134 22.8603 5.64697 23.0511 5.64697 23.25C5.64697 23.4489 5.72134 23.6397 5.85372 23.7803C5.9861 23.921 6.16564 24 6.35286 24Z" fill="#31337C"/>
<path d="M6.35285 12H13.4117C13.5989 12 13.7784 11.921 13.9108 11.7803C14.0432 11.6397 14.1176 11.4489 14.1176 11.25C14.1176 11.0511 14.0432 10.8603 13.9108 10.7197C13.7784 10.579 13.5989 10.5 13.4117 10.5H6.35285C6.16564 10.5 5.9861 10.579 5.85372 10.7197C5.72134 10.8603 5.64697 11.0511 5.64697 11.25C5.64697 11.4489 5.72134 11.6397 5.85372 11.7803C5.9861 11.921 6.16564 12 6.35285 12Z" fill="#31337C"/>
<path d="M6.35286 30H23.294C23.4812 30 23.6608 29.921 23.7932 29.7803C23.9255 29.6397 23.9999 29.4489 23.9999 29.25C23.9999 29.0511 23.9255 28.8603 23.7932 28.7197C23.6608 28.579 23.4812 28.5 23.294 28.5H6.35286C6.16564 28.5 5.9861 28.579 5.85372 28.7197C5.72134 28.8603 5.64697 29.0511 5.64697 29.25C5.64697 29.4489 5.72134 29.6397 5.85372 29.7803C5.9861 29.921 6.16564 30 6.35286 30Z" fill="#31337C"/>
<path d="M6.35286 36H23.294C23.4812 36 23.6608 35.921 23.7932 35.7803C23.9255 35.6397 23.9999 35.4489 23.9999 35.25C23.9999 35.0511 23.9255 34.8603 23.7932 34.7197C23.6608 34.579 23.4812 34.5 23.294 34.5H6.35286C6.16564 34.5 5.9861 34.579 5.85372 34.7197C5.72134 34.8603 5.64697 35.0511 5.64697 35.25C5.64697 35.4489 5.72134 35.6397 5.85372 35.7803C5.9861 35.921 6.16564 36 6.35286 36Z" fill="#31337C"/>
<path d="M30.353 7.5H36.706V15.75C36.706 16.9905 37.6561 18 38.8236 18H46.5883V45.75C46.5883 45.9489 46.514 46.1397 46.3816 46.2803C46.2492 46.421 46.0697 46.5 45.8824 46.5H20.4876C20.3938 46.5012 20.3007 46.4827 20.2136 46.4457C20.1265 46.4086 20.0471 46.3537 19.98 46.2841C19.9129 46.2144 19.8593 46.1314 19.8224 46.0398C19.7855 45.9481 19.7659 45.8497 19.7648 45.75V44.25C19.7648 44.0511 19.6904 43.8603 19.558 43.7197C19.4257 43.579 19.2461 43.5 19.0589 43.5C18.8717 43.5 18.6922 43.579 18.5598 43.7197C18.4274 43.8603 18.353 44.0511 18.353 44.25V45.75C18.353 46.9905 19.3102 48 20.4876 48H45.8824C47.05 48 48.0001 46.9905 48.0001 45.75V17.25C48.0001 17.2155 47.986 17.1855 47.9817 17.1525C47.9778 17.1211 47.9717 17.09 47.9634 17.0595C47.9357 16.9317 47.8762 16.8141 47.7911 16.719L37.9102 6.2205C37.799 6.10718 37.6554 6.03646 37.5022 6.0195C37.4726 6.015 37.4443 6 37.4119 6H30.353C30.1658 6 29.9863 6.07902 29.8539 6.21967C29.7215 6.36032 29.6471 6.55109 29.6471 6.75C29.6471 6.94891 29.7215 7.13968 29.8539 7.28033C29.9863 7.42098 30.1658 7.5 30.353 7.5ZM38.8236 16.5C38.6364 16.5 38.4569 16.421 38.3245 16.2803C38.1921 16.1397 38.1177 15.9489 38.1177 15.75V8.5605L45.5902 16.5H38.8236Z" fill="#31337C"/>
<path d="M33.1766 24H41.6472C41.8344 24 42.0139 23.921 42.1463 23.7803C42.2787 23.6397 42.3531 23.4489 42.3531 23.25C42.3531 23.0511 42.2787 22.8603 42.1463 22.7197C42.0139 22.579 41.8344 22.5 41.6472 22.5H33.1766C32.9894 22.5 32.8098 22.579 32.6775 22.7197C32.5451 22.8603 32.4707 23.0511 32.4707 23.25C32.4707 23.4489 32.5451 23.6397 32.6775 23.7803C32.8098 23.921 32.9894 24 33.1766 24Z" fill="#31337C"/>
<path d="M33.1766 30H41.6472C41.8344 30 42.0139 29.921 42.1463 29.7803C42.2787 29.6397 42.3531 29.4489 42.3531 29.25C42.3531 29.0511 42.2787 28.8603 42.1463 28.7197C42.0139 28.579 41.8344 28.5 41.6472 28.5H33.1766C32.9894 28.5 32.8098 28.579 32.6775 28.7197C32.5451 28.8603 32.4707 29.0511 32.4707 29.25C32.4707 29.4489 32.5451 29.6397 32.6775 29.7803C32.8098 29.921 32.9894 30 33.1766 30Z" fill="#31337C"/>
<path d="M33.1766 36H41.6472C41.8344 36 42.0139 35.921 42.1463 35.7803C42.2787 35.6397 42.3531 35.4489 42.3531 35.25C42.3531 35.0511 42.2787 34.8603 42.1463 34.7197C42.0139 34.579 41.8344 34.5 41.6472 34.5H33.1766C32.9894 34.5 32.8098 34.579 32.6775 34.7197C32.5451 34.8603 32.4707 35.0511 32.4707 35.25C32.4707 35.4489 32.5451 35.6397 32.6775 35.7803C32.8098 35.921 32.9894 36 33.1766 36Z" fill="#31337C"/>
<path d="M33.1766 42H41.6472C41.8344 42 42.0139 41.921 42.1463 41.7803C42.2787 41.6397 42.3531 41.4489 42.3531 41.25C42.3531 41.0511 42.2787 40.8603 42.1463 40.7197C42.0139 40.579 41.8344 40.5 41.6472 40.5H33.1766C32.9894 40.5 32.8098 40.579 32.6775 40.7197C32.5451 40.8603 32.4707 41.0511 32.4707 41.25C32.4707 41.4489 32.5451 41.6397 32.6775 41.7803C32.8098 41.921 32.9894 42 33.1766 42Z" fill="#31337C"/>
</svg>
