<svg width="35" height="31" viewBox="0 0 35 31" fill="none" xmlns="http://www.w3.org/2000/svg">
<path d="M1.55598 26.3322H20.073C20.9244 26.3322 21.6172 25.6993 21.6172 24.9216V7.05327C21.6172 7.03164 21.6069 7.01283 21.6038 6.99214C21.6009 6.97243 21.5964 6.95294 21.5904 6.93384C21.5702 6.85368 21.5268 6.77995 21.4648 6.72036L14.26 0.138244C14.1783 0.0677856 14.074 0.0232616 13.9625 0.0112852C13.9408 0.00940436 13.9202 0 13.8966 0H1.54981C0.695394 0 -0.000488281 0.632913 -0.000488281 1.41065V24.9216C-0.000488281 25.6993 0.697453 26.3322 1.55598 26.3322ZM14.4113 1.60532L19.86 6.58305H14.926C14.7895 6.58305 14.6586 6.53351 14.562 6.44533C14.4655 6.35715 14.4113 6.23754 14.4113 6.11283V1.60532ZM1.02892 1.41065C1.02892 1.15109 1.2626 0.940436 1.54981 0.940436H13.3819V6.11283C13.3819 6.89057 14.0747 7.52349 14.926 7.52349H20.5877V24.9216C20.5877 25.0463 20.5335 25.1659 20.437 25.254C20.3405 25.3422 20.2096 25.3918 20.073 25.3918H1.55598C1.48758 25.3925 1.41968 25.3809 1.35617 25.3577C1.29266 25.3345 1.23479 25.3001 1.18584 25.2564C1.1369 25.2127 1.09785 25.1607 1.07093 25.1032C1.044 25.0458 1.02973 24.984 1.02892 24.9216V1.41065Z" fill="#9697B9"/>
<path d="M4.63092 11.2852H16.9839C17.1204 11.2852 17.2513 11.2356 17.3478 11.1474C17.4443 11.0593 17.4986 10.9397 17.4986 10.8149C17.4986 10.6902 17.4443 10.5706 17.3478 10.4824C17.2513 10.3943 17.1204 10.3447 16.9839 10.3447H4.63092C4.49441 10.3447 4.36349 10.3943 4.26696 10.4824C4.17044 10.5706 4.11621 10.6902 4.11621 10.8149C4.11621 10.9397 4.17044 11.0593 4.26696 11.1474C4.36349 11.2356 4.49441 11.2852 4.63092 11.2852Z" fill="#9697B9"/>
<path d="M4.63092 15.0469H16.9839C17.1204 15.0469 17.2513 14.9973 17.3478 14.9092C17.4443 14.821 17.4986 14.7014 17.4986 14.5767C17.4986 14.452 17.4443 14.3324 17.3478 14.2442C17.2513 14.156 17.1204 14.1064 16.9839 14.1064H4.63092C4.49441 14.1064 4.36349 14.156 4.26696 14.2442C4.17044 14.3324 4.11621 14.452 4.11621 14.5767C4.11621 14.7014 4.17044 14.821 4.26696 14.9092C4.36349 14.9973 4.49441 15.0469 4.63092 15.0469Z" fill="#9697B9"/>
<path d="M4.63092 7.52344H9.77798C9.91448 7.52344 10.0454 7.4739 10.1419 7.38572C10.2385 7.29754 10.2927 7.17794 10.2927 7.05323C10.2927 6.92852 10.2385 6.80891 10.1419 6.72073C10.0454 6.63255 9.91448 6.58301 9.77798 6.58301H4.63092C4.49441 6.58301 4.36349 6.63255 4.26696 6.72073C4.17044 6.80891 4.11621 6.92852 4.11621 7.05323C4.11621 7.17794 4.17044 7.29754 4.26696 7.38572C4.36349 7.4739 4.49441 7.52344 4.63092 7.52344Z" fill="#9697B9"/>
<path d="M4.63092 18.8086H16.9839C17.1204 18.8086 17.2513 18.7591 17.3478 18.6709C17.4443 18.5827 17.4986 18.4631 17.4986 18.3384C17.4986 18.2137 17.4443 18.0941 17.3478 18.0059C17.2513 17.9177 17.1204 17.8682 16.9839 17.8682H4.63092C4.49441 17.8682 4.36349 17.9177 4.26696 18.0059C4.17044 18.0941 4.11621 18.2137 4.11621 18.3384C4.11621 18.4631 4.17044 18.5827 4.26696 18.6709C4.36349 18.7591 4.49441 18.8086 4.63092 18.8086Z" fill="#9697B9"/>
<path d="M4.63092 22.5703H16.9839C17.1204 22.5703 17.2513 22.5208 17.3478 22.4326C17.4443 22.3444 17.4986 22.2248 17.4986 22.1001C17.4986 21.9754 17.4443 21.8558 17.3478 21.7676C17.2513 21.6794 17.1204 21.6299 16.9839 21.6299H4.63092C4.49441 21.6299 4.36349 21.6794 4.26696 21.7676C4.17044 21.8558 4.11621 21.9754 4.11621 22.1001C4.11621 22.2248 4.17044 22.3444 4.26696 22.4326C4.36349 22.5208 4.49441 22.5703 4.63092 22.5703Z" fill="#9697B9"/>
<path d="M22.1318 4.70215H26.7642V9.87455C26.7642 10.6523 27.457 11.2852 28.3083 11.2852H33.9701V28.6833C33.9701 28.808 33.9158 28.9276 33.8193 29.0158C33.7228 29.104 33.5919 29.1535 33.4554 29.1535H14.9383C14.8699 29.1542 14.802 29.1427 14.7385 29.1194C14.675 29.0962 14.6171 29.0618 14.5682 29.0181C14.5192 28.9744 14.4802 28.9224 14.4533 28.865C14.4263 28.8075 14.4121 28.7458 14.4112 28.6833V27.7428C14.4112 27.6181 14.357 27.4985 14.2605 27.4103C14.164 27.3222 14.0331 27.2726 13.8965 27.2726C13.76 27.2726 13.6291 27.3222 13.5326 27.4103C13.4361 27.4985 13.3818 27.6181 13.3818 27.7428V28.6833C13.3818 29.461 14.0798 30.0939 14.9383 30.0939H33.4554C34.3067 30.0939 34.9995 29.461 34.9995 28.6833V10.815C34.9995 10.7934 34.9892 10.7746 34.9861 10.7539C34.9832 10.7341 34.9788 10.7147 34.9727 10.6956C34.9525 10.6154 34.9092 10.5417 34.8471 10.4821L27.6423 3.89996C27.5612 3.82892 27.4565 3.78458 27.3448 3.77394C27.3232 3.77112 27.3026 3.76172 27.2789 3.76172H22.1318C21.9953 3.76172 21.8644 3.81126 21.7679 3.89944C21.6714 3.98763 21.6171 4.10723 21.6171 4.23194C21.6171 4.35665 21.6714 4.47625 21.7679 4.56443C21.8644 4.65261 21.9953 4.70215 22.1318 4.70215ZM28.3083 10.3448C28.1718 10.3448 28.0409 10.2952 27.9444 10.207C27.8478 10.1189 27.7936 9.99926 27.7936 9.87455V5.36704L33.2423 10.3448H28.3083Z" fill="#9697B9"/>
<path d="M24.1905 15.0469H30.367C30.5035 15.0469 30.6344 14.9973 30.7309 14.9092C30.8274 14.821 30.8817 14.7014 30.8817 14.5767C30.8817 14.452 30.8274 14.3324 30.7309 14.2442C30.6344 14.156 30.5035 14.1064 30.367 14.1064H24.1905C24.054 14.1064 23.9231 14.156 23.8265 14.2442C23.73 14.3324 23.6758 14.452 23.6758 14.5767C23.6758 14.7014 23.73 14.821 23.8265 14.9092C23.9231 14.9973 24.054 15.0469 24.1905 15.0469Z" fill="#9697B9"/>
<path d="M24.1905 18.8086H30.367C30.5035 18.8086 30.6344 18.7591 30.7309 18.6709C30.8274 18.5827 30.8817 18.4631 30.8817 18.3384C30.8817 18.2137 30.8274 18.0941 30.7309 18.0059C30.6344 17.9177 30.5035 17.8682 30.367 17.8682H24.1905C24.054 17.8682 23.9231 17.9177 23.8265 18.0059C23.73 18.0941 23.6758 18.2137 23.6758 18.3384C23.6758 18.4631 23.73 18.5827 23.8265 18.6709C23.9231 18.7591 24.054 18.8086 24.1905 18.8086Z" fill="#9697B9"/>
<path d="M24.1905 22.5703H30.367C30.5035 22.5703 30.6344 22.5208 30.7309 22.4326C30.8274 22.3444 30.8817 22.2248 30.8817 22.1001C30.8817 21.9754 30.8274 21.8558 30.7309 21.7676C30.6344 21.6794 30.5035 21.6299 30.367 21.6299H24.1905C24.054 21.6299 23.9231 21.6794 23.8265 21.7676C23.73 21.8558 23.6758 21.9754 23.6758 22.1001C23.6758 22.2248 23.73 22.3444 23.8265 22.4326C23.9231 22.5208 24.054 22.5703 24.1905 22.5703Z" fill="#9697B9"/>
<path d="M24.1905 26.332H30.367C30.5035 26.332 30.6344 26.2825 30.7309 26.1943C30.8274 26.1061 30.8817 25.9865 30.8817 25.8618C30.8817 25.7371 30.8274 25.6175 30.7309 25.5293C30.6344 25.4411 30.5035 25.3916 30.367 25.3916H24.1905C24.054 25.3916 23.9231 25.4411 23.8265 25.5293C23.73 25.6175 23.6758 25.7371 23.6758 25.8618C23.6758 25.9865 23.73 26.1061 23.8265 26.1943C23.9231 26.2825 24.054 26.332 24.1905 26.332Z" fill="#9697B9"/>
</svg>
