<svg width="24" height="24" viewBox="0 0 24 24" fill="none" xmlns="http://www.w3.org/2000/svg">
<path fill-rule="evenodd" clip-rule="evenodd" d="M7.49955 0.75C7.30137 0.750037 7.11125 0.828505 6.97074 0.968263L2.46924 5.46976C2.39978 5.5396 2.34475 5.62245 2.3073 5.71356C2.26985 5.80467 2.25071 5.90226 2.25098 6.00077V17.2509C2.25098 18.4844 3.26819 19.4987 4.50173 19.4987H15.7518C16.9853 19.4987 17.9989 18.4844 17.9989 17.2509V3.00002C17.9989 1.7665 16.9853 0.75 15.7518 0.75H7.49955ZM8.24956 2.25001H15.7518C16.1803 2.25001 16.5018 2.57156 16.5018 3.00002V17.2509C16.5018 17.6793 16.1803 18.0016 15.7518 18.0016H4.50173C4.07325 18.0016 3.75099 17.6793 3.75099 17.2509V6.75151H5.99881C7.23234 6.75151 8.24956 5.73429 8.24956 4.50076V2.25001ZM6.74881 3.3135V4.50076C6.74881 4.92923 6.42729 5.25076 5.99881 5.25076H4.81154L6.74881 3.3135ZM19.4996 3.75075C19.3998 3.74855 19.3004 3.76633 19.2075 3.80303C19.1146 3.83973 19.0299 3.89463 18.9585 3.96449C18.8871 4.03435 18.8304 4.11777 18.7916 4.20986C18.7529 4.30195 18.7329 4.40085 18.7329 4.50076C18.7329 4.60067 18.7529 4.69957 18.7916 4.79166C18.8304 4.88374 18.8871 4.96717 18.9585 5.03703C19.0299 5.10689 19.1146 5.16179 19.2075 5.19849C19.3004 5.23519 19.3998 5.25296 19.4996 5.25076C19.9281 5.25076 20.2496 5.57231 20.2496 6.00077V20.9994C20.2496 21.4279 19.9281 21.7494 19.4996 21.7494H7.49955C7.07108 21.7494 6.74881 21.4279 6.74881 20.9994C6.75538 20.8971 6.74089 20.7945 6.70625 20.698C6.6716 20.6014 6.61753 20.5131 6.54738 20.4383C6.47723 20.3635 6.39248 20.3038 6.29838 20.2631C6.20428 20.2223 6.10282 20.2013 6.00027 20.2013C5.89773 20.2013 5.79627 20.2223 5.70216 20.2631C5.60806 20.3038 5.52332 20.3635 5.45317 20.4383C5.38301 20.5131 5.32894 20.6014 5.2943 20.698C5.25965 20.7945 5.24517 20.8971 5.25173 20.9994C5.25173 22.2329 6.26601 23.2502 7.49955 23.2502H19.4996C20.7332 23.2502 21.7504 22.2329 21.7504 20.9994V6.00077C21.7504 4.76724 20.7332 3.75075 19.4996 3.75075ZM7.49955 9.74933C7.30355 9.75373 7.11706 9.83468 6.98 9.97486C6.84294 10.115 6.7662 10.3033 6.7662 10.4993C6.7662 10.6954 6.84294 10.8836 6.98 11.0238C7.11706 11.164 7.30355 11.2449 7.49955 11.2493H12.7511C12.851 11.2516 12.9503 11.2338 13.0433 11.1972C13.1362 11.1605 13.2209 11.1056 13.2924 11.0357C13.3638 10.9659 13.4206 10.8824 13.4594 10.7903C13.4981 10.6982 13.5181 10.5993 13.5181 10.4993C13.5181 10.3994 13.4981 10.3005 13.4594 10.2084C13.4206 10.1163 13.3638 10.0328 13.2924 9.96295C13.2209 9.89308 13.1362 9.8382 13.0433 9.80151C12.9503 9.76483 12.851 9.74709 12.7511 9.74933H7.49955ZM7.49955 12.7501C7.39967 12.7479 7.30035 12.7657 7.20743 12.8024C7.11451 12.8391 7.02986 12.894 6.95844 12.9638C6.88702 13.0337 6.83028 13.1171 6.79154 13.2092C6.7528 13.3013 6.73284 13.4002 6.73284 13.5001C6.73284 13.6 6.7528 13.6989 6.79154 13.791C6.83028 13.8831 6.88702 13.9665 6.95844 14.0364C7.02986 14.1062 7.11451 14.1611 7.20743 14.1978C7.30035 14.2345 7.39967 14.2523 7.49955 14.2501H10.5003C10.6002 14.2523 10.6995 14.2345 10.7924 14.1978C10.8853 14.1611 10.97 14.1062 11.0414 14.0364C11.1128 13.9665 11.1696 13.8831 11.2083 13.791C11.2471 13.6989 11.267 13.6 11.267 13.5001C11.267 13.4002 11.2471 13.3013 11.2083 13.2092C11.1696 13.1171 11.1128 13.0337 11.0414 12.9638C10.97 12.894 10.8853 12.8391 10.7924 12.8024C10.6995 12.7657 10.6002 12.7479 10.5003 12.7501H7.49955ZM12.7503 12.7501C12.3361 12.7501 12.0003 13.0859 12.0003 13.5001C12.0003 13.9143 12.3361 14.2501 12.7503 14.2501C13.1645 14.2501 13.5003 13.9143 13.5003 13.5001C13.5003 13.0859 13.1645 12.7501 12.7503 12.7501Z" fill="#9193B9"/>
</svg>
