<svg width="51" height="42" viewBox="0 0 51 42" fill="none" xmlns="http://www.w3.org/2000/svg">
<g clip-path="url(#clip0_3143_2939)">
<path d="M11.8196 41.1727H38.8172C40.5404 41.1727 41.9429 40.0151 41.9429 38.592V8.9321C41.9429 7.50902 40.5404 6.35103 38.8172 6.35103H34.312C34.2559 5.32563 33.2364 4.50362 31.9805 4.50362H29.912C29.9652 2.34493 27.8499 0.632812 25.3184 0.632812C22.7827 0.632812 20.6716 2.34854 20.7248 4.50362H18.6562C17.4004 4.50362 16.3808 5.32563 16.3248 6.35103H11.8196C10.0964 6.35103 8.69385 7.50902 8.69385 8.9321V38.5919C8.69385 40.0151 10.0964 41.1727 11.8196 41.1727ZM25.3184 1.89969C27.0192 1.89969 28.4256 3.0545 28.3812 4.50362H22.2555C22.2111 3.0545 23.6176 1.89969 25.3184 1.89969ZM17.8486 6.43737C17.8486 6.0696 18.2113 5.77055 18.6562 5.77055C21.6167 5.77055 28.7445 5.77055 31.9805 5.77055C32.4255 5.77055 32.7881 6.06966 32.7881 6.43737V7.52796C32.7881 7.89573 32.4254 8.19478 31.9805 8.19478H18.6562C18.2112 8.19478 17.8486 7.89567 17.8486 7.52796V6.43737ZM10.2283 8.9321C10.2283 8.20745 10.9423 7.61791 11.8196 7.61791H16.3252C16.3835 8.64154 17.4019 9.46159 18.6562 9.46159H31.9805C33.2348 9.46159 34.2532 8.64154 34.3115 7.61791H38.8171C39.6945 7.61791 40.4084 8.20745 40.4084 8.9321V38.5919C40.4084 39.3163 39.6944 39.9058 38.8171 39.9058H11.8196C10.9422 39.9058 10.2283 39.3163 10.2283 38.5919V8.9321Z" fill="#9697B9"/>
<path d="M13.8152 18.7159H21.0505C21.2626 18.7159 21.4341 18.5743 21.4341 18.3992V12.4251C21.4341 12.25 21.2626 12.1084 21.0505 12.1084H13.8152C13.6032 12.1084 13.4316 12.25 13.4316 12.4251V18.3992C13.4316 18.5743 13.6033 18.7159 13.8152 18.7159ZM14.1988 12.7419H20.6669V18.0825H14.1988V12.7419ZM25.1345 14.3641H36.8209C37.033 14.3641 37.2045 14.2225 37.2045 14.0474C37.2045 13.8723 37.033 13.7307 36.8209 13.7307H25.1345C24.9225 13.7307 24.7509 13.8723 24.7509 14.0474C24.7509 14.2225 24.9225 14.3641 25.1345 14.3641ZM25.1345 17.0937H31.0152C31.2272 17.0937 31.3988 16.952 31.3988 16.777C31.3988 16.6019 31.2272 16.4602 31.0152 16.4602H25.1345C24.9225 16.4602 24.7509 16.6019 24.7509 16.777C24.7509 16.952 24.9225 17.0937 25.1345 17.0937ZM13.8152 27.9874H21.0505C21.2626 27.9874 21.4341 27.8457 21.4341 27.6707V21.6966C21.4341 21.5215 21.2626 21.3799 21.0505 21.3799H13.8152C13.6032 21.3799 13.4316 21.5215 13.4316 21.6966V27.6707C13.4316 27.8457 13.6033 27.9874 13.8152 27.9874ZM14.1988 22.0133H20.6669V27.3539H14.1988V22.0133ZM25.1345 23.6355H36.8209C37.033 23.6355 37.2045 23.4939 37.2045 23.3188C37.2045 23.1437 37.033 23.0021 36.8209 23.0021H25.1345C24.9225 23.0021 24.7509 23.1437 24.7509 23.3188C24.7509 23.4939 24.9225 23.6355 25.1345 23.6355ZM25.1345 26.3651H31.0152C31.2272 26.3651 31.3988 26.2235 31.3988 26.0484C31.3988 25.8733 31.2272 25.7317 31.0152 25.7317H25.1345C24.9225 25.7317 24.7509 25.8733 24.7509 26.0484C24.7509 26.2235 24.9225 26.3651 25.1345 26.3651ZM13.8152 37.2606H21.0505C21.2626 37.2606 21.4341 37.119 21.4341 36.9439V30.9699C21.4341 30.7948 21.2626 30.6531 21.0505 30.6531H13.8152C13.6032 30.6531 13.4316 30.7948 13.4316 30.9699V36.9439C13.4316 37.119 13.6033 37.2606 13.8152 37.2606ZM14.1988 31.2866H20.6669V36.6273H14.1988V31.2866ZM25.1345 32.9092H36.8209C37.033 32.9092 37.2045 32.7675 37.2045 32.5925C37.2045 32.4174 37.033 32.2757 36.8209 32.2757H25.1345C24.9225 32.2757 24.7509 32.4174 24.7509 32.5925C24.7509 32.7675 24.9225 32.9092 25.1345 32.9092ZM25.1345 35.6384H31.0152C31.2272 35.6384 31.3988 35.4968 31.3988 35.3217C31.3988 35.1466 31.2272 35.005 31.0152 35.005H25.1345C24.9225 35.005 24.7509 35.1466 24.7509 35.3217C24.7509 35.4968 24.9225 35.6384 25.1345 35.6384Z" fill="#9697B9"/>
<path d="M18.7917 32.8265L16.8662 34.4166L16.0728 33.7618C15.9229 33.6381 15.6802 33.6381 15.5303 33.7618C15.3805 33.8855 15.3805 34.086 15.5303 34.2097L16.595 35.0884C16.67 35.1503 16.7681 35.1812 16.8662 35.1812C16.9643 35.1812 17.0625 35.1503 17.1374 35.0884L19.3342 33.2743C19.484 33.1506 19.484 32.9502 19.3342 32.8265C19.1843 32.7028 18.9417 32.7028 18.7917 32.8265ZM18.7917 23.5533L16.8662 25.1434L16.0728 24.4883C15.9229 24.3646 15.6802 24.3646 15.5303 24.4883C15.3805 24.612 15.3805 24.8124 15.5303 24.9361L16.595 25.8151C16.667 25.8745 16.7643 25.9079 16.8662 25.9079C16.9681 25.9079 17.0655 25.8745 17.1374 25.8151L19.3342 24.0011C19.484 23.8774 19.484 23.677 19.3342 23.5533C19.1843 23.4295 18.9417 23.4295 18.7917 23.5533ZM18.9244 14.1807C18.7746 14.057 18.5318 14.057 18.382 14.1807L17.4323 14.9647L16.4827 14.1807C16.3328 14.057 16.0901 14.057 15.9403 14.1807C15.7904 14.3044 15.7904 14.5048 15.9403 14.6285L16.8899 15.4126L15.9403 16.1966C15.7904 16.3204 15.7904 16.5208 15.9403 16.6445C16.0152 16.7064 16.1133 16.7373 16.2115 16.7373C16.3096 16.7373 16.4078 16.7064 16.4827 16.6445L17.4323 15.8604L18.382 16.6445C18.4569 16.7064 18.5551 16.7373 18.6532 16.7373C18.7513 16.7373 18.8495 16.7064 18.9244 16.6445C19.0742 16.5208 19.0742 16.3204 18.9244 16.1966L17.9747 15.4126L18.9244 14.6285C19.0742 14.5048 19.0742 14.3044 18.9244 14.1807Z" fill="#9697B9"/>
</g>
<defs>
<clipPath id="clip0_3143_2939">
<rect width="50.6356" height="41.8068" fill="white"/>
</clipPath>
</defs>
</svg>
