<svg width="35" height="51" viewBox="0 0 35 51" fill="none" xmlns="http://www.w3.org/2000/svg">
<path d="M3.37083 50.0257H31.6291C33.4327 50.0257 34.9008 48.6192 34.9008 46.8901V10.8532C34.9008 9.12415 33.4327 7.7172 31.6291 7.7172H26.9135C26.8548 6.47132 25.7877 5.47257 24.4732 5.47257H22.308C22.3637 2.84976 20.1497 0.769531 17.4999 0.769531C14.8458 0.769531 12.6362 2.85415 12.6918 5.47257H10.5267C9.21223 5.47257 8.145 6.47132 8.08638 7.7172H3.37083C1.56714 7.7172 0.0991211 9.12415 0.0991211 10.8532V46.89C0.0991211 48.6192 1.56714 50.0257 3.37083 50.0257ZM17.4999 2.30879C19.2801 2.30879 20.7523 3.7119 20.7058 5.47257H14.294C14.2476 3.7119 15.7197 2.30879 17.4999 2.30879ZM9.68136 7.8221C9.68136 7.37525 10.061 7.01191 10.5267 7.01191C13.6254 7.01191 21.086 7.01191 24.4731 7.01191C24.9389 7.01191 25.3184 7.37533 25.3184 7.8221V9.14716C25.3184 9.59401 24.9389 9.95735 24.4731 9.95735H10.5267C10.0609 9.95735 9.68136 9.59393 9.68136 9.14716V7.8221ZM1.70518 10.8532C1.70518 9.97274 2.45256 9.25645 3.37083 9.25645H8.08678C8.14781 10.5002 9.21376 11.4965 10.5267 11.4965H24.4731C25.786 11.4965 26.852 10.5002 26.913 9.25645H31.629C32.5473 9.25645 33.2946 9.97274 33.2946 10.8532V46.89C33.2946 47.7702 32.5472 48.4864 31.629 48.4864H3.37083C2.45248 48.4864 1.70518 47.7701 1.70518 46.89V10.8532Z" fill="#31337C"/>
</svg>
