<svg width="98" height="98" viewBox="0 0 98 98" fill="none" xmlns="http://www.w3.org/2000/svg">
<path d="M83.9281 97.6563H9.375C4.20625 97.6563 0 93.45 0 88.2813V13.725C0 8.55628 4.20625 4.35003 9.375 4.35003H60.0438C61.7719 4.35003 63.1688 5.75003 63.1688 7.47503C63.1688 9.20003 61.7719 10.6 60.0438 10.6H9.375C7.65312 10.6 6.25 12.0032 6.25 13.725V88.2813C6.25 90.0032 7.65312 91.4063 9.375 91.4063H83.9281C85.6531 91.4063 87.0531 90.0032 87.0531 88.2813V37.6094C87.0531 35.8844 88.45 34.4844 90.1781 34.4844C91.9062 34.4844 93.3031 35.8844 93.3031 37.6094V88.2813C93.3031 93.45 89.1 97.6563 83.9281 97.6563ZM76.5062 71.425C76.5 71.425 76.4969 71.425 76.4906 71.425L16.225 71.1469C14.4969 71.1407 13.1063 69.7344 13.1125 68.0094C13.1188 66.2875 14.5188 64.8969 16.2375 64.8969C16.2406 64.8969 16.2469 64.8969 16.25 64.8969L76.5188 65.175C78.2438 65.1813 79.6375 66.5875 79.6281 68.3125C79.6219 70.0344 78.225 71.425 76.5062 71.425ZM47.6594 55.5469C46.1875 55.5469 45.2188 54.9219 44.6688 54.4032C43.7406 53.5282 42.4531 51.4938 44.2313 47.6813L46.2 43.4625C47.8125 40.0125 51.1875 35.1938 53.8844 32.4938L81.25 5.12816C81.2594 5.12191 81.2656 5.11566 81.2719 5.10941C81.2781 5.10316 81.2844 5.09691 81.2906 5.09066L82.7 3.68128C86.35 0.0281557 92.0094 -0.262469 95.3125 3.03441C98.6125 6.33128 98.3219 11.9907 94.6656 15.6469C94.6656 15.6469 92.9906 17.3719 92.8344 17.4782L65.85 44.4625C63.1938 47.1188 58.5219 50.6 55.2094 52.3938L51.4031 54.4469C49.9031 55.2563 48.6625 55.5469 47.6594 55.5469ZM83.4813 11.7375L58.3063 36.9157C56.1219 39.1032 53.1688 43.3125 51.8656 46.1094L51.25 47.4219L52.2375 46.8907C55.0031 45.3938 59.2156 42.2594 61.4313 40.0407L86.6094 14.8625L83.4813 11.7375ZM88.0094 7.42503L90.9219 10.3375C91.5469 9.22503 91.475 8.03441 90.8938 7.45316C90.2531 6.81253 89.0594 6.84378 88.0094 7.42503Z" fill="#020560"/>
</svg>
