<svg width="24" height="24" viewBox="0 0 24 24" fill="none" xmlns="http://www.w3.org/2000/svg">
<path d="M16.3688 15.6934C16.8985 15.8762 15.8438 15.5106 16.3688 15.6934V15.6934Z" fill="#9193B9"/>
<path d="M16.3688 15.6941C15.7359 15.4738 15.0516 15.4597 14.4188 15.2394C14.2266 15.1738 13.8469 15.0941 13.7672 14.8738C13.6922 14.6581 13.6922 14.405 13.6781 14.18C13.6687 14.0019 13.6641 13.8238 13.6641 13.6456C13.6641 13.5284 13.9641 13.28 14.0297 13.1722C14.2828 12.7503 14.3063 12.1831 14.3531 11.705C14.7609 11.8175 14.8125 11.0628 14.8828 10.8331C14.9344 10.6738 15.2484 9.57688 14.7609 9.72688C14.8781 9.52063 14.925 9.26751 14.9578 9.03782C15.0516 8.43782 15.0891 7.78157 14.9062 7.19563C14.5266 5.97688 13.3594 5.29251 12.1266 5.25501C10.875 5.21282 9.61875 5.81282 9.15 7.02688C8.925 7.61751 8.94375 8.2597 9.01875 8.87845C9.05156 9.1597 9.09844 9.47376 9.23906 9.72688C8.78438 9.59095 9.02812 10.5566 9.07969 10.7253C9.15469 10.9644 9.22031 11.8222 9.64688 11.705C9.68438 12.0847 9.72656 12.4738 9.82969 12.8441C9.9 13.0925 10.0453 13.3034 10.2141 13.4956C10.2984 13.5894 10.3406 13.5988 10.3359 13.7206C10.3313 14.0863 10.3406 14.48 10.2469 14.8363C10.1531 15.1925 9.37031 15.3425 9.05625 15.4081C8.2125 15.5816 7.43438 15.6613 6.73125 16.1863C5.91094 16.7909 5.48438 17.7331 5.48438 18.7503H18.5156C18.5156 17.3675 17.6813 16.1488 16.3688 15.6941Z" fill="#9193B9"/>
<path d="M6.71729 15.1176L6.79228 15.0801C6.77822 15.0848 6.76416 15.0941 6.75479 15.0988C6.74072 15.1035 6.73135 15.1082 6.71729 15.1176Z" fill="#9193B9"/>
<path d="M6.71719 15.1174C6.55781 15.1971 6.36563 15.2955 6.75469 15.0986L6.79219 15.0799C7.11094 14.9299 7.45312 14.8924 7.79531 14.8596C7.92656 14.8455 7.9875 14.7564 7.88906 14.6299C7.70156 14.3908 7.05469 14.3439 6.78281 14.2361C6.61406 14.1705 6.56719 14.1096 6.55313 13.9221C6.54844 13.8377 6.50156 13.4627 6.56719 13.4018C6.61406 13.3549 6.90938 13.3736 6.975 13.3643C7.24219 13.3314 7.51406 13.2752 7.76719 13.1768C7.875 13.1346 7.97812 13.083 8.07187 13.0174C8.18437 12.933 7.9875 12.7268 7.93594 12.6143C7.77656 12.2627 7.70625 11.8783 7.68281 11.4939C7.63594 10.7393 7.75312 9.97988 7.6125 9.22988C7.40156 8.08144 6.51562 7.50488 5.38594 7.50488C4.6875 7.50488 3.99844 7.74394 3.60938 8.35332C3.17813 9.02363 3.20156 9.85801 3.225 10.6221C3.23906 11.058 3.25781 11.4986 3.19687 11.9346C3.16875 12.1221 3.12656 12.3049 3.06094 12.483C3.00938 12.6189 2.74687 12.9564 2.85 13.0268C3.23906 13.3033 3.89531 13.3971 4.36406 13.3596C4.37812 13.5893 4.42031 13.8846 4.33594 14.1002C4.20469 14.4377 3.225 14.5268 2.92969 14.6252C2.10938 14.8971 1.5 15.5627 1.5 16.5002H5.22656C5.2875 16.5002 5.52187 16.0643 5.5875 15.9939C5.90625 15.6424 6.29531 15.3377 6.71719 15.1174Z" fill="#9193B9"/>
<path d="M21.0611 14.6199C20.6815 14.498 19.9502 14.4605 19.6783 14.1324C19.5424 13.9684 19.6174 13.5512 19.6315 13.3543C19.8377 13.373 20.0627 13.3402 20.2736 13.3121C20.4658 13.284 20.6533 13.2465 20.8361 13.1809C20.9205 13.148 21.0049 13.1152 21.0846 13.0684C21.2674 12.9605 21.183 12.9418 21.0893 12.7824C20.5783 11.9246 20.808 10.8371 20.7846 9.89492C20.7658 9.11211 20.5596 8.25429 19.8471 7.81367C19.2049 7.41523 18.2533 7.40117 17.5643 7.68242C15.5768 8.47929 16.7486 11.1137 16.069 12.623C15.9518 12.8762 15.783 12.9652 16.0783 13.1152C16.2424 13.1996 16.4205 13.2559 16.5986 13.298C16.8705 13.3637 17.1518 13.4012 17.433 13.4105C17.4799 13.4105 17.4471 14.0012 17.433 14.0621C17.3815 14.2918 16.8799 14.3574 16.6924 14.409C16.5002 14.4605 16.1815 14.4746 16.0877 14.6762C15.9471 14.9762 16.5518 14.9012 16.7018 14.9293C17.1846 15.0184 17.6111 15.2855 17.9861 15.5902C18.2674 15.8199 18.6471 16.1293 18.7502 16.5043H22.5096C22.5002 15.5621 21.8861 14.8918 21.0611 14.6199Z" fill="#9193B9"/>
</svg>
