<svg width="100" height="100" viewBox="0 0 100 100" fill="none" xmlns="http://www.w3.org/2000/svg">
<path d="M98.6972 63.3401C96.2565 61.8968 93.2005 61.6634 90.4731 62.8729C90.4731 62.8729 90.4626 62.8839 90.42 62.8942C90.4095 62.9048 90.3882 62.9048 90.3774 62.9155C90.388 62.9155 90.3774 62.9155 90.3456 62.9261L90.3243 62.9366L90.3138 62.9472C90.2714 62.9577 90.2288 62.979 90.1759 63.0003C89.1784 63.4458 85.2839 65.1757 72.0407 71.0333V71.012C69.0694 66.7993 63.838 69.9083 56.7495 70.5237C45.756 64.8892 35.3778 59.3712 23.9917 59.7212V82.2708H25.8806L49.5231 91.6091C53.3858 93.137 57.7683 92.7446 61.3126 90.5692L98.7183 67.4892C100.257 66.5341 100.268 64.2632 98.6972 63.3401ZM19.6581 56.9444H17.7604V55.5249C17.7604 54.4153 16.8612 53.5161 15.7517 53.5161H2.13525C1.02568 53.5161 0.126465 54.4153 0.126465 55.5249V87.7011C0.126465 88.8106 1.02568 89.7099 2.13525 89.7099H15.7517C16.8612 89.7099 17.7604 88.8106 17.7604 87.7011V86.2815H19.6581C20.8813 86.2815 21.8729 85.2897 21.8729 84.0665V59.1595C21.8731 57.9362 20.8813 56.9444 19.6581 56.9444ZM11.6155 86.6288C10.2503 86.6288 9.13193 85.5106 9.13193 84.1454C9.13193 82.7804 10.2503 81.662 11.6155 81.662C12.9806 81.662 14.0989 82.7804 14.0989 84.1454C14.0989 85.5106 12.9806 86.6288 11.6155 86.6288Z" fill="#020560"/>
<path d="M37.7921 38.1701L42.0353 38.658C42.5444 40.8644 43.4142 42.9861 44.6235 44.8957L41.9503 48.2478C41.2503 49.1389 41.3351 50.3906 42.12 51.1756L45.0478 54.1033C45.8327 54.8883 47.0845 54.9732 47.9755 54.2731L51.3276 51.6C53.237 52.8094 55.3585 53.6791 57.5651 54.1881L58.053 58.4314C58.3854 61.3686 62.2407 60.1002 64.3542 60.3832C65.4786 60.3832 66.4122 59.5557 66.5396 58.4314L67.0274 54.1881C69.2341 53.6791 71.3556 52.809 73.2649 51.5996L76.6171 54.2731C77.5081 54.973 78.7599 54.8883 79.5448 54.1033L82.4726 51.1756C83.2575 50.3906 83.3425 49.1389 82.6425 48.2477L79.9692 44.8955C81.1786 42.9861 82.0483 40.8646 82.5575 38.6582L86.8007 38.1701C87.9251 38.043 88.7524 37.1096 88.7524 35.9848V31.8689C88.7524 30.7445 87.9251 29.8111 86.8007 29.6836L82.5575 29.1955C82.0483 26.9893 81.1786 24.8674 79.9692 22.9582L82.6425 19.6061C83.3425 18.715 83.2577 17.4633 82.4726 16.6783L79.5448 13.7506C78.7599 12.9656 77.5081 12.8807 76.6171 13.5809L73.2649 16.2539C71.3556 15.0445 69.2341 14.1748 67.0274 13.6658L66.5396 9.42246C66.4122 8.29785 65.4788 7.4707 64.3542 7.4707H60.2384C59.114 7.4707 58.1804 8.29824 58.053 9.42246L57.5651 13.6658C55.3585 14.1748 53.237 15.0445 51.3276 16.2539L47.9755 13.5809C47.0845 12.8809 45.8327 12.9658 45.0478 13.7508L42.12 16.6785C41.3351 17.4635 41.2503 18.715 41.9503 19.6063L44.6235 22.9582C43.4142 24.8678 42.5444 26.9893 42.0353 29.1959L37.7921 29.684C36.6677 29.8111 35.8403 30.7449 35.8403 31.8693V35.9852C35.8403 37.1096 36.6677 38.043 37.7921 38.1701ZM55.469 27.1211C59.2388 23.3514 65.3362 23.3514 69.106 27.1211C72.8503 30.8654 72.8503 36.9881 69.106 40.7326C65.3362 44.5023 59.2388 44.5023 55.469 40.7326C51.6993 36.9883 51.6993 30.8654 55.469 27.1211Z" fill="#020560"/>
</svg>
