<svg width="227" height="26" viewBox="0 0 227 26" fill="none" xmlns="http://www.w3.org/2000/svg">
<g filter="url(#filter0_d_2061_8009)">
<path d="M9.904 17.52C8.784 17.52 7.776 17.328 6.88 16.944C5.984 16.544 5.28 15.984 4.768 15.264C4.256 14.544 4 13.704 4 12.744H6.928C6.992 13.464 7.272 14.056 7.768 14.52C8.28 14.984 8.992 15.216 9.904 15.216C10.848 15.216 11.584 14.992 12.112 14.544C12.64 14.08 12.904 13.488 12.904 12.768C12.904 12.208 12.736 11.752 12.4 11.4C12.08 11.048 11.672 10.776 11.176 10.584C10.696 10.392 10.024 10.184 9.16 9.96003C8.072 9.67203 7.184 9.38403 6.496 9.09603C5.824 8.79203 5.248 8.32803 4.768 7.70403C4.288 7.08003 4.048 6.24803 4.048 5.20803C4.048 4.24803 4.288 3.40803 4.768 2.68803C5.248 1.96803 5.92 1.41603 6.784 1.03203C7.648 0.648033 8.648 0.456033 9.784 0.456033C11.4 0.456033 12.72 0.864033 13.744 1.68003C14.784 2.48003 15.36 3.58403 15.472 4.99203H12.448C12.4 4.38403 12.112 3.86403 11.584 3.43203C11.056 3.00003 10.36 2.78403 9.496 2.78403C8.712 2.78403 8.072 2.98403 7.576 3.38403C7.08 3.78403 6.832 4.36003 6.832 5.11203C6.832 5.62403 6.984 6.04803 7.288 6.38403C7.608 6.70403 8.008 6.96003 8.488 7.15203C8.968 7.34403 9.624 7.55203 10.456 7.77603C11.56 8.08003 12.456 8.38403 13.144 8.68803C13.848 8.99203 14.44 9.46403 14.92 10.104C15.416 10.728 15.664 11.568 15.664 12.624C15.664 13.472 15.432 14.272 14.968 15.024C14.52 15.776 13.856 16.384 12.976 16.848C12.112 17.296 11.088 17.52 9.904 17.52Z" fill="#E2E4E4"/>
<path d="M25.5004 17.52C23.9484 17.52 22.5164 17.16 21.2044 16.44C19.9084 15.704 18.8764 14.688 18.1084 13.392C17.3564 12.08 16.9804 10.608 16.9804 8.97603C16.9804 7.34403 17.3564 5.88003 18.1084 4.58403C18.8764 3.28803 19.9084 2.28003 21.2044 1.56003C22.5164 0.824033 23.9484 0.456033 25.5004 0.456033C27.0684 0.456033 28.5004 0.824033 29.7964 1.56003C31.1084 2.28003 32.1404 3.28803 32.8924 4.58403C33.6444 5.88003 34.0204 7.34403 34.0204 8.97603C34.0204 10.608 33.6444 12.08 32.8924 13.392C32.1404 14.688 31.1084 15.704 29.7964 16.44C28.5004 17.16 27.0684 17.52 25.5004 17.52ZM25.5004 15.144C26.6044 15.144 27.5884 14.896 28.4524 14.4C29.3164 13.888 29.9884 13.168 30.4684 12.24C30.9644 11.296 31.2124 10.208 31.2124 8.97603C31.2124 7.74403 30.9644 6.66403 30.4684 5.73603C29.9884 4.80803 29.3164 4.09603 28.4524 3.60003C27.5884 3.10403 26.6044 2.85603 25.5004 2.85603C24.3964 2.85603 23.4124 3.10403 22.5484 3.60003C21.6844 4.09603 21.0044 4.80803 20.5084 5.73603C20.0284 6.66403 19.7884 7.74403 19.7884 8.97603C19.7884 10.208 20.0284 11.296 20.5084 12.24C21.0044 13.168 21.6844 13.888 22.5484 14.4C23.4124 14.896 24.3964 15.144 25.5004 15.144Z" fill="#E2E4E4"/>
<path d="M37.4247 0.672033V11.304C37.4247 12.568 37.7527 13.52 38.4087 14.16C39.0807 14.8 40.0087 15.12 41.1927 15.12C42.3927 15.12 43.3207 14.8 43.9767 14.16C44.6487 13.52 44.9847 12.568 44.9847 11.304V0.672033H47.7207V11.256C47.7207 12.616 47.4247 13.768 46.8327 14.712C46.2407 15.656 45.4487 16.36 44.4567 16.824C43.4647 17.288 42.3687 17.52 41.1687 17.52C39.9687 17.52 38.8727 17.288 37.8807 16.824C36.9047 16.36 36.1287 15.656 35.5527 14.712C34.9767 13.768 34.6887 12.616 34.6887 11.256V0.672033H37.4247Z" fill="#E2E4E4"/>
<path d="M53 8.90403C53 7.24003 53.344 5.76003 54.032 4.46403C54.736 3.15203 55.728 2.13603 57.008 1.41603C58.288 0.680034 59.76 0.312034 61.424 0.312034C63.536 0.312034 65.312 0.880034 66.752 2.01603C68.192 3.13603 69.12 4.66403 69.536 6.60003H64.472C64.168 5.96003 63.744 5.47203 63.2 5.13603C62.672 4.80003 62.056 4.63203 61.352 4.63203C60.264 4.63203 59.392 5.02403 58.736 5.80803C58.096 6.57603 57.776 7.60803 57.776 8.90403C57.776 10.216 58.096 11.264 58.736 12.048C59.392 12.816 60.264 13.2 61.352 13.2C62.056 13.2 62.672 13.032 63.2 12.696C63.744 12.36 64.168 11.872 64.472 11.232H69.536C69.12 13.168 68.192 14.704 66.752 15.84C65.312 16.96 63.536 17.52 61.424 17.52C59.76 17.52 58.288 17.16 57.008 16.44C55.728 15.704 54.736 14.688 54.032 13.392C53.344 12.08 53 10.584 53 8.90403Z" fill="#E2E4E4"/>
<path d="M80.188 17.352C78.604 17.352 77.148 16.984 75.82 16.248C74.492 15.496 73.436 14.464 72.652 13.152C71.884 11.824 71.5 10.328 71.5 8.664C71.5 7 71.884 5.512 72.652 4.2C73.436 2.872 74.492 1.84 75.82 1.104C77.148 0.368 78.604 0 80.188 0C81.788 0 83.244 0.368 84.556 1.104C85.884 1.84 86.932 2.872 87.7 4.2C88.468 5.512 88.852 7 88.852 8.664C88.852 10.328 88.468 11.824 87.7 13.152C86.932 14.464 85.884 15.496 84.556 16.248C83.228 16.984 81.772 17.352 80.188 17.352ZM80.188 12.984C81.388 12.984 82.332 12.592 83.02 11.808C83.724 11.024 84.076 9.976 84.076 8.664C84.076 7.32 83.724 6.264 83.02 5.496C82.332 4.712 81.388 4.32 80.188 4.32C78.972 4.32 78.02 4.712 77.332 5.496C76.644 6.264 76.3 7.32 76.3 8.664C76.3 9.992 76.644 11.048 77.332 11.832C78.02 12.6 78.972 12.984 80.188 12.984Z" fill="#E2E4E4"/>
<path d="M105.979 17.352H101.275L95.0115 7.89603V17.352H90.3075V0.432033H95.0115L101.275 10.008V0.432033H105.979V17.352Z" fill="#E2E4E4"/>
<path d="M121.403 0.432033V4.17603H116.891V17.352H112.187V4.17603H107.723V0.432033H121.403Z" fill="#E2E4E4"/>
<path d="M127.847 4.20003V6.96003H133.247V10.536H127.847V13.584H133.967V17.352H123.143V0.432033H133.967V4.20003H127.847Z" fill="#E2E4E4"/>
<path d="M140.318 0.264032V10.08C140.318 10.992 140.526 11.696 140.942 12.192C141.374 12.688 142.022 12.936 142.886 12.936C143.75 12.936 144.398 12.688 144.83 12.192C145.278 11.68 145.502 10.976 145.502 10.08V0.264032H150.206V10.08C150.206 11.632 149.878 12.96 149.222 14.064C148.566 15.152 147.67 15.976 146.534 16.536C145.414 17.08 144.166 17.352 142.79 17.352C141.414 17.352 140.182 17.08 139.094 16.536C138.022 15.976 137.174 15.152 136.55 14.064C135.942 12.976 135.638 11.648 135.638 10.08V0.264032H140.318Z" fill="#E2E4E4"/>
<path d="M159.074 0.432033C160.85 0.432033 162.402 0.792033 163.73 1.51203C165.074 2.21603 166.106 3.20803 166.826 4.48803C167.546 5.76803 167.906 7.23203 167.906 8.88003C167.906 10.512 167.538 11.968 166.802 13.248C166.082 14.528 165.05 15.536 163.706 16.272C162.378 16.992 160.834 17.352 159.074 17.352H152.378V0.432033H159.074ZM158.714 13.2C160.09 13.2 161.17 12.824 161.954 12.072C162.738 11.32 163.13 10.256 163.13 8.88003C163.13 7.48803 162.738 6.41603 161.954 5.66403C161.17 4.89603 160.09 4.51203 158.714 4.51203H157.082V13.2H158.714Z" fill="#E2E4E4"/>
<path d="M174.73 0.432033V17.352H170.026V0.432033H174.73Z" fill="#E2E4E4"/>
<path d="M183.793 17.52C181.825 17.52 180.209 17.056 178.945 16.128C177.681 15.184 177.001 13.84 176.905 12.096H181.921C181.969 12.688 182.145 13.12 182.449 13.392C182.753 13.664 183.145 13.8 183.625 13.8C184.057 13.8 184.409 13.696 184.681 13.488C184.969 13.264 185.113 12.96 185.113 12.576C185.113 12.08 184.881 11.696 184.417 11.424C183.953 11.152 183.201 10.848 182.161 10.512C181.057 10.144 180.161 9.79203 179.473 9.45603C178.801 9.10403 178.209 8.60003 177.697 7.94403C177.201 7.27203 176.953 6.40003 176.953 5.32803C176.953 4.24003 177.225 3.31203 177.769 2.54403C178.313 1.76003 179.065 1.16803 180.025 0.768033C180.985 0.368033 182.073 0.168034 183.289 0.168034C185.257 0.168034 186.825 0.632033 187.993 1.56003C189.177 2.47203 189.809 3.76003 189.889 5.42403H184.777C184.761 4.91203 184.601 4.52803 184.297 4.27203C184.009 4.01603 183.633 3.88803 183.169 3.88803C182.817 3.88803 182.529 3.99203 182.305 4.20003C182.081 4.40803 181.969 4.70403 181.969 5.08803C181.969 5.40803 182.089 5.68803 182.329 5.92803C182.585 6.15203 182.897 6.35203 183.265 6.52803C183.633 6.68803 184.177 6.89603 184.897 7.15203C185.969 7.52003 186.849 7.88803 187.537 8.25603C188.241 8.60803 188.841 9.11203 189.337 9.76803C189.849 10.408 190.105 11.224 190.105 12.216C190.105 13.224 189.849 14.128 189.337 14.928C188.841 15.728 188.113 16.36 187.153 16.824C186.209 17.288 185.089 17.52 183.793 17.52Z" fill="#E2E4E4"/>
<path d="M204.716 0.456033V4.20003H200.204V17.376H195.5V4.20003H191.036V0.456033H204.716Z" fill="#E2E4E4"/>
<path d="M216.572 14.616H210.572L209.66 17.376H204.716L210.884 0.456H216.308L222.452 17.376H217.484L216.572 14.616ZM215.396 11.016L213.572 5.544L211.772 11.016H215.396Z" fill="#E2E4E4"/>
</g>
<defs>
<filter id="filter0_d_2061_8009" x="0" y="0" width="226.452" height="25.5205" filterUnits="userSpaceOnUse" color-interpolation-filters="sRGB">
<feFlood flood-opacity="0" result="BackgroundImageFix"/>
<feColorMatrix in="SourceAlpha" type="matrix" values="0 0 0 0 0 0 0 0 0 0 0 0 0 0 0 0 0 0 127 0" result="hardAlpha"/>
<feOffset dy="4"/>
<feGaussianBlur stdDeviation="2"/>
<feComposite in2="hardAlpha" operator="out"/>
<feColorMatrix type="matrix" values="0 0 0 0 0 0 0 0 0 0 0 0 0 0 0 0 0 0 0.25 0"/>
<feBlend mode="normal" in2="BackgroundImageFix" result="effect1_dropShadow_2061_8009"/>
<feBlend mode="normal" in="SourceGraphic" in2="effect1_dropShadow_2061_8009" result="shape"/>
</filter>
</defs>
</svg>
