<svg width="17" height="21" viewBox="0 0 17 21" fill="none" xmlns="http://www.w3.org/2000/svg">
<path d="M16.5623 6.67719L10.8957 0.427189C10.7983 0.319281 10.6794 0.232949 10.5466 0.173747C10.4139 0.114545 10.2702 0.083783 10.1248 0.0834394H2.83317C2.48708 0.0793112 2.14356 0.143398 1.82223 0.27204C1.50091 0.400682 1.20807 0.591359 0.960443 0.833183C0.712815 1.07501 0.515248 1.36324 0.379023 1.68143C0.242798 1.99961 0.170583 2.34151 0.166504 2.68761V18.3126C0.170583 18.6587 0.242798 19.0006 0.379023 19.3188C0.515248 19.637 0.712815 19.9252 0.960443 20.167C1.20807 20.4089 1.50091 20.5995 1.82223 20.7282C2.14356 20.8568 2.48708 20.9209 2.83317 20.9168H14.1665C14.5126 20.9209 14.8561 20.8568 15.1774 20.7282C15.4988 20.5995 15.7916 20.4089 16.0392 20.167C16.2869 19.9252 16.4844 19.637 16.6207 19.3188C16.7569 19.0006 16.8291 18.6587 16.8332 18.3126V7.37511C16.8325 7.11694 16.736 6.86823 16.5623 6.67719ZM10.5832 3.20844L13.4373 6.33344H11.354C11.2449 6.32685 11.1382 6.29861 11.0402 6.25035C10.9421 6.20209 10.8547 6.13478 10.7829 6.05236C10.7112 5.96994 10.6566 5.87405 10.6223 5.77029C10.588 5.66653 10.5747 5.55697 10.5832 5.44802V3.20844ZM14.1665 18.8334H2.83317C2.76064 18.8377 2.688 18.8275 2.61939 18.8036C2.55079 18.7797 2.48758 18.7425 2.43339 18.6941C2.3792 18.6457 2.33509 18.5871 2.30359 18.5217C2.27209 18.4562 2.25383 18.3851 2.24984 18.3126V2.68761C2.25383 2.61507 2.27209 2.54403 2.30359 2.47856C2.33509 2.41309 2.3792 2.35449 2.43339 2.3061C2.48758 2.25772 2.55079 2.2205 2.61939 2.19659C2.688 2.17269 2.76064 2.16255 2.83317 2.16677H8.49984V5.44802C8.48302 6.21534 8.77041 6.95815 9.29928 7.51435C9.82815 8.07054 10.5556 8.39495 11.3228 8.41677H14.7498V18.3126C14.7458 18.3851 14.7276 18.4562 14.6961 18.5217C14.6646 18.5871 14.6205 18.6457 14.5663 18.6941C14.5121 18.7425 14.4489 18.7797 14.3803 18.8036C14.3117 18.8275 14.239 18.8377 14.1665 18.8334Z" fill="#9193B9"/>
</svg>
