<svg width="20" height="24" viewBox="0 0 20 24" fill="none" xmlns="http://www.w3.org/2000/svg">
<path fill-rule="evenodd" clip-rule="evenodd" d="M5.49955 0.75C5.30137 0.750037 5.11125 0.828505 4.97074 0.968263L0.469243 5.46976C0.399775 5.5396 0.344746 5.62245 0.307296 5.71356C0.269846 5.80467 0.25071 5.90226 0.250979 6.00077V17.2509C0.250979 18.4844 1.26819 19.4987 2.50173 19.4987H13.7518C14.9853 19.4987 15.9989 18.4844 15.9989 17.2509V3.00002C15.9989 1.7665 14.9853 0.75 13.7518 0.75H5.49955ZM6.24956 2.25001H13.7518C14.1803 2.25001 14.5018 2.57156 14.5018 3.00002V17.2509C14.5018 17.6793 14.1803 18.0016 13.7518 18.0016H2.50173C2.07325 18.0016 1.75099 17.6793 1.75099 17.2509V6.75151H3.99881C5.23234 6.75151 6.24956 5.73429 6.24956 4.50076V2.25001ZM4.74881 3.3135V4.50076C4.74881 4.92923 4.42729 5.25076 3.99881 5.25076H2.81154L4.74881 3.3135ZM17.4996 3.75075C17.3998 3.74855 17.3004 3.76633 17.2075 3.80303C17.1146 3.83973 17.0299 3.89463 16.9585 3.96449C16.8871 4.03435 16.8304 4.11777 16.7916 4.20986C16.7529 4.30195 16.7329 4.40085 16.7329 4.50076C16.7329 4.60067 16.7529 4.69957 16.7916 4.79166C16.8304 4.88374 16.8871 4.96717 16.9585 5.03703C17.0299 5.10689 17.1146 5.16179 17.2075 5.19849C17.3004 5.23519 17.3998 5.25296 17.4996 5.25076C17.9281 5.25076 18.2496 5.57231 18.2496 6.00077V20.9994C18.2496 21.4279 17.9281 21.7494 17.4996 21.7494H5.49955C5.07108 21.7494 4.74881 21.4279 4.74881 20.9994C4.75538 20.8971 4.74089 20.7945 4.70625 20.698C4.6716 20.6014 4.61753 20.5131 4.54738 20.4383C4.47723 20.3635 4.39248 20.3038 4.29838 20.2631C4.20428 20.2223 4.10282 20.2013 4.00027 20.2013C3.89773 20.2013 3.79627 20.2223 3.70216 20.2631C3.60806 20.3038 3.52332 20.3635 3.45317 20.4383C3.38301 20.5131 3.32894 20.6014 3.2943 20.698C3.25965 20.7945 3.24517 20.8971 3.25173 20.9994C3.25173 22.2329 4.26601 23.2502 5.49955 23.2502H17.4996C18.7332 23.2502 19.7504 22.2329 19.7504 20.9994V6.00077C19.7504 4.76724 18.7332 3.75075 17.4996 3.75075ZM5.49955 9.74933C5.30355 9.75373 5.11706 9.83468 4.98 9.97486C4.84294 10.115 4.7662 10.3033 4.7662 10.4993C4.7662 10.6954 4.84294 10.8836 4.98 11.0238C5.11706 11.164 5.30355 11.2449 5.49955 11.2493H10.7511C10.851 11.2516 10.9503 11.2338 11.0433 11.1972C11.1362 11.1605 11.2209 11.1056 11.2924 11.0357C11.3638 10.9659 11.4206 10.8824 11.4594 10.7903C11.4981 10.6982 11.5181 10.5993 11.5181 10.4993C11.5181 10.3994 11.4981 10.3005 11.4594 10.2084C11.4206 10.1163 11.3638 10.0328 11.2924 9.96295C11.2209 9.89308 11.1362 9.8382 11.0433 9.80151C10.9503 9.76483 10.851 9.74709 10.7511 9.74933H5.49955ZM5.49955 12.7501C5.39967 12.7479 5.30035 12.7657 5.20743 12.8024C5.11451 12.8391 5.02986 12.894 4.95844 12.9638C4.88702 13.0337 4.83028 13.1171 4.79154 13.2092C4.7528 13.3013 4.73284 13.4002 4.73284 13.5001C4.73284 13.6 4.7528 13.6989 4.79154 13.791C4.83028 13.8831 4.88702 13.9665 4.95844 14.0364C5.02986 14.1062 5.11451 14.1611 5.20743 14.1978C5.30035 14.2345 5.39967 14.2523 5.49955 14.2501H8.50031C8.60019 14.2523 8.6995 14.2345 8.79242 14.1978C8.88534 14.1611 8.97 14.1062 9.04141 14.0364C9.11283 13.9665 9.16958 13.8831 9.20832 13.791C9.24706 13.6989 9.26701 13.6 9.26701 13.5001C9.26701 13.4002 9.24706 13.3013 9.20832 13.2092C9.16958 13.1171 9.11283 13.0337 9.04141 12.9638C8.97 12.894 8.88534 12.8391 8.79242 12.8024C8.6995 12.7657 8.60019 12.7479 8.50031 12.7501H5.49955ZM10.7503 12.7501C10.3361 12.7501 10.0003 13.0859 10.0003 13.5001C10.0003 13.9143 10.3361 14.2501 10.7503 14.2501C11.1645 14.2501 11.5003 13.9143 11.5003 13.5001C11.5003 13.0859 11.1645 12.7501 10.7503 12.7501Z" fill="#9193B9"/>
</svg>
