<svg width="21" height="22" viewBox="0 0 21 22" fill="none" xmlns="http://www.w3.org/2000/svg">
<path d="M2.07822 4.95772H0.000976562V19.4985C0.000976562 20.6409 0.935738 21.5757 2.07822 21.5757H16.619V19.4985H2.07822V4.95772ZM18.6962 0.803223H6.23272C5.09023 0.803223 4.15547 1.73798 4.15547 2.88047V15.344C4.15547 16.4864 5.09023 17.4212 6.23272 17.4212H18.6962C19.8387 17.4212 20.7735 16.4864 20.7735 15.344V2.88047C20.7735 1.73798 19.8387 0.803223 18.6962 0.803223ZM18.6962 15.344H6.23272V2.88047H18.6962V15.344ZM8.30997 8.07359H16.619V10.1508H8.30997V8.07359ZM8.30997 11.1895H12.4645V13.2667H8.30997V11.1895ZM8.30997 4.95772H16.619V7.03497H8.30997V4.95772Z" fill="#9193B9"/>
</svg>
