<svg width="22" height="24" viewBox="0 0 22 24" fill="none" xmlns="http://www.w3.org/2000/svg">
<path d="M21.4174 13.5L19.5086 9.51002C19.4411 9.36377 19.4149 9.20252 19.4374 9.03002C19.8049 6.33377 19.2086 4.06502 17.7086 2.48252C15.9761 0.648767 13.1636 -0.213733 9.79238 0.0450168C2.91113 0.581267 0.473633 5.51252 0.473633 9.57002C0.473633 12.06 1.79363 14.4525 4.51238 16.8825C7.38488 19.4475 5.95238 23.4713 5.93738 23.5125C5.89238 23.625 5.91113 23.7488 5.97863 23.8463C6.04613 23.9438 6.15863 24.0038 6.27863 24.0038H15.4024C15.5036 24.0038 15.6011 23.9588 15.6724 23.8875C15.7399 23.8125 15.7736 23.7113 15.7661 23.61L15.4136 19.2413H17.8511C18.9536 19.2413 19.8461 18.3863 19.8461 17.34V14.8575L20.6599 14.7675C20.9749 14.76 21.2674 14.5875 21.4211 14.3175C21.5674 14.0475 21.5599 13.7325 21.4174 13.5ZM4.93613 7.67252C5.39738 6.06752 6.49238 4.71377 7.93238 3.90752L7.32113 3.67877C7.13363 3.60752 7.03613 3.39377 7.10738 3.21002C7.17863 3.02252 7.38863 2.92502 7.57613 2.99627L8.96738 3.52502L9.03863 3.55127C9.13238 3.58877 9.21113 3.66002 9.24488 3.75377C9.28613 3.84377 9.28238 3.94877 9.23738 4.04627L8.58113 5.46377C8.52113 5.59877 8.38988 5.67377 8.25113 5.67377C8.19863 5.67377 8.14988 5.66252 8.09738 5.64002C7.91738 5.55752 7.83488 5.34002 7.91738 5.15627L8.17613 4.60502C6.94988 5.32127 6.02363 6.49502 5.62613 7.87502C5.57738 8.03627 5.43488 8.13752 5.27738 8.13752C5.24363 8.13752 5.21363 8.13377 5.17613 8.12252C4.99238 8.06252 4.88363 7.86377 4.93613 7.67252ZM9.69113 15.2438C9.64613 15.405 9.50363 15.51 9.34238 15.51C9.30863 15.51 9.27863 15.5025 9.24488 15.495C7.63988 15.0375 6.28613 13.9388 5.47613 12.4913L5.24738 13.1063C5.19113 13.2525 5.05238 13.3425 4.90613 13.3425C4.86113 13.3425 4.81988 13.335 4.77863 13.3163C4.59113 13.2488 4.49363 13.035 4.56488 12.8513L5.08988 11.46L5.11988 11.3888C5.12363 11.3775 5.13113 11.3663 5.13863 11.355C5.17613 11.2763 5.23988 11.2125 5.31863 11.1788C5.41238 11.1375 5.51738 11.1413 5.61113 11.1825L7.03238 11.8388C7.21238 11.9213 7.29488 12.1388 7.21238 12.3188C7.12988 12.5025 6.91238 12.585 6.72863 12.4988L6.17738 12.2438C6.89738 13.4738 8.07113 14.4 9.45113 14.7975C9.63863 14.85 9.75113 15.0525 9.69113 15.2438ZM6.72863 9.42752C6.72863 7.07627 8.64488 5.16002 10.9961 5.16002C13.3474 5.16002 15.2636 7.07627 15.2636 9.42752C15.2636 11.7788 13.3474 13.695 10.9961 13.695C8.64488 13.695 6.72863 11.7788 6.72863 9.42752ZM17.0674 11.1825C16.6061 12.7875 15.5111 14.1413 14.0636 14.9438L14.6824 15.1763C14.8699 15.2475 14.9674 15.4575 14.8961 15.645C14.8399 15.7913 14.7049 15.8813 14.5549 15.8813C14.5136 15.8813 14.4724 15.8738 14.4274 15.8588L12.9611 15.3113C12.8674 15.2738 12.7886 15.2025 12.7549 15.1088C12.7136 15.015 12.7174 14.91 12.7586 14.8163L13.4149 13.395C13.4974 13.215 13.7149 13.1325 13.8986 13.215C14.0786 13.2975 14.1611 13.515 14.0786 13.6988L13.8199 14.25C15.0461 13.53 15.9724 12.36 16.3699 10.98C16.4261 10.7888 16.6249 10.6763 16.8161 10.7288C17.0111 10.7888 17.1199 10.9913 17.0674 11.1825ZM17.4311 6.00002L16.8836 7.46627C16.8461 7.56002 16.7749 7.63877 16.6811 7.67252C16.6361 7.69127 16.5911 7.70252 16.5424 7.70252C16.4899 7.70252 16.4374 7.69127 16.3886 7.66502L14.9674 7.00877C14.7874 6.92627 14.7049 6.70877 14.7874 6.52877C14.8699 6.34877 15.0874 6.26627 15.2711 6.34877L15.8224 6.60377C15.1061 5.38127 13.9361 4.45502 12.5561 4.05377C12.3649 3.99752 12.2524 3.79502 12.3049 3.60377C12.3649 3.41252 12.5636 3.30377 12.7549 3.35627C14.3599 3.81752 15.7136 4.91252 16.5124 6.35627L16.7449 5.73752C16.8161 5.55377 17.0299 5.45627 17.2136 5.52752C17.4049 5.60252 17.4986 5.81252 17.4311 6.00002Z" fill="#9193B9"/>
</svg>
